<svg xmlns="http://www.w3.org/2000/svg" xmlns:xlink="http://www.w3.org/1999/xlink" viewBox="0 0 237 359.5"><defs><style>.cls-1{fill:none;stroke:#009245;stroke-miterlimit:10;stroke-width:2px;}.cls-2{fill:url(#white_gradient);}.cls-3{fill:#e6e6e6;}.cls-4{fill:url(#white_gradient-2);}.cls-5{fill:#666;}.cls-6{fill:gray;}.cls-7{fill:#afafaf;}.cls-8{fill:url(#red_gradient);}.cls-9{fill:url(#red_gradient-2);}.cls-10{fill:url(#gray_gradient_2);}.cls-11{fill:#c8c8c8;}.cls-12{fill:url(#gray_gradient_2-2);}.cls-13{fill:url(#white_gradient-3);}</style><linearGradient id="white_gradient" x1="107" y1="213" x2="135" y2="213" gradientUnits="userSpaceOnUse"><stop offset="0" stop-color="#c8c8c8"/><stop offset="0.7" stop-color="#f5f5f5"/><stop offset="0.97" stop-color="#c8c8c8"/></linearGradient><linearGradient id="white_gradient-2" x1="153" y1="294.5" x2="181" y2="294.5" xlink:href="#white_gradient"/><linearGradient id="red_gradient" x1="18" y1="107" x2="65" y2="107" gradientUnits="userSpaceOnUse"><stop offset="0" stop-color="#841c24"/><stop offset="0.7" stop-color="#ed1c24"/><stop offset="0.97" stop-color="#841c24"/></linearGradient><linearGradient id="red_gradient-2" y1="142.5" y2="142.5" xlink:href="#red_gradient"/><linearGradient id="gray_gradient_2" y1="41" x2="106" y2="41" gradientUnits="userSpaceOnUse"><stop offset="0" stop-color="gray"/><stop offset="0.7" stop-color="#c8c8c8"/><stop offset="0.97" stop-color="gray"/></linearGradient><linearGradient id="gray_gradient_2-2" y1="72" y2="72" xlink:href="#gray_gradient_2"/><linearGradient id="white_gradient-3" x1="206" y1="241" x2="234" y2="241" xlink:href="#white_gradient"/></defs><g id="Ebene_2" data-name="Ebene 2"><g id="Crop_choice" data-name="Crop choice"><path class="cls-1" d="M59,68.5c9,29,25.55,40.51,36,41,9.1.43,18.81-3.15,30-1s25,13,28,25c2.66,10.63,2,36.7-15,38"/><path class="cls-1" d="M56,69.5a96.25,96.25,0,0,0,25,19c34,17.84,82.5,16.23,92-3,5.2-10.53-.39-28.19-12-34-8.43-4.22-20.36-2.35-26,4-11.13,12.53,3.21,42.66,17,59,22.38,26.51,55.6,31,68,32"/><path class="cls-1" d="M59,68.5c-3,75,108,53,104,104-1.56,19.86-31,20.17-31,41,0,11.18,14,18,22,15"/><path class="cls-2" d="M107,183.5h28a0,0,0,0,1,0,0v54a5,5,0,0,1-5,5H112a5,5,0,0,1-5-5v-54A0,0,0,0,1,107,183.5Z"/><ellipse class="cls-3" cx="120.7" cy="182.58" rx="17.25" ry="3.26"/><ellipse class="cls-3" cx="120.7" cy="171.42" rx="17.25" ry="3.26"/><rect class="cls-3" x="103.45" y="171.52" width="34.55" height="11.1"/><ellipse cx="120.7" cy="172.21" rx="17.25" ry="1.29"/><ellipse cx="120.7" cy="167.79" rx="17.25" ry="1.29"/><rect x="103.45" y="167.83" width="34.55" height="4.4"/><path class="cls-4" d="M153,235.5h28a0,0,0,0,1,0,0v113a5,5,0,0,1-5,5H158a5,5,0,0,1-5-5v-113A0,0,0,0,1,153,235.5Z"/><ellipse class="cls-3" cx="166.7" cy="234.58" rx="17.25" ry="3.26"/><ellipse class="cls-3" cx="166.7" cy="223.42" rx="17.25" ry="3.26"/><rect class="cls-3" x="149.45" y="223.52" width="34.55" height="11.1"/><ellipse cx="166.7" cy="224.21" rx="17.25" ry="1.29"/><ellipse cx="166.7" cy="219.79" rx="17.25" ry="1.29"/><rect x="149.45" y="219.83" width="34.55" height="4.4"/><polyline class="cls-5" points="75 143.5 85 153.5 12 153.5 2 143.5"/><rect class="cls-5" x="2" y="138.5" width="5" height="5"/><rect class="cls-5" x="80" y="148.5" width="5" height="5"/><polygon class="cls-6" points="85 148.5 12 148.5 2 138.5 75 138.5 85 148.5"/><polygon class="cls-6" points="41.5 359.5 27 326.5 27 153.5 41.5 153.5 41.5 359.5"/><polygon class="cls-7" points="41.5 359.5 56 326.5 56 153.5 41.5 153.5 41.5 359.5"/><rect class="cls-8" x="18" y="71.5" width="47" height="71"/><ellipse class="cls-9" cx="41.5" cy="142.5" rx="23.5" ry="4.43"/><rect class="cls-10" y="10.5" width="106" height="61"/><ellipse class="cls-11" cx="53" cy="10" rx="53" ry="10"/><ellipse class="cls-12" cx="53" cy="72" rx="53" ry="10"/><path class="cls-13" d="M206,152.5h28a0,0,0,0,1,0,0v172a5,5,0,0,1-5,5H211a5,5,0,0,1-5-5v-172A0,0,0,0,1,206,152.5Z"/><ellipse class="cls-3" cx="219.7" cy="151.58" rx="17.25" ry="3.26"/><ellipse class="cls-3" cx="219.7" cy="140.42" rx="17.25" ry="3.26"/><rect class="cls-3" x="202.45" y="140.52" width="34.55" height="11.1"/><ellipse cx="219.7" cy="141.21" rx="17.25" ry="1.29"/><ellipse cx="219.7" cy="136.79" rx="17.25" ry="1.29"/><rect x="202.45" y="136.83" width="34.55" height="4.4"/></g></g></svg>