<svg xmlns="http://www.w3.org/2000/svg" viewBox="0 0 305.5 247.42"><defs><style>.cls-1{fill:#f9edd4;}.cls-2{fill:#efe3c5;}.cls-3{fill:#fff6e6;}.cls-4{fill:#e8d9ba;}.cls-5{fill:#cec09f;}.cls-6{fill:#f2e5cc;}.cls-7{fill:#5f7506;}.cls-8{fill:#7c9100;}.cls-9{fill:#86a514;}.cls-10{fill:#708909;}.cls-11{fill:#596802;}.cls-12{fill:#788400;}.cls-13{fill:#192d27;}.cls-14{fill:#111f1b;}.cls-15{fill:#f5f0e8;}.cls-16{fill:#e6dcd2;}.cls-17{fill:#39b54a;}</style></defs><g id="Ebene_2" data-name="Ebene 2"><g id="Crop_choice" data-name="Crop choice"><path class="cls-1" d="M113.69,211.32c-6.06,2.43,17.46,15.51,18.31,9.09.73-5.55-14.29-10.67-18.31-9.09Z"/><path class="cls-2" d="M113.75,214.87a21.2,21.2,0,0,0,11.39,6.19c3.4.59,9.47.82,4.89-3.63.35,3-15.85-3.48-17.31-5.21a2.71,2.71,0,0,0,1,2.65Z"/><path class="cls-3" d="M128.06,216.86c-3.43-3.54-8.63-4.84-13.38-4.77,1.5-.08,16.91,7.74,16.6,8.23.6-1-2.74-3.15-3.22-3.46C126.62,215.37,129.25,217.63,128.06,216.86Z"/><path class="cls-3" d="M122.16,216.21c-.86-.53,2.81,1.67,2.38,1.38l-2.38-1.38C121.9,216.05,123,216.67,122.16,216.21Z"/><path class="cls-1" d="M118.47,229.21c-2.25,4,14.89,5.1,17.28-.47,1.43-3.2-14.74-4-17.28.47Z"/><path class="cls-2" d="M120.27,232.24c4.45,1.72,20.56-3.21,12.84-5.77,1.63,2.77-12.94,4.77-14.83,4a2.75,2.75,0,0,0,2,1.76C122.81,233.22,119,231.73,120.27,232.24Z"/><path class="cls-3" d="M131.4,226.91c-5-1.77-7.72,1.2-11.82,2.56,1.29-.42,15.68-2,15.63-1.05.06-1.09-3.22-1.45-3.81-1.51C129.7,226.31,132.6,227,131.4,226.91Z"/><path class="cls-3" d="M126.77,229.16c-.91,0,2.92.15,2.32.06l-2.32-.06Z"/><path class="cls-1" d="M80.53,217.33c-1.48,3,3.55,3.16,5.21,3.06,4-.22,7.92-1.44,10.52-4.66,2.8-3.47-5.81-3.24-7.44-3-2.77.32-6.94,2-8.29,4.65C80,218.47,81.38,215.65,80.53,217.33Z"/><path class="cls-2" d="M82.35,220.17c2.81.78,6.49.11,9.15-.92s8.43-5.4,2.52-6.45c2.13,2.66-11.66,6.45-13.67,5.83a2.36,2.36,0,0,0,2,1.54C84.92,220.88,81,219.82,82.35,220.17Z"/><path class="cls-3" d="M92.48,213.49c-4.85-1.06-7.25,2.16-10.89,4,1.2-.55,14.64-3.86,14.73-3.07-.12-1.06-3.24-1-3.84-.91C90.79,213.12,93.63,213.41,92.48,213.49Z"/><path class="cls-3" d="M88.43,216.39c-.85.07,2.78-.28,2.22-.27l-2.22.27Z"/><path class="cls-4" d="M148.28,223.18c-4,2.2,8.2,6.31,9.47,6.66,4.33,1.22,11.65,2.31,15.92.37,2.25-1-8.54-6.17-9.35-6.41-4.71-1.4-11.39-3.12-16-.62C146.9,223.94,150.33,222.08,148.28,223.18Z"/><path class="cls-5" d="M149.88,226.73c4.19,2.27,9.32,4.1,14.13,4.16,2.25,0,13,1.17,8.41-3.08-2.2,3.79-21.9-1.5-24.39-4.41-1.77,1.27.93,2.84,1.85,3.33Z"/><path class="cls-6" d="M171.68,228.4c-4.79-4.79-14.87-5.58-21.16-5,3.95-.24,9.86,1.94,13.81,3.52a3.05,3.05,0,0,0-2.85-.14c-.49,1.88,10.17,1.63,10.2,1.65C169.66,226.39,172,228.72,171.68,228.4Z"/><path class="cls-4" d="M175,220.77c-3.48,2,3.8,5.81,5.19,6.48,3.37,1.61,8.93,2.26,12.43.53,2.53-1.25-5.27-5.8-6-6.1-3.5-1.36-8-3-11.58-.91Z"/><path class="cls-5" d="M175.5,224.24c2.61,2.2,6.53,4.61,10.08,4.38,2.35,0,9.35.69,6.44-3.25-1.78,3.66-15.93-1.38-17.23-4.4-1.4,1-.24,2.45.71,3.27C177.82,226.2,173.68,222.68,175.5,224.24Z"/><path class="cls-6" d="M191.43,226c-2.72-4-10.38-5.31-14.82-5,2.45-.1,7.13,2.36,9.57,3.65-1.2-.74-1.86-.69-2,.14.44.13,7.72,1.91,7.22,1.18C190.1,224,191.64,226.28,191.43,226Z"/><path class="cls-4" d="M153.22,235.19c-2.26,3.18,5.54,3.22,7,3.11a23.4,23.4,0,0,0,13.36-5.55c3.92-3.19-5.49-3.27-7.13-3.05-4.31.57-10.49,1.71-13.26,5.49C152.4,236.35,154.49,233.46,153.22,235.19Z"/><path class="cls-5" d="M155.57,238a21.09,21.09,0,0,0,10.71-.86c2.14-.79,11.83-5.2,6.45-7.1.13,4.4-16.7,7.5-19.63,5.43-.95,1.7,1.31,2.32,2.47,2.53Z"/><path class="cls-6" d="M172.46,230.89c-5.2-2-13,1.26-17.49,3.75,2.63-1.39,8.18-1.77,11.53-2-1.61-.09-2.24.31-1.9,1.18.18-.05,8.59-2.65,7.86-2.94C170.09,230,172.83,231,172.46,230.89Z"/><path class="cls-4" d="M69.84,213.61c-2.43,4.73,16.41,1.47,19.2-1.62,2-2.19-7.26-3.34-8.07-3.32-3.72.11-9.23,1.22-11.13,4.94Z"/><path class="cls-5" d="M72.29,216.3c2.89.56,21.16-2.79,15.31-6.32-.36,3.57-15.26,5.53-17.84,3.92-.58,1.62,1.4,2.2,2.53,2.4C75.38,216.9,69.93,215.88,72.29,216.3Z"/><path class="cls-6" d="M87.26,210.77c-4.47-3-12-.47-15.88,2.23,2.18-1.45,7.59-1.66,10.44-1.42-6,2.42,6.2-.3,5.44-.81Z"/><path class="cls-1" d="M169.1,226.06c-3,1.13.28,4.6,1.64,5.61a14.93,14.93,0,0,0,10.3,3.21c8.45-.85-6.33-10.8-11.94-8.82C167.9,226.51,170.92,225.42,169.1,226.06Z"/><path class="cls-2" d="M168.6,229.46c1.57,2.77,5.58,4.52,8.53,5.25s10,.26,5.55-3.92c.42,3.52-13.31-1.73-14.6-3.9a2.41,2.41,0,0,0,.52,2.57C170.11,232.11,167.79,228.24,168.6,229.46Z"/><path class="cls-3" d="M181,230.51c-3.27-3.57-7.27-2.59-11.18-3.6,1.57.5,14.14,6.15,14,6.52.46-1-2.26-2.62-2.79-2.92C179.8,229.21,182,231.09,181,230.51Z"/><path class="cls-3" d="M176,230.5c-.74-.45,2.47,1.39,2,1.09l-2-1.09Z"/><path class="cls-1" d="M157.22,223c-1.3,3.82,6.18,2,7.63,1.51,3.7-1.17,7.39-3,9.85-6.13,2.77-3.5-5.14-2.69-6.58-2.43-3.65.66-9.53,3.15-10.9,7.05C156.8,224.22,157.87,221.15,157.22,223Z"/><path class="cls-2" d="M159.8,225.39c4.58.25,21.16-9.31,12.17-9.71,2.07,1.9-12.42,8.79-14.71,8.62a2.64,2.64,0,0,0,2.54,1.09C162.94,225.56,158.26,225.32,159.8,225.39Z"/><path class="cls-3" d="M170.19,216.56c-4.76-.05-8.84,2.8-11.8,6.27,1-1.14,16.16-6.85,16.33-5.81-.18-1.12-4-.55-4.53-.46C168.23,216.54,171.55,216.35,170.19,216.56Z"/><path class="cls-3" d="M165.93,220.23c-1,.29,3-.8,2.47-.69l-2.47.69Z"/><path class="cls-1" d="M136.48,238.19c-5.74,3.21,16.29,13.36,16.68,7.38.35-5.49-12.89-9.51-16.68-7.38C135.36,238.81,138.13,237.26,136.48,238.19Z"/><path class="cls-2" d="M136.62,241.67c2.11,2.32,5.67,3.84,8.62,4.68s10.91,1.18,6.2-3.51c.27,3.09-14.4-2.06-15.8-3.66a2.63,2.63,0,0,0,1,2.49C138.51,243.75,135.64,240.6,136.62,241.67Z"/><path class="cls-3" d="M149.65,242.41c-3.69-3.85-7.78-2.92-12.27-3.46,1.12.2,15.78,5.5,15.13,6.63.55-1-2.35-2.85-2.86-3.17C148.35,241.05,150.72,243.08,149.65,242.41Z"/><path class="cls-3" d="M144.27,242.15c-.87-.47,2.63,1.52,2.15,1.19l-2.15-1.19Z"/><path class="cls-4" d="M87.83,209c-3.78,1.92,4,6.62,5.37,7.33,2.77,1.43,7.69,2.21,10.72,1s-5.62-6.93-6.68-7.38c-2.85-1.32-6.34-2.51-9.41-1C86.64,209.58,89.59,208.11,87.83,209Z"/><path class="cls-5" d="M88,212.47c2.25,2.33,5.79,4.93,9.16,5.07,2.33.19,8.76,1.46,6.52-2.64-2.05,3.2-15.07-2.54-16.06-5.74-1.41.93-.49,2.39.38,3.31C90,214.57,86.38,210.8,88,212.47Z"/><path class="cls-6" d="M103,215.45c-2.12-4.24-9.37-6.16-13.67-6.12,2.28,0,6.67,2.85,8.79,4.34-1.07-.83-1.7-.85-1.89,0,.37.15,7.19,2.69,6.77,1.83C102,213.4,103.16,215.77,103,215.45Z"/><path class="cls-4" d="M97,222.27c-1.35,6,11.89,1.29,13.72-1.84,1.15-2-12.1-5.35-13.72,1.84C96.77,223.39,97.4,220.61,97,222.27Z"/><path class="cls-5" d="M99.29,224.88c2.91.67,15.62-3,10.13-6.52.42,3.48-10.17,5.81-12.4,4.18-.15,1.4,1.1,2.08,2.27,2.34C101.67,225.43,97.46,224.47,99.29,224.88Z"/><path class="cls-6" d="M109.32,219.15c-3.33-2.31-8.79-.05-11.25,2.54,1.14-1.15,5.56-1.54,7.46-1.45-4,2.7,4.71-.45,3.79-1.09Z"/><path class="cls-4" d="M87.8,221.6c-5.77,2.78,11,13.49,12.21,10.78,2.62-5.84-6.81-13.31-12.21-10.78C86.68,222.14,89.43,220.84,87.8,221.6Z"/><path class="cls-5" d="M87.56,225.08c1.37,2,12.87,11.59,12.82,5.32-2.41,1.53-12.33-6.13-12.81-8.63-1.29.83-.69,2.32,0,3.31Z"/><path class="cls-6" d="M99.59,230.64c.14-5-6.22-8.31-10.46-8.6,2.2.21,5.64,3.47,7.06,5.45-5-2.2,3.38,3.71,3.4,3.15C99.62,229.58,99.58,231,99.59,230.64Z"/><path class="cls-7" d="M64.53,136.57c-5.26-3,7.83-28.23,9.9-32.39,8-16.16,19.46-31.38,36.63-38.32,13.67-4.34,29.08-.48,42.21,3.79,16.43,5.34,32,12.84,48.27,18.64-15.46-3.49-30.52-8.51-46-11.91-12.89-2.95-28.58-7-41.61-3.1-15.57,4.64-24,19.85-31.39,33.07C77.32,115.72,72.85,129.47,64.53,136.57Z"/><path class="cls-8" d="M100.93,79.08c-8.13,7.3-14,17.12-19.15,26.66-1.26,2.34-16,30.26-16.46,29.94-3-2.06,11.05-27.09,12.44-29.9,6.63-13.34,15.09-27.19,29.12-33.72,23.8-11.08,54.28,3.68,77.44,10.46-13.15-3.47-26.21-7.38-39.59-9.85-14.35-2.65-32.55-5.48-43.8,6.41C94.05,85.26,101.78,78.19,100.93,79.08Z"/><path class="cls-9" d="M60.2,227.91c-5.68-16.22-10.47-31.15-8.47-48.57,2.42-21,14.06-45.18,24.82-63.1C98,80.44,145.77,59.59,185.18,52.5a1,1,0,0,0-.39-2c-41.36,7.43-86.22,28.63-109.94,64.61-12,18.21-21.63,42.7-25.15,64.09-2.85,17.25,3,33.59,8.66,49.59.43,1.24,2.27.34,1.84-.88Z"/><path class="cls-10" d="M59.34,226.5c-23.6-29.69-25-71.46-21.71-107.63,1.86-20.3,5.76-39,17.28-56.17C65.62,46.78,80.49,33.85,93,19.35c.86-1-.85-2.11-1.7-1.12C76.83,35,60.18,49.84,48.54,68.86c-9,14.8-11.13,33-12.94,49.87C31.7,155.2,34.1,198,57.8,227.85c.82,1,2.36-.32,1.54-1.35Z"/><path class="cls-9" d="M54,23.83C41.57,42,30.57,60.84,26,82.57c-5.23,24.8.36,50.41,8,74,.41,1.24,2.41.87,2-.38-7.41-22.85-12.19-46.3-8.58-70.33C30.83,63.42,43.08,43.4,55.66,25A1,1,0,0,0,54,23.83Z"/><path class="cls-9" d="M46.15,205.61c-6.69-23-1.07-47.58,5.62-69.88,5.31-17.67,12-35.11,22.39-50.44,9.94-14.72,20.54-29,30.3-43.81C111.8,30.3,120.74,17.57,123,4.07c.21-1.3-1.83-1.43-2-.14-2.81,17.12-16,33.48-25.56,47.45s-20,27.47-28.84,41.95c-9.65,15.87-15.25,35.57-20,53.37-5.07,19.11-8,40-2.41,59.3.37,1.25,2.37.88,2-.39Z"/><path class="cls-11" d="M60.21,231.53c-5,2.18-9.45-26.58-9.77-29.89-1.66-17.33,2.63-36.53,14.25-49.91a106.05,106.05,0,0,1,13.66-13.06c6-4.82,13.76-11,21.76-11.66,16.28-1.25,33.13,9.06,45,19.14-11-7.21-23.42-12.39-36.64-13.54-7.12-.62-12.11,2-17.73,6.08a133.82,133.82,0,0,0-18.12,16.1c-9.21,9.73-13.67,21.93-14.21,35.26a164.41,164.41,0,0,0,.83,21.4C59.83,217.76,61.61,225.24,60.21,231.53Z"/><path class="cls-12" d="M62.73,166.72c-4.31,9.55-5.73,20.5-5.3,30.91.19,5.89.82,11.76,1.5,17.61.29,2.55.6,5.1.87,7.66.2,1.83,1.29,5.69.59,7.41-.11.28-1.8-2.8-1.91-3.06-1.1-2.55-1.33-5.31-1.79-8A200.36,200.36,0,0,1,53.85,198c-.77-12.7,1.46-25.5,8.4-36.34,3.49-5.44,8.24-10,12.92-14.37A102.64,102.64,0,0,1,92.9,133.43c11.73-6.65,25.84-1.59,37.41,3.3-9.74-3.52-22.39-8.25-32.61-4.19-7.06,3.47-13.1,9-19,14.12-6.56,5.71-12.82,11.77-16,20.06C59,175,63.58,164.5,62.73,166.72Z"/><path class="cls-7" d="M43.8,204.75c-4.86,1.9-6.87-20-7.1-22.44-1.18-12.7-.2-25.46.83-38.14,1.79-22.14,8-43.48,16-64.1-1.89,9.32-3.45,18.51-4.61,28-1.28,10.36-1.63,20.88-2.81,31.27-1.3,11.53-2.27,22.54-1.74,34.14.24,5.22.48,10.41.44,15.63C44.93,193.93,45.78,200.14,43.8,204.75Z"/><path class="cls-8" d="M43,155.63c-.34,7.91.4,16,.71,23.89.28,4.21.16,8.42.44,12.63.07,1.57,1.21,10.85-.11,11.72s-2.45-8.35-2.46-8.48c-.53-5-1-10-1.4-15-.8-9.43-1.29-19.22.41-28.58,3.59-19.72,5.24-39.71,9.06-59.42-.92,1.85-.71,4.89-.93,6.91s-.52,4.15-.82,6.23c-.82,5.67-.93,11.39-1.63,17.06-.59,11.07-3.16,21.89-3.27,33C42.89,159,43.18,141.23,43,155.63Z"/><path class="cls-7" d="M50.34,216.17c-6,5.2-32.63-46.63-34.92-51.75A183,183,0,0,1,2.92,128.7,120.42,120.42,0,0,1,1.1,85.89a118.14,118.14,0,0,0,5.18,33.43c4,12.67,9.25,25.11,14.36,37.36,5,12,11.53,22.76,18,34,2.54,4.4,5,8.86,7.25,13.42C47.67,207.72,50.22,212.08,50.34,216.17Z"/><path class="cls-8" d="M23.94,167.48C28.38,175.31,33,183,37.59,190.76c2.42,4.11,4.82,8.23,7.07,12.44,1.06,2,2.08,4,3,6,.48,1,2.92,4.92,2.51,6-.48,1.21-6.08-7.2-6.13-7.29-2.87-4.87-5.95-9.62-9-14.39-6.31-9.89-12.16-19.89-16.17-31C11.51,142.12,2.7,122.31.66,100.44c1.5,10.7,4.74,20.88,8.4,31,4.4,12.16,8.8,24.61,14.88,36C27.72,174.15,22,163.92,23.94,167.48Z"/><path class="cls-9" d="M157.23,50.26a270.08,270.08,0,0,0-34.57,21.59c-1.06.78.3,2.31,1.35,1.54A266.43,266.43,0,0,1,158.12,52.1c1.16-.61.27-2.45-.89-1.84Z"/><path class="cls-9" d="M116,85.26c-12.18,7.32-26.64,10.34-35.75,22-.81,1,.9,2.15,1.71,1.12,8.82-11.28,23.15-14.18,34.92-21.26,1.12-.68.25-2.52-.88-1.84Z"/><path class="cls-9" d="M108.74,96.37c-8.45,1.17-18.61,1-25.2,7.24-1,.9.39,2.44,1.34,1.53,6.26-5.91,16.21-5.65,24.24-6.76,1.31-.18.91-2.19-.38-2Z"/><path class="cls-9" d="M101.89,29.35C97.38,41.75,94,55.13,85.07,65.25c-.86,1,.48,2.52,1.34,1.54,9.22-10.44,12.75-24,17.42-36.79a1,1,0,0,0-1.94-.65Z"/><path class="cls-9" d="M101.29,54.39C92.84,62.12,82.79,68,76.55,77.82c-.7,1.11,1,2.24,1.7,1.13,6.14-9.71,16.08-15.43,24.38-23,1-.88-.37-2.42-1.34-1.53Z"/><path class="cls-9" d="M73,30.28c-4,7.91-8.18,15.63-13.76,22.58-.83,1,.88,2.14,1.7,1.12C66.5,47,70.65,39.31,74.68,31.4c.59-1.16-1.11-2.3-1.7-1.12Z"/><path class="cls-9" d="M23.49,67.8C21.6,80.61,20.67,93.21,23.34,106a1,1,0,0,0,2-.38c-2.64-12.61-1.68-25,.18-37.65.19-1.3-1.85-1.43-2-.14Z"/><path class="cls-9" d="M53.88,37.56C46.26,45.28,38,52.12,32.31,61.47c-.68,1.12,1,2.25,1.71,1.13,5.61-9.18,13.73-15.93,21.2-23.5.92-.94-.42-2.48-1.34-1.54Z"/><path class="cls-4" d="M45.13,37.41c-.82,4.26,7.24.48,8.62-.32,3.48-2,7-6.37,7.7-10.45.48-2.88-7.81,1.35-8.57,1.89-3,2.15-6.92,5-7.75,8.88C44.87,38.76,45.56,35.38,45.13,37.41Z"/><path class="cls-5" d="M48.19,39.25c3.73-.68,7.86-2.85,10-6.1,1.35-2,5.85-7.82.91-7.35,1.29,2.14-3.57,6.29-4.79,7.42-2.17,1.79-6,5.46-9.15,4.5-.15,1.81,1.77,1.77,3.06,1.53Z"/><path class="cls-6" d="M59.26,26.64a10.8,10.8,0,0,0-7.2,4c-.39.49-6.47,5.31-5.65,5.91.05,0,7.93-5.61,8.74-6-.14.2-1.45,1.55-1.28,1.75,1,1.24,5.85-5.64,5.39-5.61C56.86,26.82,59.63,26.62,59.26,26.64Z"/><path class="cls-4" d="M36.46,55.12c-.54,4.08,8.21-1.27,9.38-2a28.88,28.88,0,0,0,10.52-11.4c2.56-4.91-9.79,1.74-11.08,2.66-3.47,2.49-8.2,6.11-8.82,10.73Z"/><path class="cls-5" d="M40.22,56.07c3.92-1.72,8-4,11-7.07a35.69,35.69,0,0,0,4-5.24c1.47-2.32,3-4.51-.93-3.83,1.27,2.53-5.37,7.36-6.84,8.61-2.83,2.25-7.06,6.74-10.91,6.9,0,2.05,2.7,1.06,3.73.63C43.73,54.53,37.46,57.21,40.22,56.07Z"/><path class="cls-6" d="M54.32,40.84c-4,.52-6.8,3.43-9.81,5.73-.64.49-7.45,6.84-6.54,7.18.27.1,4.17-3.92,4.75-4.36a48.73,48.73,0,0,1,6.21-3.91c-.17.2-2,1.81-1.82,2C48.14,48.89,54.65,40.8,54.32,40.84Z"/><path class="cls-4" d="M37,50.38c1.87,3.5,5.73-3.38,6.41-4.83C45.1,41.87,45.24,38,44.71,34c-.7-5.23-5.64,2-6.45,3.91C36.74,41.48,35,46.63,37,50.38,37.6,51.58,36,48.57,37,50.38Z"/><path class="cls-5" d="M40.51,49.91A16.33,16.33,0,0,0,45,39.55c0-2.36.88-9.4-3.06-6.62,2.09,1.21.25,7.07-.14,8.72-.74,2.68-1.69,7.79-4.62,9,1,1.45,2.5.25,3.36-.71C42.81,47.52,38.83,51.78,40.51,49.91Z"/><path class="cls-6" d="M42.49,33.56a10,10,0,0,0-4,7.2c-.05.6-2.21,8.19-1.06,8.15-.15,0,3.15-9.16,3.58-10,0,.24-.36,2.06-.11,2.14,1.42.4,1.93-7.74,1.59-7.53C40.46,34.87,42.8,33.37,42.49,33.56Z"/><path class="cls-4" d="M25.39,75.45c1.69,5.46,18.43-18.08,16.41-18.59C34.45,55,22.71,68.29,25.39,75.45,25.85,76.91,24.58,73.29,25.39,75.45Z"/><path class="cls-5" d="M29.14,74.83c3-3.07,6.34-6,8.62-9.7.79-1.36,6.22-8.48,2.85-8.38-1.65,0-1.43,1.87-2.39,3.31-1.4,2.09-3.06,4-4.66,5.94-2.39,2.84-4.67,8-8,9.73.82,1.77,2.83-.11,3.58-.9C31.68,72.24,27.23,76.82,29.14,74.83Z"/><path class="cls-6" d="M39.44,57.81c-3,.43-6.15,2.82-7.95,5.22a40.27,40.27,0,0,0-3.36,4.37c-.27.47-2.46,6.19-1.95,6.16.23,0,2.64-5.08,3.09-5.68a27.06,27.06,0,0,1,5.22-5.09c-.13.21-1.61,2.09-1.41,2.26,1,.91,6.51-7.26,6.36-7.24Z"/><path class="cls-4" d="M23.16,85.63c.51,4.06,7.32-1.64,8.49-2.7,2.14-2,6.72-7.5,5.89-10.72-.73-2.88-8.63,3-9.37,3.67-2.56,2.4-5.47,6-5,9.75C23.33,87,22.92,83.65,23.16,85.63Z"/><path class="cls-5" d="M26.63,86.45a19.32,19.32,0,0,0,8.21-7.29c1.1-2,5.09-7.88.38-7.3,1.26,2.11-3,6.33-4.19,7.63-1.78,2.08-4.74,6.32-7.78,6.43.42,1.68,2.27,1.1,3.38.53C29.45,85.09,24.46,87.54,26.63,86.45Z"/><path class="cls-6" d="M35.43,72.71c-2.43.19-4.95,2-6.45,3.83-.48.58-6.05,7.46-4.85,7.87-.41-.14,6.72-7.13,7.48-7.62-.12.19-1.3,1.64-1.11,1.81,1.16,1.07,5.3-5.92,4.93-5.89Z"/><path class="cls-4" d="M23.1,81c3.45,2.5,7.55-14.58,3.84-17.66-.85-.71-3.12,1.62-3.55,2.16a14.09,14.09,0,0,0-2.59,6c-.61,3-.57,7.44,2.3,9.45C24.13,81.7,21.62,79.91,23.1,81Z"/><path class="cls-5" d="M26.22,79.18a19.83,19.83,0,0,0,2-10.16c-.28-2.43-.06-7.35-3.48-4.85,2.09.92.84,6.33.6,7.89-.2,2.55-.14,7.09-2,9,1.38.74,2.37-.83,2.85-1.89Z"/><path class="cls-6" d="M25.39,64.71A8.52,8.52,0,0,0,22,71.54c0,.44-.56,8.64,1,7.93,0,0-.29-3.85-.23-4.32a17.48,17.48,0,0,1,1.6-5.47c0,.23-.17,1.9.08,1.95,1.39.24,1.35-7.18.95-6.92C23.48,66,25.68,64.52,25.39,64.71Z"/><path class="cls-4" d="M29.65,65.69c2.45,2.89,5.11-5.53,5.64-6.86a24.6,24.6,0,0,0,.9-13c-.49-2.15-2.75.09-3.57,1a19.31,19.31,0,0,0-3.74,7.29c-1,3.47-1.87,8.5.77,11.57C30.55,66.75,28.36,64.19,29.65,65.69Z"/><path class="cls-5" d="M33,64.1C35,60.4,36.53,56.21,36.57,52c0-2.45.87-9.12-3-6,2.22,1.17.14,7.75-.27,9.39-.56,3-1,8.36-3.39,10.47,1.33,1.19,2.59-.75,3.13-1.77C33.78,62.65,31.82,66.35,33,64.1Z"/><path class="cls-6" d="M34.14,46.65A11.81,11.81,0,0,0,30,54.56c0,.56-1.62,9.89-.2,9.38.08,0,.4-4.94.54-5.53a27,27,0,0,1,2.25-5.9c0,.24-.41,2.25-.16,2.32C33.84,55.23,34.49,46.39,34.14,46.65Z"/><path class="cls-4" d="M25.14,118.06c3.92,2.65,7.11-12.8,4.76-15.66-.8-1-3.46,1-4,1.59a12.19,12.19,0,0,0-2.73,5c-.88,2.82-.86,7.27,2,9.1C26.16,118.75,23.67,117.11,25.14,118.06Z"/><path class="cls-5" d="M28.29,116.46c1.15-2.2,5-16.4-.65-13.68,1.73,1.07.37,5.76,0,7.25-.34,2.36-.41,6.43-2.21,8.13,1.32.66,2.34-.68,2.88-1.7C28.58,115.89,27.37,118.21,28.29,116.46Z"/><path class="cls-6" d="M28.2,103.38c-3,1.34-3.4,4.15-4.05,7-.13.55-.42,6.9.91,6.36,0,0-.25-3.14-.2-3.52a12.71,12.71,0,0,1,1.89-5.38c0,.21-.28,1.72,0,1.78,1.06.25,2.06-6.45,1.48-6.2C27.22,103.82,28.51,103.25,28.2,103.38Z"/><path class="cls-4" d="M24.9,111.28c4,1.38.78-9,.31-10.42a29,29,0,0,0-3.16-6.23c-.87-1.37-2-4-3.54-4.77-1.34-.63-2.1,4.37-2.12,5a21,21,0,0,0,1.21,7c1.19,3.53,3.48,8.09,7.3,9.43Z"/><path class="cls-5" d="M26.88,108.12a28.44,28.44,0,0,0-3.6-11.62C21.92,94.56,18.83,87,17,91.84c2.57.07,4.71,7.93,5.48,9.78,1.11,2.65,3.58,6.73,2.74,9.7,1.84.38,1.79-2,1.67-3.2C26.68,106.38,27.16,110.81,26.88,108.12Z"/><path class="cls-6" d="M17.83,92.16c-1.19,2.91-.58,6.72.93,9.41.43.69,4.45,9.19,5.29,8.12.11-.14-2.31-4.1-2.53-4.63a26.76,26.76,0,0,1-1.84-6.8c.12.21,1,2.19,1.21,2.1,1.19-.43-3-8.41-3.06-8.2C17.35,93.33,18,91.8,17.83,92.16Z"/><path class="cls-4" d="M41.26,86.56c.37,4.48,8.31-3.6,9.27-4.65A27.64,27.64,0,0,0,57.1,69.15c.43-2.18-2.76-.74-3.74-.22a22.43,22.43,0,0,0-6.16,5.33c-2.83,3.25-6.28,7.69-5.94,12.3C41.38,88.08,41.09,84.31,41.26,86.56Z"/><path class="cls-5" d="M45,86.88a29.09,29.09,0,0,0,8.78-9.26c.41-.74,4.28-9.42,3.2-9.56-2.82-.3-1.85.94-2.58,2.81a30.08,30.08,0,0,1-3.55,6c-2.09,3-5.59,9.15-9.47,10,.4,2,2.62.7,3.62,0C48.06,84.78,42.57,88.54,45,86.88Z"/><path class="cls-6" d="M54.84,69.33c-3.07.9-6.08,3.93-7.56,6.69-.35.64-6.06,8.73-4.92,9,.25,0,2.74-4.2,3.12-4.67a42.14,42.14,0,0,1,5.19-5.49c-.11.22-1.41,2.16-1.21,2.32,1.25,1,5.6-7.87,5.38-7.81C52.3,70.08,55.23,69.22,54.84,69.33Z"/><path class="cls-4" d="M66.39,41.88c1.5,3,5.62-1.81,6.61-3.06a17.76,17.76,0,0,0,3.82-10.21c.16-4.11-7,1.95-7.86,3-2,2.52-4.21,7-2.57,10.28Z"/><path class="cls-5" d="M70,41.82a16.43,16.43,0,0,0,6-8.55c.63-2.33,2.42-6.74-1.55-5.72C76,29.21,73,33.61,72.12,35c-1.17,2.29-2.83,6.35-5.55,7.13.88,1.31,2.46.44,3.41-.29C72.32,40.08,68.24,43.16,70,41.82Z"/><path class="cls-6" d="M74.78,28.29a8.58,8.58,0,0,0-5.58,5c-.16.49-3.59,7.26-2.22,7.35-.51,0,4.45-7.55,5.09-8.14-.07.21-.86,1.66-.64,1.79,1.25.77,3.87-6.06,3.35-6Z"/><path class="cls-4" d="M79.63,28.64c.22,4.33,8.81-3.07,9.84-4.05,2.87-2.74,6.75-7.74,7.16-11.86.26-2.71-9.3,3.49-10,4.11-3.09,2.83-7.26,7.25-7,11.8C79.7,30.09,79.52,26.53,79.63,28.64Z"/><path class="cls-5" d="M83.4,29.16A26.78,26.78,0,0,0,93,20.44a49.55,49.55,0,0,0,3-5.72c1-2.24.8-3-2-2.35,1.38,2.21-4,7.45-5.24,8.78-2.19,2.52-5.51,7.28-9.08,7.79.35,1.91,2.68.78,3.69.22Z"/><path class="cls-6" d="M94.22,13.25a13.56,13.56,0,0,0-7.9,5.56c-.38.58-6.6,8.12-5.5,8.39.28.06,3-3.86,3.4-4.31a35.24,35.24,0,0,1,5.48-4.8c-.13.21-1.56,1.92-1.37,2.11,1.07,1.07,6.21-7,5.89-6.95C91.61,13.75,94.62,13.18,94.22,13.25Z"/><path class="cls-4" d="M77.92,24.87C79.48,28.09,84,22.25,85,21a17.05,17.05,0,0,0,3.48-10.72c-.09-4-7,2.73-7.79,3.8-2,2.8-4.5,7.23-2.74,10.78C78.49,26,77.09,23.2,77.92,24.87Z"/><path class="cls-5" d="M81.51,24.69c2.44-2.2,5.08-5,5.95-8.24.69-2.39,2.83-8.63-1.59-6.88,2.95,2.29-5.12,14.63-7.77,15.53.89,1.36,2.51.35,3.41-.41C83.64,22.77,79.79,26.14,81.51,24.69Z"/><path class="cls-6" d="M86.33,10.26A9.73,9.73,0,0,0,81,15.78c-.15.46-4,7.64-2.44,7.7-.55,0,4.68-8,5.29-8.65-.07.22-.84,1.78-.62,1.91,1.37.83,3.67-6.66,3.15-6.48C84.19,11.05,86.67,10.15,86.33,10.26Z"/><path class="cls-4" d="M57,60.64c1.13,4.77,13.65-4.77,11.59-10.1-1-2.48-7,1.35-7.94,2.17-2.2,1.92-4.39,4.77-3.65,7.93C57.29,61.83,56.6,58.88,57,60.64Z"/><path class="cls-5" d="M60.24,61.79a12,12,0,0,0,7.14-6.39c1-2.32,2.69-5.47-1-5.32,2.24,2.65-6.43,11.11-9.22,10.82.5,1.39,1.94,1.32,3.12.89Z"/><path class="cls-6" d="M66.67,50.8A7,7,0,0,0,61,54c-.32.57-4.62,5-3.22,5.68-.57-.26,5.32-5.36,6-5.73-.1.2-1,1.29-.78,1.47.92.83,4.52-4.64,3.71-4.64C64.52,50.82,67,50.8,66.67,50.8Z"/><path class="cls-4" d="M70.71,43.33c-.24,3.78,8.29-1.31,9.46-2A27.38,27.38,0,0,0,90.31,31.1c2.09-3.78-7.56,0-8.71.59C77.4,33.9,71,37.94,70.71,43.33,70.62,44.78,70.77,42.27,70.71,43.33Z"/><path class="cls-5" d="M74.48,44.17c4.27-1.72,8.64-4.14,11.73-7.59a35.39,35.39,0,0,0,3.71-4.83c1.29-2,.8-2.47-1.76-2.29,1,2.21-4.55,6-5.84,7-3,2.29-7.66,6.86-11.55,7.21.15,1.88,2.71.94,3.71.53Z"/><path class="cls-6" d="M88.2,30.36c-3.87.13-6.75,2.65-9.72,4.73-.51.35-7.46,6.49-6.36,6.85.13.05,4-3.76,4.59-4.16a36.61,36.61,0,0,1,6.08-3.4c-.17.18-2,1.6-1.81,1.82.92,1.38,7.58-5.86,7.22-5.84C86.84,30.4,88.61,30.34,88.2,30.36Z"/><path class="cls-4" d="M52,69.09c2.12,3.3,13.54-8.52,12.23-12.38-.37-1.07-3.68-.38-4.38-.16a13.82,13.82,0,0,0-5.73,3.79c-1.85,1.95-4.18,6.14-2.12,8.75C52.7,70.18,50.72,67.46,52,69.09Z"/><path class="cls-5" d="M55.44,68.72c2.53-2,5.11-3.72,6.72-6.62,1.23-2.2,3.92-5.94-.22-5.87,1.3,1.85-2.73,5.47-3.77,6.55-1.89,1.93-3.56,5.27-6,6.51.93,1.07,2.42.12,3.23-.57C57.29,67.25,54.09,69.87,55.44,68.72Z"/><path class="cls-6" d="M62.19,57a8,8,0,0,0-6.47,3.41c-.81,1.35-2.12,2-2.76,3.55-.11.28-1.12,3.65-.55,3.64,0,0,1.39-3.13,1.63-3.46a13.69,13.69,0,0,1,4.61-3.84c-.12.19-1.17,1.4-1,1.59.91.91,5.2-4.88,4.53-4.89C60,57,62.53,57,62.19,57Z"/><path class="cls-4" d="M57.9,61.31c-.16,3.56,5.67.8,7.11.07a21.35,21.35,0,0,0,8.49-8.29c1-1.67-.92-2.09-2.31-2.2a11.26,11.26,0,0,0-6.42,1.88c-3,1.76-6.64,4.72-6.87,8.54C57.84,62.63,58,59.35,57.9,61.31Z"/><path class="cls-5" d="M61.08,62.87a18.2,18.2,0,0,0,8.3-4.5c1.7-1.66,6.81-6.53,2.47-7.36.64,2.35-5.06,5.84-6.5,7-1.87,1.44-4.84,4.16-7.41,3.65.12,1.68,1.92,1.56,3.14,1.26C64.12,62.17,58.8,63.44,61.08,62.87Z"/><path class="cls-6" d="M71.83,51.87a8.5,8.5,0,0,0-7.53,2.59c-.37.41-6.42,5.21-5.27,5.92-.4-.24,7.54-5.37,8.33-5.68-.15.17-1.51,1.3-1.36,1.5.74,1,6.18-4.25,5.83-4.33Z"/><path class="cls-4" d="M53.73,123.93c.25,4.24,6.73-1.52,7.75-2.58a27.81,27.81,0,0,0,6.65-12.77c.4-1.82-2.85-.87-3.7-.55a14.91,14.91,0,0,0-5.28,4.28c-2.65,3.15-5.45,7.32-5.42,11.62C53.81,125.32,53.72,121.93,53.73,123.93Z"/><path class="cls-5" d="M57.37,124.68a20.34,20.34,0,0,0,7.85-8.51c.9-1.84,1.53-3.84,2.27-5.75.91-2.16,1-3.26-1.78-2.72,1.23,2.33-3.57,8.19-4.73,9.92-1.53,2.27-4,6.53-7.17,6.61.32,1.92,2.44,1,3.56.45C60.64,122.84,54.84,126,57.37,124.68Z"/><path class="cls-6" d="M65.89,108.57c-2.7.39-5.31,3-6.61,5.23-.5.87-5.37,8.59-4.45,8.88,0,0,6.35-8.42,7.21-9.22-.09.22-1.16,2-.94,2.16.95.68,5.07-7.09,4.79-7.05C63.34,108.93,66.28,108.51,65.89,108.57Z"/><path class="cls-4" d="M55.94,112c1.22,4.36,6.71-5,7.26-6.1,2.49-5.26,4.09-11.84,3.53-17.71-.2-2.18-3.12.67-3.74,1.33a24,24,0,0,0-4.41,7.82c-1.65,4.24-3.87,10.05-2.64,14.66C56.37,113.52,55.31,109.64,55.94,112Z"/><path class="cls-5" d="M59.74,111.2a28.91,28.91,0,0,0,6.42-15.27c.28-2.53.82-5.22.57-7.76-.11-1.15-.54-1-1.54-.41-1.66.95-.57,1.11-.64,2.7-.22,5.36-2.33,11.24-4.43,16.11-.87,2-2,4.66-4,5.72.84,2.06,2.88-.19,3.64-1.09Z"/><path class="cls-6" d="M64.57,89.36c-2.89,2.17-4.79,6.25-5.37,9.74-.15.85-3.15,11-2.47,10.93s1.9-5.61,2.17-6.33a59.59,59.59,0,0,1,3.17-7.12c0,.26-.69,2.78-.45,2.87,1.34.47,3-10.12,2.95-10.09C63.43,90.22,64.92,89.1,64.57,89.36Z"/><path class="cls-4" d="M91.15,61.62c1.34,5.06,12.17-3.6,10.43-8.74-.85-2.55-6.39.78-7.36,1.61-2.06,1.79-3.8,4.21-3.07,7.13C91.46,62.77,90.73,59.92,91.15,61.62Z"/><path class="cls-5" d="M94.22,63c2.31-.66,5.35-2.37,6.19-4.77s2.69-5.9-1-6C101.67,55,94,62.42,91.27,61.88c.48,1.3,1.75,1.45,3,1.1C96.46,62.34,92.47,63.49,94.22,63Z"/><path class="cls-6" d="M99.78,53A6,6,0,0,0,95,55.1c-.41.51-4.47,5-3.19,5.7-.61-.33,4.8-4.67,5.37-5-.09.21-.83,1.19-.63,1.36,1,.86,4-4.17,3.2-4.22C97.77,52.84,100.09,53,99.78,53Z"/><path class="cls-4" d="M80,71.84c1.08,4.42,8.64-7.62,9.33-8.9a32.88,32.88,0,0,0,3-8c.57-2.32,1.81-5.61,1.31-8-.28-1.32-4,1.88-4.38,2.28A33,33,0,0,0,84,56.89c-2.23,4.2-5.21,10-4,15C80.34,73.42,79.4,69.53,80,71.84Z"/><path class="cls-5" d="M83.9,70.86c3.35-3.88,6.49-8.74,7.84-13.73a61.34,61.34,0,0,0,1.81-8.36c.32-2.6-.62-2.39-2.62-1,2.15,2.1-2.68,10.7-3.59,12.67-1.65,3.57-3.62,9.59-7.23,11.67.8,2.1,3.09-.47,3.79-1.28Z"/><path class="cls-6" d="M91.32,48.69c-3.11,2.05-5.61,6.09-6.71,9.58-.64,2-2,3.7-2.59,5.73-.16.5-1.37,5.78-1.16,5.75.48-.06,2.09-5.27,2.44-6A57.28,57.28,0,0,1,87.88,56c-.09.31-1.11,2.81-.9,2.92,1.36.69,4.49-10.31,4.34-10.21Z"/><path class="cls-4" d="M104,39.44c1.55,3.34,6.2-2.54,7.15-3.83,2.11-2.87,3.69-7.51,3-11.12-.57-3-6.88,3.43-7.43,4.23-2,2.84-4.34,7.19-2.72,10.72C104.51,40.6,103.19,37.74,104,39.44Z"/><path class="cls-5" d="M107.58,39.37c2.52-2,5.12-5.08,5.82-8.32.51-2.36,2.51-8.36-1.76-6.72,2.88,2.43-4.55,14.5-7.49,15.34.86,1.39,2.48.46,3.43-.3C109.91,37.49,105.78,40.81,107.58,39.37Z"/><path class="cls-6" d="M112.09,25a9,9,0,0,0-5.23,5.63c-.14.48-3.63,7.37-2.27,7.46-.38,0,4.5-7.9,5.08-8.53-.06.22-.75,1.78-.52,1.9,1.32.7,3.42-6.62,2.94-6.46C109.93,25.76,112.43,24.92,112.09,25Z"/><path class="cls-4" d="M115.87,16.72c1.91,3.1,5.78-3.54,6.61-4.76,1.81-3.07,3.57-7.56,3.24-11.23-.14-1.51-2.87-.27-3.57.1A14.18,14.18,0,0,0,117,6.37c-1.64,2.86-3.1,7.25-1.15,10.35C116.56,17.84,114.86,15.11,115.87,16.72Z"/><path class="cls-5" d="M119.41,16.08a22.27,22.27,0,0,0,5.41-9.75C125.31,4,127.41-1,123.24.4c1.74,1.8-1.89,7.53-2.64,9.19-1,2.29-2.17,6.15-4.53,7.34,1.05,1.28,2.54,0,3.34-.85C120.4,15,117.87,17.78,119.41,16.08Z"/><path class="cls-6" d="M123.63,1.15A9.18,9.18,0,0,0,118,7c-.13.48-3.3,8.34-1.73,8.21.06,0,1.07-3.92,1.28-4.37a19.13,19.13,0,0,1,3.33-5c-.06.22-.8,1.87-.57,2,1.2.62,3.66-6.77,3.3-6.67C122.52,1.49,124,1.06,123.63,1.15Z"/><path class="cls-4" d="M112.46,27.68c1.27,4.51,13.79-6.13,11.87-11.57-1-2.75-7.5,2.26-8.31,3.07-2.08,2.11-4.46,5.3-3.56,8.5Z"/><path class="cls-5" d="M115.9,28.47c2.65-1.22,5.64-3.39,6.8-6.17.93-2.23,3.56-7-.63-6.57,2.27,2.84-6.53,12.15-9.48,12.2.59,1.42,2.2,1.05,3.31.54Z"/><path class="cls-6" d="M122.39,16.48a7.75,7.75,0,0,0-5.84,3.87c-.21.43-4.66,5.83-3.3,6.27-.45-.15,5.44-6.09,6.14-6.57-.1.21-1,1.45-.79,1.62,1,.82,4.52-5.23,3.79-5.19C120.23,16.62,122.73,16.46,122.39,16.48Z"/><path class="cls-4" d="M106.08,29.2c1.87,3.22,5.9-3.22,6.69-4.6,1.81-3.15,2.87-8,1.83-11.58-.93-3.22-7,5.05-7.39,5.94-1.42,2.92-2.94,7.11-1.13,10.24Z"/><path class="cls-5" d="M109.65,28.76c2.3-2.33,4.55-5.67,4.9-9,.26-2.37,1.67-8.75-2.42-6.68,3.1,2.22-2.95,15.16-5.85,16.34,1,1.31,2.5.2,3.37-.66C111.77,26.62,108,30.4,109.65,28.76Z"/><path class="cls-6" d="M112.66,13.76A9.07,9.07,0,0,0,108.05,20c-.1.51-2.86,7.85-1.49,7.81-.39,0,3.65-8.48,4.16-9.18,0,.24-.57,1.89-.32,2,1.36.58,2.71-7.06,2.26-6.85C110.59,14.7,113,13.61,112.66,13.76Z"/><path class="cls-4" d="M90.94,50c-.06,4,7.49.4,9-.54.9-.56,7-6.92,5.38-7.85C100.44,38.8,91,44.41,90.94,50,90.92,51.27,91,48.18,90.94,50Z"/><path class="cls-5" d="M94,51.74c2.92-.48,6.39-1.85,8.26-4.24,1.51-1.93,5.35-5.87,1.12-6.53,1.49,3.29-9.53,10.1-12.36,9.33.16,1.53,1.76,1.64,3,1.44Z"/><path class="cls-6" d="M103.47,41.78A7.76,7.76,0,0,0,96.82,44c-.45.49-6.07,4.36-4.84,5.2-.43-.3,6.86-4.47,7.65-4.74-.15.17-1.34,1.14-1.2,1.35.74,1.08,5.75-3.89,5-4C101.32,41.37,103.81,41.85,103.47,41.78Z"/><path class="cls-4" d="M95.67,42.86c1.61,3.42,6-2.65,6.92-4,2-3,3.42-7.8,2.6-11.44-.66-3-6.7,3.67-7.21,4.49-1.9,3-4,7.37-2.31,10.94Z"/><path class="cls-5" d="M99.2,42.78c2.47-2.15,4.91-5.35,5.5-8.64.43-2.37,2.25-8.59-2-6.78,2.92,2.31-3.91,14.86-6.88,15.74.88,1.4,2.42.5,3.36-.32Z"/><path class="cls-6" d="M103.2,28.05a9,9,0,0,0-5,5.83c-.13.53-3.36,7.53-2,7.62-.46,0,4.19-8.12,4.72-8.76,0,.23-.68,1.83-.45,1.94,1.3.68,3.19-6.81,2.7-6.63C101.07,28.87,103.52,27.93,103.2,28.05Z"/><path class="cls-4" d="M81.32,71.92c0,3.71,6.35.84,7.9,0a14,14,0,0,0,6.36-7.08c1.14-3.21-7.14-1-8.13-.47-2.84,1.37-6.11,4-6.13,7.52C81.32,73.17,81.33,70.09,81.32,71.92Z"/><path class="cls-5" d="M84.33,73.65a14,14,0,0,0,8-4c1.5-1.8,5.33-5.47,1.39-6.41,1.06,3.3-9.7,9.72-12.38,9,.17,1.52,1.72,1.65,3,1.45C87,73.27,82.28,74,84.33,73.65Z"/><path class="cls-6" d="M93.81,64.06a7.69,7.69,0,0,0-6.13,1.35c-.7.5-6.51,4.88-5.34,5.7-.53-.37,6.75-4.38,7.54-4.61-.15.16-1.37,1.07-1.22,1.27.73,1.08,5.82-3.51,5.15-3.71C91.78,63.47,94.12,64.16,93.81,64.06Z"/><path class="cls-4" d="M74.15,83.48c-.06,3.9,8.7-1.77,10-2.62,3.17-2.11,8-5.41,9.62-9,.68-1.45-4-1.34-4.61-1.25a20.58,20.58,0,0,0-7.49,2.88c-3.37,2-7.41,5.72-7.5,10C74.13,84.92,74.19,81.43,74.15,83.48Z"/><path class="cls-5" d="M77.85,84.3c3.5-1.59,7.57-3.68,10.31-6.43,1.67-1.71,8.68-6.57,3.32-7.23.48,2.3-5.88,5.81-7.42,6.77-2.56,2-6.49,6.13-9.84,6.38.22,1.87,2.59,1,3.63.51Z"/><path class="cls-6" d="M91.36,71.53c-3.89-.6-7,1.59-10,3.7-.59.42-7.13,6.49-5.91,6.9.11,0,3.37-3.55,3.84-3.91a23.74,23.74,0,0,1,6.38-3.49c-.17.17-2,1.45-1.85,1.67.71,1.11,7.75-4.83,7.54-4.87C90.08,71.33,91.76,71.6,91.36,71.53Z"/><path class="cls-4" d="M102.39,50.46c-.18,3.49,5.17,1.63,6.83.84a12.75,12.75,0,0,0,6.5-7.89c.88-3.11-6.1-1-7.16-.42-2.81,1.55-5.9,4-6.17,7.47C102.33,51.69,102.54,48.59,102.39,50.46Z"/><path class="cls-5" d="M105.18,52.45c2.84-.18,6.43-1.82,8-4.28,1.29-2,4.53-5.78.57-6.37,1.58,3.35-8.52,10.14-11.33,9,.06,1.53,1.46,1.83,2.75,1.7C108,52.28,103.09,52.66,105.18,52.45Z"/><path class="cls-6" d="M113.91,42.59A6.91,6.91,0,0,0,107.67,45c-.43.54-5.32,3.95-4.29,4.82-.29-.25,6.32-4.19,7-4.47-.12.18-1.17,1.16-1,1.37.71.91,5.27-3.93,4.52-4.08C111.79,42.19,114.23,42.66,113.91,42.59Z"/><path class="cls-4" d="M103.25,97.72c-1.69,6.1,20.21-1.53,18.74-3.84-3.72-5.72-17-2.46-18.74,3.84C102.9,99,103.76,95.9,103.25,97.72Z"/><path class="cls-5" d="M106.14,99.88c3.14-.06,7-.44,9.85-2,2-1.22,8.32-3,4.43-5.48-.27,2.32-7,3.38-8.72,4-2.37.76-6,2.58-8.46,1.65-.24,1.64,1.71,1.88,2.9,1.86C107.63,99.85,103.83,99.91,106.14,99.88Z"/><path class="cls-6" d="M120.08,93.2a8.89,8.89,0,0,0-8.18-.48c-.43.22-8.46,3.22-7.26,4.3,0,0,4.24-2.1,4.76-2.24a17.48,17.48,0,0,1,5.32-.68c-.2.1-2,.63-1.88.87.32,1.25,7.49-1.59,7.24-1.77C119.12,92.55,120.37,93.41,120.08,93.2Z"/><path class="cls-4" d="M102.66,91.32c-.65,4,7.5.89,9,.19,2.2-1,7.81-5,7.67-7.89s-8.81.11-9.87.63c-2.85,1.39-6.25,3.64-6.82,7.07C102.45,92.61,103,89.42,102.66,91.32Z"/><path class="cls-5" d="M105.61,93.26c3.27-.36,7.13-1.63,9.5-4,1.74-1.75,6.66-5.76,2.06-6.6,1.25,3.45-11.64,9.92-14.5,9-.07,1.65,1.69,1.78,2.94,1.64C108.56,92.94,103.33,93.52,105.61,93.26Z"/><path class="cls-6" d="M117.2,83.46a9.2,9.2,0,0,0-7.43,2c-.4.36-7,4.23-5.89,5.1-.37-.3,8-4.28,8.83-4.5-.17.16-1.59,1.11-1.46,1.34.68,1.2,6.56-3.77,6-3.91C114.92,83,117.55,83.54,117.2,83.46Z"/><path class="cls-4" d="M86.34,102c-1.82,3.71,7.43,2.83,9,2.58,2.54-.41,9.22-2.71,10-5.59s-8.92-2.23-10-2c-3.24.59-7.43,1.82-9,5C85.76,103.14,87.21,100.2,86.34,102Z"/><path class="cls-5" d="M88.76,104.6c3.39.52,7.58.34,10.64-1.34,2.12-1.15,8.46-3.79,4.14-5.87.09,3.79-14.63,6.53-17.27,4.85-.56,1.61,1.28,2.18,2.49,2.36C91.82,105.07,86.41,104.25,88.76,104.6Z"/><path class="cls-6" d="M103.3,98.2a9.83,9.83,0,0,0-8-.07c-.49.23-8.28,2.3-7.47,3.38-.23-.3,9.33-2,10.22-2-.21.11-1.93.65-1.87.9.33,1.49,7.55-2,7.14-2.2Z"/><path class="cls-4" d="M98.23,86.49c-.67,4.85,9.86-1.64,11-2.62.8-.67,7.6-9.32,6.06-9.9-5.94-2-16.24,6.85-17.11,12.52C98,87.88,98.56,84.4,98.23,86.49Z"/><path class="cls-5" d="M101.54,88a19.11,19.11,0,0,0,10.78-7.61c1.33-2,5.63-7,.76-6.63,1.14,2.25-4.1,6.48-5.38,7.67-2.27,2-6.13,5.93-9.45,5.37,0,1.86,2.08,1.54,3.29,1.2C103.23,87.55,99,88.72,101.54,88Z"/><path class="cls-6" d="M113.21,74.63a11.69,11.69,0,0,0-7.14,3.55c-.56.57-7.33,6.81-6.52,7.28,0,0,8.06-6.22,9.15-6.83-.14.2-1.56,1.63-1.39,1.83.91,1.09,6.35-5.84,5.9-5.83C110.7,74.75,113.59,74.62,113.21,74.63Z"/><path class="cls-4" d="M128.11,67.4c-.56,3.91,6.75.94,8.18.16,3.37-1.66,7-5.53,7.69-9.34.57-2.9-7.95.76-8.79,1.27-2.88,1.78-6.52,4.26-7.08,7.91C127.93,68.71,128.41,65.46,128.11,67.4Z"/><path class="cls-5" d="M131.13,69.27c3.4-.49,7.38-2.22,9.46-5.06,1.5-1.91,5.84-7,1.1-7,2.07,3.66-10.44,11.48-13.56,10.51,0,1.68,1.75,1.75,3,1.56Z"/><path class="cls-6" d="M141.86,58a9.78,9.78,0,0,0-7,3.12c-.39.42-6.49,4.71-5.52,5.45-.16-.12,7.7-4.92,8.48-5.25-.15.19-1.44,1.34-1.28,1.55.93,1.29,5.9-4.84,5.34-4.87C139.56,58,142.21,58,141.86,58Z"/><path class="cls-4" d="M114.57,80.12c-1.56,3.95,7.71,1.7,9.18,1.27a20.1,20.1,0,0,0,9.93-7c2.42-3.2-8.3-1.44-9.35-1.07-3.62,1.25-8.17,3-9.76,6.85C114.06,81.42,115.35,78.2,114.57,80.12Z"/><path class="cls-5" d="M117.32,82.42c3.67-.08,8.35-.88,11.24-3.33,1.88-1.47,8.32-5.55,3.41-6.73.45,2.44-5.62,4.89-7.16,5.63-2.61,1.11-7.42,3.73-10.29,2.44-.47,1.75,1.54,2,2.8,2C120.56,82.35,114.78,82.45,117.32,82.42Z"/><path class="cls-6" d="M131.85,73.22a11.18,11.18,0,0,0-7.66,1.19c-.66.36-9,4.17-8.13,5-.16-.17,9.4-3.6,10.47-3.81-.2.15-1.92,1.07-1.82,1.31.55,1.31,7.61-3.59,7.14-3.73C129.5,72.57,132.21,73.33,131.85,73.22Z"/><path class="cls-4" d="M145.13,56.89c-.21,4.17,8.06,0,9.48-.9.85-.54,7.57-7.41,6-8.28-5.14-2.78-15.13,3.42-15.44,9.18C145.07,58.18,145.23,55,145.13,56.89Z"/><path class="cls-5" d="M148.25,58.55a15.87,15.87,0,0,0,9.5-5.48c1.5-1.94,5-5.46.79-6,1.47,3.39-10.42,10.75-13.37,10.06.12,1.62,1.87,1.61,3.08,1.37Z"/><path class="cls-6" d="M158.63,48a8.73,8.73,0,0,0-7.08,2.53c-.35.38-6.47,4.77-5.29,5.53-.39-.25,7.46-4.88,8.22-5.17-.15.18-1.45,1.23-1.3,1.45.82,1.2,6-4.26,5.45-4.34C156.39,47.6,159,48,158.63,48Z"/><path class="cls-4" d="M143.94,64.8c-2,4,9.09,1.59,10.48,1.21,3.78-1,9.37-3.67,11.61-7.08.8-1.23-3.1-1.84-3.75-1.88a20.94,20.94,0,0,0-6.85.86C151.38,59,146,60.76,143.94,64.8,143.29,66.12,144.93,62.87,143.94,64.8Z"/><path class="cls-5" d="M146.84,67.12c4.12,0,9-.89,12.52-3.11,2-1.24,9.88-5.17,4.63-6.64.15,2.61-6.89,4.69-8.61,5.33-3,1.11-8.29,3.75-11.52,2.41-.65,1.84,1.77,2,3,2C150.43,67.11,144.05,67.15,146.84,67.12Z"/><path class="cls-6" d="M163.73,58.24c-2.9-.93-6.88-.19-9.49,1.26-.74.41-9.46,3.75-8.59,4.62.17.17,4.37-1.91,4.92-2.1a38.17,38.17,0,0,1,7-1.6c-.21.12-2.25,1-2.17,1.22.48,1.45,8.63-3.29,8.33-3.4C161.27,57.45,164.11,58.37,163.73,58.24Z"/><path class="cls-4" d="M168.71,54.39c-3.13,3.38,11.48,2.7,12.94,2.53,5.15-.58,11.7-2.34,16-5.46,1.51-1.11-2.52-2.19-3.23-2.34a29.64,29.64,0,0,0-9.4-.18c-5.21.53-12.45,1.38-16.27,5.45C167.58,55.61,170.4,52.6,168.71,54.39Z"/><path class="cls-5" d="M171.79,57.07a44.58,44.58,0,0,0,22.31-3.82c2.47-1.07,6-2.19,1.55-3.73-.27,1.28-2.78,1.91-3.78,2.24a80.35,80.35,0,0,1-15.76,3.09,32.85,32.85,0,0,1-5.86.37c-.73,0-1.65-.94-2-.08-.56,1.61,2.69,1.85,3.5,1.93Z"/><path class="cls-6" d="M195.09,50.36c-3.56-1.4-8.44-1.09-12,0-2.09.63-4.3.54-6.41,1.18A53.36,53.36,0,0,0,171,53.92c.34.38,5.73-1.32,6.54-1.45a60.41,60.41,0,0,1,9.3-.73c-.32.1-3.05.7-3,.95.18,1.63,11.28-2.32,11.25-2.33C192.25,49.24,195.53,50.53,195.09,50.36Z"/><path class="cls-4" d="M170.59,50c-.42,3.82,6.55,1.58,8.19.85,1-.43,7.76-6,6.17-7.19-4.36-3.43-13.75.9-14.36,6.34C170.45,51.21,170.79,48.16,170.59,50Z"/><path class="cls-5" d="M173.29,52.09a12.32,12.32,0,0,0,8.91-3.84c1.62-1.81,4.54-4.41,1-5.52,1.09,3.35-9.9,8.7-12.55,7.53,0,1.49,1.43,1.87,2.68,1.83Z"/><path class="cls-6" d="M183.2,43.55a7,7,0,0,0-6.49,1.28c-.5.46-6.18,3.43-5.06,4.48-.45-.42,6.9-3.49,7.66-3.65-.16.17-1.37,1-1.25,1.18.56,1.09,5.9-3,5.14-3.29C181.2,42.85,183.51,43.65,183.2,43.55Z"/><path class="cls-4" d="M158.88,53.54c-.5,3.84,6.44,1.2,7.92.43,3-1.4,7.33-5.91,7.07-9.62-.19-2.66-8.44,1.67-9.27,2.26-2.42,1.66-5.26,3.76-5.72,6.93C158.71,54.82,159.15,51.65,158.88,53.54Z"/><path class="cls-5" d="M161.81,55.49c3.31-.34,7.18-2,9.14-4.82,1.54-2,5.13-7.15.54-6.91C174,47.24,162.1,55,158.9,53.84c0,1.63,1.64,1.8,2.91,1.65C163.28,55.34,159.55,55.75,161.81,55.49Z"/><path class="cls-6" d="M171.75,44.54a9.36,9.36,0,0,0-6.51,3.09c-.46.54-6.21,4.34-5.2,5.15-.15-.11,7.25-4.56,8.05-4.91-.14.19-1.33,1.29-1.17,1.51,1,1.35,5.54-4.85,4.83-4.84Z"/><path class="cls-4" d="M135.31,71.64c-1.07,2.81,3.56,3.38,5.3,3.54a12.42,12.42,0,0,0,8.73-2.8c2.84-2.33-5.14-4.62-6.44-4.63-2.87,0-6.41.89-7.59,3.89C134.89,72.76,135.94,70,135.31,71.64Z"/><path class="cls-5" d="M137.22,74.5a11.63,11.63,0,0,0,8.7-.24c2.12-1,5.16-1.84,2.86-4.35-.57,2.94-11.52,3.82-13.51,2-.36,1.37.8,2.19,1.95,2.58C139.55,75.24,135.44,73.9,137.22,74.5Z"/><path class="cls-6" d="M148.45,70.64a6,6,0,0,0-6.12-1.7c-.57.21-6.7,1-5.89,2.42-.38-.68,7.18-.77,7.9-.59-.2.08-1.51.28-1.48.54.1,1,6.09-.07,5.59-.67C147.79,69.87,148.65,70.88,148.45,70.64Z"/><path class="cls-4" d="M69.3,128c1.47,4.05,8.47-6.53,9.22-7.75.54-.89,4.92-12.07,3.59-12-7.15,0-15.2,13.27-12.81,19.8C69.8,129.4,68.58,126.08,69.3,128Z"/><path class="cls-5" d="M73.05,127.41c3.11-3.31,6-7.17,7.5-11.49.78-2.29,4.17-9.23-.77-7.12,1.73,1.92-2.6,8.06-3.52,9.62-1.57,2.93-3.68,8.34-6.79,9.88.89,1.69,2.79-.08,3.58-.89C74.27,126.11,71.14,129.4,73.05,127.41Z"/><path class="cls-6" d="M80.12,109.63c-2.91,1.08-5.6,4.2-6.76,7-.24.6-4.72,9.72-3.34,9.63.15,0,2-5,2.39-5.56a31.15,31.15,0,0,1,4.15-5.47c-.08.23-1.16,2.21-.94,2.34,1.25.81,4.76-8,4.5-8Z"/><path class="cls-4" d="M78.33,118.89c2.11,6.71,15.46-10.6,12.14-11.74-5.51-1.93-14,6.06-12.14,11.74C78.7,120.08,77.77,117.18,78.33,118.89Z"/><path class="cls-5" d="M81.79,119.53c3-1.63,5.77-3.81,7.23-7,1-2.22,3.36-5.81-.6-5.66,1.93,2.77-7.39,12-10,12.25.64,1.39,2.25.93,3.32.39C84.14,118.27,79.94,120.47,81.79,119.53Z"/><path class="cls-6" d="M88.68,107.67a7.73,7.73,0,0,0-6.17,3.58c-.23.4-5,6.09-3.42,6.51-.68-.19,5.63-6.28,6.3-6.68-.11.2-1.09,1.41-.9,1.58.92.86,4.89-5,4.19-5C86.48,107.64,89,107.67,88.68,107.67Z"/><path class="cls-4" d="M81.23,105.33c1.51,3.5,6.65-2.91,7.56-4.17,2-2.74,3.81-7.1,3.45-10.56s-8.15,4.14-8.74,5c-1.74,2.55-3.63,6.61-2.27,9.73C81.74,106.51,80.48,103.62,81.23,105.33Z"/><path class="cls-5" d="M84.85,105.28a17.87,17.87,0,0,0,6.4-9.12c.66-2.34,2.66-7.17-1.49-5.89,1.88,1.84-2.15,7.39-3,8.94-1.21,2.11-2.78,5.63-5.33,6.35.84,1.41,2.51.45,3.45-.28C87.29,103.43,83,106.69,84.85,105.28Z"/><path class="cls-6" d="M90.16,91a9.34,9.34,0,0,0-5.72,5.31c-.17.5-3.89,7.57-2.55,7.66-.42,0,4.79-7.91,5.45-8.54-.07.21-.9,1.74-.68,1.88,1.27.81,4-6.43,3.5-6.31C87.93,91.6,90.51,90.92,90.16,91Z"/><path class="cls-4" d="M44,36.41c.91,4.08,9.45-7.06,10.32-8.25a60.36,60.36,0,0,0,4.72-7.78c.51-1,2.8-4.26,2.21-5.45C59.85,12.06,50.45,21.09,49.65,22c-3.16,3.69-6.72,9.24-5.62,14.4C44.37,38,43.56,34.21,44,36.41Z"/><path class="cls-5" d="M48,35.66A59.26,59.26,0,0,0,58.05,22.31a51.46,51.46,0,0,0,3-6.1c.9-2.44-2.4-1.35-2.39-.5,0,2.24-2.34,4.83-3.54,6.55-2.1,3-4.32,5.9-6.4,8.91-1.14,1.63-2.11,4.13-3.89,5.18-.76.44-.67,1.18.33,1.17s2.13-1.17,2.81-1.86S45.76,37.93,48,35.66Z"/><path class="cls-6" d="M58.68,16.17c-3.56,1.08-6.83,4.2-8.72,7.33-1,1.85-2.55,3.3-3.47,5.22-.22.47-1.81,5.69-1.5,5.67s2.4-5.08,2.83-5.71a33.74,33.74,0,0,1,5.82-6.58c-.14.22-1.7,2.38-1.5,2.54s4.41-4.58,4.77-5.15c.1-.17,2.31-3.48,1.77-3.32Z"/><path class="cls-1" d="M47.15,74.33c2,4.06,7-6.09,7.54-7.34.72-1.65,4.67-13.48,1.39-13.71-2.73-.19-5.87,6.3-6.83,8.17-1.63,3.19-3.8,9.41-2.1,12.88C47.75,75.55,46.27,72.52,47.15,74.33Z"/><path class="cls-2" d="M50.85,73.61c2.86-3.18,4.86-8,5.77-12.18.82-3.67,1.13-11.41-3.6-5.72,2.21-.48.09,7-.11,7.73-1,3.75-2,8.79-4.75,11.72,1.06.21,2.08-.88,2.69-1.55Z"/><path class="cls-3" d="M52.45,57.93c-3.57,4.14-4.9,9.88-4.54,15.2-.15-1.59,1.13-4.68,1.63-6.34a15.81,15.81,0,0,1,3-5.94c1.13-1.4,3.28-4.47,3.6-6.24.31-1.62-3.45,2.81-3.73,3.32C50.94,59.68,53.22,56.55,52.45,57.93Z"/><path class="cls-3" d="M51.82,64.43c-.43.87,2.42-2.28,1.61-2.8-.31-.2-1.48,2.54-1.61,2.8Z"/><path class="cls-1" d="M64.11,53c.44,4.09,6.35-.36,7.63-1.46,2.52-2,4.9-5.83,4.56-9.19s-6.92,1.56-7.8,2.33C66.41,46.45,63.82,50,64.11,53,64.25,54.24,63.93,51.1,64.11,53Z"/><path class="cls-2" d="M67.16,54.42c3.28-1,6.43-4.11,7.94-7.11,1.29-2.87,2.4-7.49-2.34-5.39,3.33.92-6,11.67-8.11,12.25a2.48,2.48,0,0,0,2.51.25Z"/><path class="cls-3" d="M71.9,43.33a13.14,13.14,0,0,0-4.08,3.23c-1.76,1.77-1.66,4.13-2.75,6a41.52,41.52,0,0,1,3.09-4.37c1.37-1.6,2.93-2,4.37-3.23.4-.33,3.69-2.29,3-3s-3.14,1-3.67,1.39C70.32,44,72.79,42.64,71.9,43.33Z"/><path class="cls-3" d="M70.23,48c-.64.49,2.52-.58,1.86-1.42-.25-.33-1.71,1.29-1.86,1.42S70.8,47.5,70.23,48Z"/><path class="cls-1" d="M71.67,38.8C73,43.2,79.05,35,79.88,33.74c1.17-1.77,5.45-9.45,2.8-11.21C80.58,21.14,76,26.86,75,28.12c-1.95,2.51-4.3,7.44-3.32,10.68Z"/><path class="cls-2" d="M75.15,39.19c3-2.09,5.58-6.09,6.92-9.46s2.34-9.75-2.8-5.86c3,.05-5,14.76-6.79,16,.88.46,2-.18,2.67-.66Z"/><path class="cls-3" d="M78.5,25.66a15.23,15.23,0,0,0-4.59,5.91c-.9,2-.58,4.65-1.3,6.4a51.83,51.83,0,0,1,2.6-6.09c1.07-2,2.52-2.86,3.88-4.39.92-1,2.9-2.61,3.33-3.89.54-1.55-3.67,1.76-3.92,2.06C76.88,26.83,79.38,24.64,78.5,25.66Z"/><path class="cls-3" d="M77.2,31.21c-.59.76,2.58-1.41,1.83-2.09-.32-.29-1.72,1.95-1.83,2.09Z"/><path class="cls-1" d="M87.3,14.93c.6,3.84,5.89-.46,7.07-1.65,2.63-2.66,4.77-6,5-9.84.31-4.5-6.47.85-7.65,2-2.17,2.06-4.9,6.34-4.46,9.51C87.5,16.2,87,13,87.3,14.93Z"/><path class="cls-2" d="M90.57,16.06C93.69,14.9,96.49,11.4,98,8.53s2.93-8.73-2.19-6C99,3.21,90,15.32,87.92,16.09c.75.63,1.86.29,2.65,0C93.42,15,89.21,16.62,90.57,16.06Z"/><path class="cls-3" d="M94.86,4.07a12.6,12.6,0,0,0-4.74,4.76c-1,1.7-1,4-1.82,5.55,1-1.6,1.86-3.28,2.91-4.85,1.28-1.91,2.84-2.48,4.33-3.87C96,5.28,99.34,3,98.69,2.32s-3.34,1.32-3.83,1.75C93.24,4.89,95.8,3.25,94.86,4.07Z"/><path class="cls-3" d="M93.29,9c-.61.6,2.55-.89,1.86-1.66-.28-.32-1.73,1.53-1.86,1.66Z"/><path class="cls-1" d="M110.34,27.34c.64,4.52,7.93-2.57,9-3.68C120.79,22,126.21,15.25,124,13c-1.76-1.79-7.41,3.25-8.53,4.29-2.33,2.16-5.58,6.71-5.1,10.08C110.53,28.65,110.07,25.4,110.34,27.34Z"/><path class="cls-2" d="M113.75,28.25c3.33-1.57,6.48-5.08,8.35-8.19,1.75-2.9,4.05-9.38-1.69-6.34,2.91.59-7.42,13.87-9.42,14.77.81.59,2,.13,2.76-.24C116.48,27,112.36,28.91,113.75,28.25Z"/><path class="cls-3" d="M119.33,15.38a15.57,15.57,0,0,0-5.55,5.15c-1.26,1.89-1.4,4.41-2.37,6.13,1.94-3.33,3.9-6.95,7.28-8.73,1.28-.7,4.12-2.61,4.83-3.93.81-1.49-3.89,1.14-4.19,1.38C117.54,16.28,120.38,14.51,119.33,15.38Z"/><path class="cls-3" d="M117.08,20.7c-.7.66,2.78-1,2.16-1.77-.26-.34-2,1.66-2.16,1.77Z"/><path class="cls-1" d="M104.63,31.82c2.7,2.82,11.56-13.45,7.07-17.32C109,12.23,100,27.6,104.63,31.82,105.51,32.73,103.19,30.5,104.63,31.82Z"/><path class="cls-2" d="M108,30.89a22.39,22.39,0,0,0,4.67-11.49c.21-3.59-.82-6.76-4.09-3.2,2.44-.36-1.43,14.39-2.74,16.12A3,3,0,0,0,108,30.89C108.78,29.89,107.21,31.91,108,30.89Z"/><path class="cls-3" d="M108.2,18a12.38,12.38,0,0,0-3.13,12.77c-1.1-2.95,1.44-8.28,3.39-10.3.94-1,2.91-3.69,3-5,.11-1.57-3.1,2.3-3.26,2.58C106.85,19.27,108.82,16.9,108.2,18Z"/><path class="cls-3" d="M107.85,23.41c-.43.81,2.29-1.68,1.46-2.22C108.94,21,107.94,23.26,107.85,23.41Z"/><path class="cls-1" d="M90.33,54.84c1.36,3.85,7.1-4.35,7.91-5.44,2.63-3.53,6.4-8.62,6.14-13.29-.18-3.27-9.3,5.42-10,6.35-2.2,2.75-5.36,8.7-4,12.38C90.79,56.14,89.65,53,90.33,54.84Z"/><path class="cls-2" d="M94.1,54.46a49,49,0,0,0,8-11,19.62,19.62,0,0,0,2.25-6.76c.27-2.85-3.1-.54-4.16.21,2.15,0-1.61,6.55-2,7.18-2,3.64-3.89,8.85-7,11.64,1,.3,2.17-.67,2.85-1.29C96.37,52.08,92.8,55.63,94.1,54.46Z"/><path class="cls-3" d="M99,39a19.31,19.31,0,0,0-7.76,14.7c.12-3.89,4.15-9.55,7.09-11.73,1.51-1.17,4.45-3.6,5.29-5.31.75-1.46-4.17,1.9-4.62,2.34C97.07,40.41,100.16,37.81,99,39Z"/><path class="cls-3" d="M96.64,45.35c-.62.81,2.93-1.77,2.31-2.44-.26-.27-2.13,2.21-2.31,2.44Z"/><path class="cls-1" d="M105.46,41.6c-.21,4.72,9.44-2.18,10.56-3.08,1.33-1.07,9.15-8.74,6.55-10.32-2.44-1.47-8.22,2.62-10,3.9-2.69,1.89-6.9,6-7.07,9.5C105.4,43,105.56,39.6,105.46,41.6Z"/><path class="cls-2" d="M108.9,42.88c3.69-1.2,7.3-4.14,9.95-6.9,2.43-2.53,7.08-9.86,0-7.22,2.54.79-10.57,13.35-12.94,14.08.77.71,2.13.32,3,0C112,41.86,107.29,43.41,108.9,42.88Z"/><path class="cls-3" d="M117.38,30.34c-4.94,1.74-8.63,6-10.73,10.64.76-1.68,3.57-4,5-5.31,1.81-1.68,3.65-2.18,5.6-3.32.61-.36,5.38-2.76,4.88-3.54S118,30,117.38,30.34C115.31,31.07,118.66,29.57,117.38,30.34Z"/><path class="cls-3" d="M113.93,35.54c-.86.58,3.13-.69,2.63-1.58-.2-.37-2.49,1.48-2.63,1.58Z"/><path class="cls-1" d="M70.19,87.21c1.69,3.76,5.9-3.23,6.63-4.57,2-3.73,3.45-8.11,2.46-12.39s-6.64,4.6-7.3,5.84c-1.49,2.84-3.17,8-1.79,11.12C70.75,88.44,69.39,85.38,70.19,87.21Z"/><path class="cls-2" d="M73.72,87.07a21.3,21.3,0,0,0,5.56-10.72c.61-3.37.61-10.29-3.79-5.37,3.1-.49-2.66,15.66-4.35,17.17,1,.35,2-.49,2.58-1.08Z"/><path class="cls-3" d="M75,72.93a17.24,17.24,0,0,0-3.54,6.58c-.69,2.26-.1,4.67-.47,6.72a53.17,53.17,0,0,1,1.77-6.46c.77-2.13,2.09-3.34,3.14-5.1.36-.59,3.17-4.59,2.37-5S75.38,72.35,75,72.93C73.62,74.4,75.73,71.74,75,72.93Z"/><path class="cls-3" d="M74.7,78.75c-.47.82,2.35-1.88,1.45-2.43-.35-.22-1.36,2.27-1.45,2.43Z"/><path class="cls-1" d="M88.89,62.24c.35,4.61,9.22-3.59,10.18-4.57a25.85,25.85,0,0,0,4.61-6c.54-1,2.68-4.6,1.68-5.83-1.52-1.89-8.17,3.76-9.21,4.65-2.9,2.46-7.57,7.65-7.26,11.76C89,63.61,88.74,60.22,88.89,62.24Z"/><path class="cls-2" d="M92.64,62.89c3.89-2,7.61-5.87,10-9.47a17.38,17.38,0,0,0,2.79-6.33c.49-2.75-3-.86-4.12-.23,2.26.31-2.51,6.6-3,7.2-2.37,3.17-5.2,7.54-8.84,9.33.92.59,2.29-.09,3.11-.5Z"/><path class="cls-3" d="M100,48.73c-4.88,2.62-8.26,7.51-9.92,12.66,1.17-3.49,5.86-8.15,9-9.88,1.6-.92,4.74-3,5.71-4.58.87-1.38-4.29,1.42-4.76,1.8C97.9,49.85,101.21,47.72,100,48.73Z"/><path class="cls-3" d="M97,54.6c-.73.66,3.14-1.29,2.55-2.06-.22-.3-2.33,1.86-2.55,2.06Z"/><path class="cls-1" d="M63.54,95.58c.07,4.62,8.49-1.46,9.7-2.46s7.81-7.89,5.21-9.39c-2.23-1.28-6.91,1.8-8.64,3-2.54,1.69-6.32,5.6-6.27,8.89C63.56,96.88,63.51,93.68,63.54,95.58Z"/><path class="cls-2" d="M66.78,97c3.4-1,6.93-3.81,9.16-6.48s5.15-8.42-.82-6.45C78,85.17,66.1,96.25,64,96.79c.71.69,1.92.45,2.75.22C69.61,96.22,65.33,97.42,66.78,97Z"/><path class="cls-3" d="M73.85,85.51a14.69,14.69,0,0,0-6.09,4.07c-1.46,1.6-1.92,4.09-3.08,5.52a47.12,47.12,0,0,1,4.22-4.82c1.62-1.56,3.21-1.86,5-2.86,1.14-.65,3.49-1.51,4.26-2.55,1-1.31-4,.45-4.27.64C72,86.09,75,84.84,73.85,85.51Z"/><path class="cls-3" d="M71,90.28c-.78.52,2.84-.47,2.33-1.35-.21-.38-2.18,1.25-2.33,1.35Z"/><path class="cls-1" d="M21.89,99.17c3,2.91,4.74-6,4.94-7.38.38-3.23,1.64-9.84-1.36-12.37-2.16-1.83-5.29,8.16-5.53,9.45-.5,2.74-.21,8.24,1.95,10.3Z"/><path class="cls-2" d="M25.21,97.7c2-3.64,2.59-9.36,2-13.41-.56-3.57-2-7.09-4.63-2.42,2.49-.94,1.59,15.91.56,17.76,1-.07,1.69-1.15,2.11-1.93Z"/><path class="cls-3" d="M22.51,83.91C20,88.33,20.31,93.44,22.27,98c-.65-1.5-.35-5-.31-6.78.06-2.43,1.1-3.73,1.8-5.78C24,84.74,25.89,80.22,25,80s-2.3,3.31-2.5,4C21.49,85.7,22.94,82.57,22.51,83.91Z"/><path class="cls-3" d="M23.44,89.66c-.18,1,1.78-2.41.88-2.71-.41-.14-.84,2.53-.88,2.71S23.65,88.78,23.44,89.66Z"/><path class="cls-1" d="M35.52,57.11c1.4,4.15,6.87-2.47,7.87-3.84s5.07-9,2.15-9.91c-2.25-.69-5.6,2.84-6.88,4.25-2,2.15-4.11,6.54-3.14,9.5C35.93,58.31,34.94,55.35,35.52,57.11Z"/><path class="cls-2" d="M38.88,57.82C41.61,56.3,44,53,45.25,50.15s2.16-8.73-2.61-5.84c3.12.58-4.47,12.87-6.31,13.83a2.61,2.61,0,0,0,2.55-.32C41.23,56.51,37.68,58.48,38.88,57.82Z"/><path class="cls-3" d="M41.89,45.88a11.75,11.75,0,0,0-4.37,4.92c-.84,1.79-.47,4.1-1.11,5.66a39.32,39.32,0,0,1,2.26-5c1.11-2,2.61-2.55,4-4,.38-.39,3.5-2.76,2.79-3.44s-3.11,1.44-3.57,1.89C40.35,46.77,42.74,45.05,41.89,45.88Z"/><path class="cls-3" d="M40.67,50.81c-.55.63,2.45-1,1.73-1.68-.31-.31-1.61,1.54-1.73,1.68Z"/><path class="cls-1" d="M46.59,40.9c2.36,3.58,5.89-5,6.36-6.35,1-3.18,3.58-9.28,1.2-12.49-1.69-2.3-6.94,7.18-7.38,8.29-1.06,2.63-1.84,8-.18,10.55Z"/><path class="cls-2" d="M50.13,40.16c2.67-3.23,4.46-8.77,4.67-12.92.19-3.6-.45-7.49-4-3.37C53.4,23.49,49,40,47.67,41.63c1,.16,1.89-.79,2.46-1.47Z"/><path class="cls-3" d="M50.32,25.9c-3.38,3.89-4.09,9-3.12,13.9-.3-1.68.67-5,1.08-6.78.56-2.39,1.84-3.48,2.95-5.38.36-.62,3.18-4.68,2.36-5.15s-2.94,2.83-3.27,3.41C49,27.47,51,24.65,50.32,25.9Z"/><path class="cls-3" d="M50.05,31.79c-.38.92,2.23-2,1.41-2.5-.39-.23-1.34,2.34-1.41,2.5S50.41,31,50.05,31.79Z"/><path class="cls-1" d="M114.82,83.37c-1.33,3.94,5.69,2.83,7.48,2.36s7.64-3,6.85-5.73c-.62-2.1-5.36-1.8-6.9-1.61-2.62.32-6.53,2.3-7.43,5C114.43,84.52,115.39,81.67,114.82,83.37Z"/><path class="cls-2" d="M116.67,86.13c2.57.7,6-.2,8.34-1.4,2.62-1.36,6.43-5.14,1.59-6.16,2,2.65-9.92,6.65-11.81,6.1a2.45,2.45,0,0,0,1.88,1.46Z"/><path class="cls-3" d="M125.25,79.25a9,9,0,0,0-5.75.86c-1.57.81-2.46,2.54-3.73,3.36a30.85,30.85,0,0,1,4.31-2.23c1.92-.76,3.1-.16,4.85-.32.53,0,3.86.23,3.74-.73s-2.77-1-3.42-.94C123.75,78.89,126.27,79.19,125.25,79.25Z"/><path class="cls-3" d="M121.73,82.13c-.76.11,2.16.89,2.08-.12,0-.42-1.89.09-2.08.12Z"/><path class="cls-1" d="M120.73,75.32c.74,4.25,7.2-2.49,8.17-3.61,2.78-3.21,5.17-7.27,5.17-11.66s-7.72,3.4-8.61,4.45c-2.16,2.53-5.31,7.28-4.73,10.82C121,76.66,120.4,73.33,120.73,75.32Z"/><path class="cls-2" d="M124.29,75.91c3.29-1.91,6.24-5.62,8-9,1.61-3.12,3.76-11.2-2.15-6.85,2.21,0-.77,5.71-1.12,6.38-1.71,3.34-4.16,8.08-7.55,10,.88.56,2.1-.09,2.86-.53Z"/><path class="cls-3" d="M129.2,62c-4.08,2.76-6.53,7.83-7.48,12.51.31-1.7,2.53-4.55,3.58-6.1,1.3-1.91,2.93-2.94,4.38-4.49.47-.5,4.25-4.06,3.55-4.63s-3.55,2.18-4,2.71C127.44,63.16,130.16,60.91,129.2,62Z"/><path class="cls-3" d="M127.46,67.78c-.68.73,2.8-1.4,2-2.17-.28-.29-1.92,2-2,2.17Z"/><path class="cls-1" d="M141.08,66.18c.66,4.79,8.88-4.37,9.76-5.47S158.09,50,155.2,49c-2.6-.87-7.17,4.1-8.65,5.66-2.49,2.6-6,7.74-5.47,11.53C141.27,67.57,140.81,64.14,141.08,66.18Z"/><path class="cls-2" d="M144.67,66.73c3.61-2.17,6.88-6.29,8.89-10,1.76-3.2,4.17-10.4-1.95-6.37,2.24.13-1.57,6.25-2,6.88-2,3.32-4.45,8.05-7.9,10.05.89.57,2.16-.15,2.91-.61Z"/><path class="cls-3" d="M150.5,52.3c-4.54,2.87-7.22,7.91-8.38,13,.72-3.39,4.94-8.36,7.74-10.22,1.43-1,4.32-3.27,5.09-4.83s-4,1.66-4.45,2.06C148.6,53.5,151.6,51.24,150.5,52.3Z"/><path class="cls-3" d="M148.18,58.23c-.67.7,2.91-1.45,2.27-2.18-.24-.28-2.07,2-2.27,2.18S148.86,57.49,148.18,58.23Z"/><path class="cls-1" d="M150.26,60.49c-3,2.95,5,4.32,6.49,4.42,4,.26,9.24-.12,12.51-2.84,2.76-2.29-6.76-4.15-7.79-4.25-3.24-.3-8.7.3-11.21,2.67C149.31,61.43,151.73,59.1,150.26,60.49Z"/><path class="cls-2" d="M151.61,63.76c3.54,1.72,8.77,1.7,12.48.6,3.36-.93,8.41-3.07,2.81-5.28,1.41,2.63-14.93,3.86-17.21,2.61,0,1,1.15,1.69,1.92,2.07Z"/><path class="cls-3" d="M164.88,59.32a15.94,15.94,0,0,0-6.26-.66c-2.63.11-4.9,1.93-7.19,2.27,2.13-.32,4.29-.68,6.43-.88s3.78.48,5.79.77c.71.1,5.28,1.34,5.45.45s-3.57-1.83-4.22-2C163,58.61,166.27,59.57,164.88,59.32Z"/><path class="cls-3" d="M159.53,61.34c-.93-.08,2.59,1.36,2.74.34.06-.42-2.57-.33-2.74-.34Z"/><path class="cls-1" d="M153.27,57.74c-.19,3.62,5.21,1.54,6.83.76,2.9-1.4,5.44-3.39,6.71-6.45,1.65-4-6-1.88-7.62-1.21-2.39,1-5.78,4.09-5.92,6.9C153.21,59,153.36,55.94,153.27,57.74Z"/><path class="cls-2" d="M155.93,59.82c2.8-.14,6-2,8.08-3.79,2.24-2,5.16-6.65,0-6.32,2.42,2-8.4,9.24-10.43,9.27a2.59,2.59,0,0,0,2.32.84C158.4,59.7,154.67,59.87,155.93,59.82Z"/><path class="cls-3" d="M162.8,50.74A10,10,0,0,0,158,52.45c-2,1.31-2.34,3.67-3.77,5.1A33.62,33.62,0,0,1,158,54.11c1.74-1.32,3.13-1,4.9-1.67.51-.18,4-.79,3.66-1.7s-3.14-.2-3.74,0C161.16,50.81,163.84,50.4,162.8,50.74Z"/><path class="cls-3" d="M159.92,54.46c-.72.32,2.44.24,2.09-.67-.15-.41-1.92.59-2.09.67Z"/><path class="cls-1" d="M78.12,118c2.43,2.83,4.71-3.49,5.13-5,1.1-4,1.4-8.21-.63-12-2.45-4.55-4.94,4-5.44,5.86-.78,3-1.26,8.59.94,11.15Z"/><path class="cls-2" d="M81.53,117c2.11-2.82,2.85-7.62,2.6-11.06s-2.63-9.55-5.25-3.86c2.85-1.45,1.93,14.36.39,16.48,1,.09,1.76-.85,2.26-1.56C83.26,114.7,80.67,118.25,81.53,117Z"/><path class="cls-3" d="M79.11,103.91a15,15,0,0,0-1.64,6.86c0,2.14,1.12,4.25,1.22,6.11,0-2.1-.09-4.22.1-6.32s1.13-3.49,1.67-5.34c.35-1.19,1.27-3.56,1-4.78-.3-1.56-2.28,3.11-2.36,3.47C78.15,105.57,79.36,102.69,79.11,103.91Z"/><path class="cls-3" d="M80.35,109.21c-.24.9,1.77-2.26.75-2.56-.4-.11-.71,2.38-.75,2.56Z"/><path class="cls-1" d="M60.17,104.12c-.65,4.33,7.57.14,8.81-.57,2.79-1.58,8.37-5.2,8.34-9,0-2.84-9.52,1.34-10.55,1.93-2.47,1.39-6.15,4.72-6.6,7.66C60,105.44,60.47,102.17,60.17,104.12Z"/><path class="cls-2" d="M63.17,106a21.24,21.24,0,0,0,11.64-7c2.24-2.71,4-6.16-1.17-5.1,2.62,1.5-11.07,11.22-13.19,11.51.6.81,1.87.69,2.72.55Z"/><path class="cls-3" d="M72.1,95.2a16.22,16.22,0,0,0-5.82,2.63c-2.37,1.55-3.14,4.22-4.9,5.94a52.61,52.61,0,0,1,5-4.36c1.85-1.37,3.54-1.5,5.46-2.29.65-.26,5.2-1.73,4.83-2.59s-3.92.41-4.53.67C70.12,95.56,73.37,94.66,72.1,95.2Z"/><path class="cls-3" d="M68.46,99.64c-.84.43,3-.15,2.57-1.08-.17-.4-2.41,1-2.57,1.08Z"/><path class="cls-1" d="M85.85,72.27c3.11,2.71,4.5-5.35,4.69-6.92.26-2.27.52-11-2.85-11.5-2.4-.31-3.75,6.37-4,7.84-.55,3-.32,8.42,2.17,10.58Z"/><path class="cls-2" d="M89.11,70.92c1.6-3,1.92-7.32,1.52-10.62S88,50.93,85.36,56.42c2.84-1.26,2.75,14.45,1.71,16.29,1,0,1.63-1,2-1.79C90.46,68.41,88.42,72.21,89.11,70.92Z"/><path class="cls-3" d="M85.54,58.28a13.86,13.86,0,0,0-1.19,7c.17,2.12,1.66,4.06,1.93,5.85A44.36,44.36,0,0,1,85.63,65c0-2.2.84-3.5,1.31-5.39.3-1.22,1.27-3.47,1-4.7-.28-1.65-2.36,3.06-2.44,3.4C84.69,60,85.83,57,85.54,58.28Z"/><path class="cls-3" d="M87.06,63.52c-.15.88,1.58-2.3.6-2.54-.42-.11-.58,2.36-.6,2.54S87.19,62.69,87.06,63.52Z"/><path class="cls-1" d="M26.49,73.25c2.53,3.54,5.55-5,6-6.38a15.5,15.5,0,0,0-.41-11.29c-1.86-3.74-5.28,4.92-5.7,6.24-1,3.1-1.91,8.52.13,11.43C27.26,74.32,25.36,71.64,26.49,73.25Z"/><path class="cls-2" d="M29.92,72.54a19,19,0,0,0,3.36-11.87C33,57.23,31.6,51.91,28.51,57c3-1.17.55,15.12-.93,16.94,1,.18,1.82-.76,2.34-1.44Z"/><path class="cls-3" d="M28.48,58.94a16.32,16.32,0,0,0-2.14,7c-.22,2.16.87,4.42.78,6.29a51.19,51.19,0,0,1,.56-6.42c.37-2.13,1.38-3.53,2-5.36.22-.62,2.12-4.95,1.25-5.18s-2.27,3.06-2.49,3.72C27.4,60.57,28.9,57.7,28.48,58.94Z"/><path class="cls-3" d="M29.37,64.49c-.31.86,1.92-2.19.91-2.57-.39-.15-.86,2.39-.91,2.57S29.62,63.65,29.37,64.49Z"/><path class="cls-1" d="M151.24,65.52c-1.48,3.34,4.38,3.55,6.23,3.42,2.12-.14,8.92-1.68,8.51-4.81-.29-2.26-5.43-2.56-7-2.55C156.46,61.59,152.34,63,151.24,65.52Z"/><path class="cls-2" d="M152.87,68.49c2.46,1,6,.62,8.43-.26,2.84-1,7-4.27,2.29-5.89,1.63,2.88-10.68,5.23-12.48,4.45A2.67,2.67,0,0,0,152.87,68.49Z"/><path class="cls-3" d="M162.15,62.83a9.17,9.17,0,0,0-5.9.08c-1.63.59-2.73,2.22-4.06,2.84a30.76,30.76,0,0,1,4.54-1.64c2-.5,3.14.26,4.91.33.53,0,3.83.74,3.83-.22s-2.67-1.35-3.32-1.39C160.68,62.28,163.18,62.9,162.15,62.83Z"/><path class="cls-3" d="M158.31,65.21c-.76,0,2.07,1.17,2.09.16,0-.43-1.9-.16-2.09-.16Z"/><path class="cls-1" d="M175.09,56.55c-2.77,2.42,3.3,4.75,4.86,5.28,3.44,1.19,7.25,1.86,10.84.93,4.58-1.19-3.24-5.9-4.74-6.55-2.85-1.23-8.35-1.94-11,.34Z"/><path class="cls-2" d="M175.88,59.94a20.6,20.6,0,0,0,9.67,3.19c3.26.28,9.29-.16,4.91-4.13.32,2.56-14.24.06-16-1.31-.11,1,.72,1.74,1.4,2.25C178.17,61.56,174.75,59.09,175.88,59.94Z"/><path class="cls-3" d="M188.62,58.62A12.4,12.4,0,0,0,182,56.06c-2.16-.18-4.07.94-5.94,1.06a34,34,0,0,1,6.05.26c2.18.34,3.17,1.43,4.9,2.31,1.14.58,2.88,2.14,4.12,2.27,1.69.2-2.25-3.17-2.55-3.34C187.18,57.44,189.75,59.27,188.62,58.62Z"/><path class="cls-3" d="M183.29,59c-.83-.28,1.86,2,2.28,1.1.19-.39-2.11-1-2.28-1.1Z"/><path class="cls-1" d="M172.42,53.7c-.83,3.47,4.66,2.3,6.33,1.79,3.46-1,6.72-3.21,8.17-6.64,1.63-3.87-6.12-1.85-7.68-1.28-2.53.93-6.12,3.32-6.82,6.13C172.13,54.92,172.86,51.9,172.42,53.7Z"/><path class="cls-2" d="M174.74,56.14c3.34.26,7.29-1.5,9.67-3.75,2.2-2.25,4.61-6.08-.42-5.82,2.84,2-9.24,8.68-11.47,8.43a2.52,2.52,0,0,0,2.22,1.14Z"/><path class="cls-3" d="M182.76,47.57c-1.7,0-3.26.86-4.77,1.52-2.23,1-2.94,3.16-4.54,4.55a39.33,39.33,0,0,1,4.3-2.94c1.8-1,3.36-.84,5.07-1.43.47-.16,4.15-.83,3.77-1.7s-3.18-.2-3.83,0C181.1,47.57,183.8,47.24,182.76,47.57Z"/><path class="cls-3" d="M179.71,51.29c-.76.23,2.5.37,2.17-.66-.13-.4-2,.6-2.17.66S180.38,51,179.71,51.29Z"/><path class="cls-1" d="M90.49,105.38c-1.57,3.37,5,3.49,6.7,3.4,3.17-.17,7.06-.83,9.25-3.41s-7-4.05-8.39-3.94c-2.28.19-6.54,1.68-7.56,3.95C90,106.46,91.21,103.78,90.49,105.38Z"/><path class="cls-2" d="M92.33,108.33c2.88,1.11,7,.55,9.83-.33,2.89-1.11,6.89-3.56,2.15-5.44,1.38,2.64-12.17,4.75-13.92,4.09a2.92,2.92,0,0,0,1.94,1.68C94.67,109.23,91.12,107.87,92.33,108.33Z"/><path class="cls-3" d="M102.69,102.93a10,10,0,0,0-6.35-.26c-1.91.55-3.24,2.3-4.79,2.92a29.19,29.19,0,0,1,6.37-1.91c1.58-.29,2.44.57,3.79.78,1,.16,3.24.88,4.22.54,1.53-.49-2.94-2-3.24-2.07C101.1,102.3,103.81,103.09,102.69,102.93Z"/><path class="cls-3" d="M98.29,105c-.84,0,2.19,1.23,2.29.3,0-.45-2.1-.3-2.29-.3Z"/><path class="cls-1" d="M94,97.94c.48,3.89,6-.6,7.1-1.76,2.89-2.92,5.32-6.64,5.76-10.82.51-4.79-6.92,1.38-8,2.45C96.64,90,93.67,94.58,94,97.94,94.17,99.25,93.81,96,94,97.94Z"/><path class="cls-2" d="M97.38,99c3.35-1.36,6.28-5.2,7.87-8.32s3.3-9.18-2.11-6.12c3,.56-6.17,13.64-8.53,14.59.78.65,2,.2,2.77-.15C100.44,97.73,95.93,99.61,97.38,99Z"/><path class="cls-3" d="M102.12,86.21C98.11,88.48,96,93,95,97.29c.47-1.84,3.46-5.77,4.74-7.12a59.33,59.33,0,0,1,5.93-4.72c.11-.09,1.15-1.92,0-1.34-.45-.26-3.16,1.75-3.55,2.1C100.43,87.16,103.14,85.31,102.12,86.21Z"/><path class="cls-3" d="M100.39,91.5c-.64.65,2.66-1.08,2-1.84-.29-.31-1.84,1.7-2,1.84S101,90.87,100.39,91.5Z"/><path class="cls-13" d="M305.5,139.23s-6.9,65-73.11,64.93A79.38,79.38,0,0,1,202,198.55h0c-37.6-15.51-42.68-59.31-42.68-59.31Z"/><path class="cls-14" d="M305.49,140.75s-6.89,63.48-73.1,63.41A79.38,79.38,0,0,1,202,198.55h0c.52.21,21.11,6.69,42.6-1.41,32.24-12.15,32.76-46.69,32.76-46.69Z"/><ellipse class="cls-13" cx="232.39" cy="139.23" rx="73.11" ry="14.22"/><path class="cls-14" d="M301.3,138.38c0,1.44-1.37,2.85-3.94,4.17l-.72.35c-9.89,4.64-34.43,8.14-63.21,8.5-27.71.34-51.59-2.32-62.25-6.44a22,22,0,0,1-2.93-1.37l-.05,0c-1.9-1.09-2.93-2.27-2.95-3.49,0-2.05,2.78-4,7.76-5.79,11.34-4,34-6.9,60.1-7.23,27.81-.35,51.76,2.34,62.36,6.48a0,0,0,0,1,0,0C299.21,135,301.28,136.64,301.3,138.38Z"/><path class="cls-15" d="M297.37,142.55l-.72.35c-9.9,4.64-34.45,8.14-63.22,8.5-27.71.34-51.59-2.32-62.25-6.44l-2.93-1.37,0,0c.1-4.35,5.35-4,5-6.65-.09-.75-.2-1.66-.25-2.62-.11-2.36.17-5,2-6.52,2.65-2.08,7.62-3.25,8.74-5.88s3.66-11.37,6-11.24c5.37.3,10.65-6.08,14.46-7.25a75,75,0,0,1,10.32-2.36c2.69-.41,4.25-4.9,6.46-4.17,6.55,2.14,6.11-2.32,11.66-2.39,5.18-.07,8.69,5.61,11.77,5.42,7.28-.44,7.7,7,18.09,6.12,5-.42,10.9,12.67,15.11,12.36s8.13,6.15,9.3,8a24.56,24.56,0,0,0,8.52,7.16s0,0,0,0C299.79,135.87,297.37,142.55,297.37,142.55Z"/><ellipse class="cls-16" cx="236.8" cy="100.75" rx="2.04" ry="4.98" transform="translate(21.6 241.86) rotate(-56.3)"/><ellipse class="cls-15" cx="194.14" cy="106.27" rx="3.78" ry="1.62" transform="translate(-27.18 107.27) rotate(-28.95)"/><path class="cls-16" d="M225.45,109.91c-2,1.65-4.29,2.29-5,1.43s.29-2.92,2.33-4.58,4.29-2.29,5-1.43S227.49,108.25,225.45,109.91Z"/><ellipse class="cls-16" cx="208.68" cy="102.49" rx="2.24" ry="5.4" transform="translate(28.18 249.03) rotate(-65.23)"/><ellipse class="cls-16" cx="202" cy="119.74" rx="5.19" ry="1.83"/><ellipse class="cls-16" cx="219.47" cy="125.2" rx="5.19" ry="1.83"/><ellipse class="cls-16" cx="241.33" cy="120.96" rx="1.74" ry="4.45" transform="translate(6.72 254.48) rotate(-56.27)"/><ellipse class="cls-16" cx="280.63" cy="131.88" rx="1.74" ry="4.45" transform="translate(15.12 292.02) rotate(-56.27)"/><ellipse class="cls-16" cx="246.79" cy="135.15" rx="1.74" ry="4.45" transform="translate(-2.66 265.33) rotate(-56.27)"/><ellipse class="cls-16" cx="264.25" cy="130.78" rx="1.74" ry="4.45" transform="translate(8.74 277.92) rotate(-56.27)"/><ellipse class="cls-16" cx="260.18" cy="113.66" rx="2.87" ry="1.21"/><ellipse class="cls-16" cx="197.95" cy="132.22" rx="2.87" ry="1.21"/><ellipse class="cls-16" cx="255.81" cy="120.21" rx="2.87" ry="1.21"/><ellipse class="cls-16" cx="250.74" cy="102.54" rx="4.03" ry="1.95" transform="translate(20.23 244.84) rotate(-53.93)"/><ellipse class="cls-16" cx="226.88" cy="137.58" rx="2.73" ry="1.19" transform="translate(-17.7 240.46) rotate(-54.05)"/><ellipse class="cls-16" cx="233.43" cy="113.56" rx="2.73" ry="1.19" transform="translate(4.45 235.85) rotate(-54.05)"/><path class="cls-16" d="M181.37,124.12c1.19.81,1.8,2,1.36,2.58s-1.78.47-3-.33-1.81-2-1.36-2.59S180.17,123.31,181.37,124.12Z"/><ellipse class="cls-15" cx="275.96" cy="114.25" rx="1.91" ry="3.98" transform="translate(42.76 300.86) rotate(-61.16)"/><path class="cls-16" d="M296.65,142.9c-9.9,4.64-34.45,8.14-63.22,8.5-27.71.34-51.59-2.32-62.25-6.44l-2.93-1.37,0,0c.1-4.35,5.35-4,5-6.65-.09-.75-.2-1.66-.25-2.62,1,.88,1.15,2.54,4.57,3.93.9.36,3.27-.21,4.44.1,2.19.59,5.91,4.53,9.36,4.53,1.12,0,5.17-1.47,6.18-.86,4.4,2.65,6.8,2.85,11.72,3.71,1.56.27,2.45,1.63,4.09,1.87s3.93-.21,5.75,0A226.44,226.44,0,0,0,296.65,142.9Z"/><path class="cls-17" d="M212.82,165.8a.69.69,0,0,1-.49-.19,25.27,25.27,0,0,0-3.13-2.44,29.78,29.78,0,0,0-7.72-3.57,31.48,31.48,0,0,0-17.48-.1,27.11,27.11,0,0,0-4.36,1.7c-.72.35-1.39.73-2,1.1-.3.2-.62.41-.94.64a4.71,4.71,0,0,0-.42.36,4,4,0,0,1-.43.38.72.72,0,1,1-.9-1.13q.16-.13.33-.3a6,6,0,0,1,.57-.49c.34-.24.69-.47,1-.68A21.94,21.94,0,0,1,179,159.9a27.52,27.52,0,0,1,4.6-1.79,32.91,32.91,0,0,1,18.3.1A30.91,30.91,0,0,1,210,162a27.45,27.45,0,0,1,3.31,2.58.72.72,0,0,1,0,1A.71.71,0,0,1,212.82,165.8Z"/><path class="cls-17" d="M207.42,170.3a.73.73,0,0,1-.49-.2,18,18,0,0,0-2.27-1.76,21.38,21.38,0,0,0-5.62-2.6,22.9,22.9,0,0,0-12.74-.08,20.15,20.15,0,0,0-3.17,1.23,13.69,13.69,0,0,0-1.44.81c-.23.14-.45.29-.69.46a3,3,0,0,0-.29.25l-.32.29a.73.73,0,0,1-.91-1.13l.24-.21a4.28,4.28,0,0,1,.43-.38l.76-.51c.48-.3,1-.59,1.58-.88a20.88,20.88,0,0,1,3.41-1.32,24.3,24.3,0,0,1,13.55.08,22.45,22.45,0,0,1,6,2.78,19.13,19.13,0,0,1,2.46,1.91.73.73,0,0,1-.5,1.26Z"/><path class="cls-17" d="M201.91,175.21a.73.73,0,0,1-.5-.19,11.3,11.3,0,0,0-1.4-1.09,13.6,13.6,0,0,0-3.49-1.62,14.28,14.28,0,0,0-7.91,0,12.39,12.39,0,0,0-2,.76,8.07,8.07,0,0,0-.89.5c-.14.08-.28.18-.42.28a.94.94,0,0,0-.16.14l-.22.19a.73.73,0,0,1-1-.11.72.72,0,0,1,.12-1l.13-.12c.08-.07.18-.17.3-.26l.49-.33a9.74,9.74,0,0,1,1-.57,14.22,14.22,0,0,1,2.21-.86,15.8,15.8,0,0,1,8.73,0,14.73,14.73,0,0,1,3.87,1.8A13.39,13.39,0,0,1,202.4,174a.73.73,0,0,1-.49,1.26Z"/><path class="cls-17" d="M214.49,165.69a.71.71,0,0,1-.55-.25.73.73,0,0,1,.07-1l.33-.32a7.14,7.14,0,0,1,.55-.52c.34-.26.68-.51,1-.74a22.41,22.41,0,0,1,2.1-1.29,29.42,29.42,0,0,1,4.61-2,34.67,34.67,0,0,1,18.76-.89,32,32,0,0,1,8.52,3.3,26.68,26.68,0,0,1,3.54,2.39.73.73,0,0,1-.91,1.13,26.46,26.46,0,0,0-3.35-2.26A31.09,31.09,0,0,0,241,160a33.22,33.22,0,0,0-18,.86,26.52,26.52,0,0,0-4.38,1.93c-.72.4-1.39.8-2,1.21-.3.22-.62.45-.93.7a4.73,4.73,0,0,0-.41.38,5.42,5.42,0,0,1-.42.4A.69.69,0,0,1,214.49,165.69Z"/><path class="cls-17" d="M219.42,170.45a.73.73,0,0,1-.55-.25.72.72,0,0,1,.08-1l.22-.22a3.37,3.37,0,0,1,.43-.4c.25-.2.5-.38.75-.55a16.1,16.1,0,0,1,1.56-1,20.7,20.7,0,0,1,3.42-1.51,25.62,25.62,0,0,1,13.89-.66,23.64,23.64,0,0,1,6.31,2.44,20.79,20.79,0,0,1,2.63,1.77.73.73,0,0,1,.11,1,.72.72,0,0,1-1,.12,18.57,18.57,0,0,0-2.44-1.65,22.69,22.69,0,0,0-5.92-2.29,24.26,24.26,0,0,0-13.09.62,19.61,19.61,0,0,0-3.19,1.41,15.64,15.64,0,0,0-1.44.88c-.22.15-.45.32-.68.5a3.43,3.43,0,0,0-.28.27c-.09.09-.19.2-.31.3A.74.74,0,0,1,219.42,170.45Z"/><path class="cls-17" d="M224.43,175.64a.73.73,0,0,1-.48-1.28l.13-.12a2.86,2.86,0,0,1,.3-.28l.48-.35c.31-.22.65-.42,1-.63a13.87,13.87,0,0,1,2.21-1,16.57,16.57,0,0,1,8.94-.43,15.73,15.73,0,0,1,4.07,1.58,14.24,14.24,0,0,1,1.69,1.14.73.73,0,0,1-.9,1.14,10.49,10.49,0,0,0-1.51-1,13.59,13.59,0,0,0-3.68-1.42,15,15,0,0,0-8.14.38,12.81,12.81,0,0,0-2,.87,8.91,8.91,0,0,0-.88.55c-.14.09-.28.2-.42.31l-.15.14a2.28,2.28,0,0,1-.22.21A.69.69,0,0,1,224.43,175.64Z"/><path class="cls-17" d="M291.92,166.77a.7.7,0,0,1-.48-.19,24.63,24.63,0,0,0-3.17-2.36,29.25,29.25,0,0,0-7.77-3.41,31.31,31.31,0,0,0-17.43.27,26.71,26.71,0,0,0-4.31,1.79,19.53,19.53,0,0,0-2,1.15c-.31.2-.61.42-.93.66a2.8,2.8,0,0,0-.41.37l-.42.39a.73.73,0,0,1-1-.1.72.72,0,0,1,.09-1c.11-.09.22-.2.33-.31a5.57,5.57,0,0,1,.55-.49c.34-.26.68-.5,1-.71.63-.42,1.34-.83,2.09-1.23a27.56,27.56,0,0,1,4.56-1.88,32.83,32.83,0,0,1,18.25-.29,30.74,30.74,0,0,1,8.16,3.58,26.71,26.71,0,0,1,3.36,2.51.73.73,0,0,1,.06,1A.75.75,0,0,1,291.92,166.77Z"/><path class="cls-17" d="M286.64,171.38a.7.7,0,0,1-.48-.19,19.26,19.26,0,0,0-2.31-1.72,21.36,21.36,0,0,0-5.66-2.47,22.67,22.67,0,0,0-12.7.19,19.28,19.28,0,0,0-3.14,1.3c-.51.27-1,.55-1.42.83-.22.15-.45.31-.67.48a2.21,2.21,0,0,0-.28.26l-.32.29a.72.72,0,1,1-.93-1.11L259,169a4.09,4.09,0,0,1,.42-.39l.75-.52c.47-.31,1-.62,1.55-.92a20.05,20.05,0,0,1,3.38-1.39,24.19,24.19,0,0,1,13.52-.21,22.41,22.41,0,0,1,6.05,2.65,18.55,18.55,0,0,1,2.49,1.86.72.72,0,0,1,.06,1A.72.72,0,0,1,286.64,171.38Z"/><path class="cls-17" d="M281.24,176.41a.72.72,0,0,1-.48-.18,11.33,11.33,0,0,0-1.43-1.07,12.89,12.89,0,0,0-3.51-1.53,14.12,14.12,0,0,0-7.89.12,11.18,11.18,0,0,0-1.94.8c-.32.17-.61.34-.88.51l-.41.3-.15.14a2.3,2.3,0,0,1-.22.2.73.73,0,0,1-.93-1.12l.13-.12a3,3,0,0,1,.3-.26c.16-.12.32-.24.48-.34a9.6,9.6,0,0,1,1-.59,13.24,13.24,0,0,1,2.18-.91,15.64,15.64,0,0,1,8.71-.13,14.4,14.4,0,0,1,3.9,1.71,11.82,11.82,0,0,1,1.61,1.2.72.72,0,0,1,.06,1A.69.69,0,0,1,281.24,176.41Z"/><path class="cls-17" d="M234.09,184.65a.72.72,0,0,1-.53-.23.73.73,0,0,1,0-1c.11-.09.2-.21.31-.32a4.29,4.29,0,0,1,.52-.53c.33-.28.65-.54,1-.77a22.16,22.16,0,0,1,2-1.36,28,28,0,0,1,4.44-2.17,33.08,33.08,0,0,1,18.27-1.43,30.52,30.52,0,0,1,8.4,3.06,26.81,26.81,0,0,1,3.53,2.29.74.74,0,0,1,.13,1,.73.73,0,0,1-1,.12,25.45,25.45,0,0,0-3.33-2.16,29.81,29.81,0,0,0-8-2.91,31.58,31.58,0,0,0-17.46,1.37,26.81,26.81,0,0,0-4.21,2.05c-.69.42-1.33.85-1.89,1.27-.3.22-.6.47-.9.72a4.91,4.91,0,0,0-.38.4c-.12.13-.25.27-.4.41A.71.71,0,0,1,234.09,184.65Z"/><path class="cls-17" d="M239,189.27a.72.72,0,0,1-.53-.23.73.73,0,0,1,0-1,2.23,2.23,0,0,0,.21-.22,4,4,0,0,1,.41-.41c.24-.21.48-.4.71-.58a17,17,0,0,1,1.5-1,20.52,20.52,0,0,1,3.3-1.61,24.38,24.38,0,0,1,13.53-1.06,23,23,0,0,1,6.23,2.26,19.25,19.25,0,0,1,2.61,1.7.72.72,0,0,1,.13,1,.73.73,0,0,1-1,.13,18,18,0,0,0-2.42-1.57,21.23,21.23,0,0,0-5.83-2.12,23,23,0,0,0-12.72,1,18.83,18.83,0,0,0-3.06,1.5,14.17,14.17,0,0,0-1.37.92c-.22.16-.43.34-.65.52l-.27.27a2.86,2.86,0,0,1-.3.32A.73.73,0,0,1,239,189.27Z"/><path class="cls-17" d="M244.05,194.31a.72.72,0,0,1-.53-.23.74.74,0,0,1,0-1,.77.77,0,0,0,.12-.13l.28-.28c.16-.13.31-.26.47-.37a9.61,9.61,0,0,1,1-.65,12,12,0,0,1,2.13-1,15.68,15.68,0,0,1,8.71-.69,15.29,15.29,0,0,1,4,1.46,14.06,14.06,0,0,1,1.69,1.1.73.73,0,0,1,.12,1,.71.71,0,0,1-1,.13,11.06,11.06,0,0,0-1.5-1,13.4,13.4,0,0,0-3.61-1.32,14.41,14.41,0,0,0-7.91.62,12.25,12.25,0,0,0-1.89.93,8.37,8.37,0,0,0-.85.57,5.09,5.09,0,0,0-.4.32l-.14.14a2.08,2.08,0,0,1-.21.22A.71.71,0,0,1,244.05,194.31Z"/><path class="cls-17" d="M232.37,184.54a.74.74,0,0,1-.48-.18,25.19,25.19,0,0,0-3.22-2.35,29.82,29.82,0,0,0-7.9-3.36,32,32,0,0,0-17.65.36,26.08,26.08,0,0,0-4.36,1.81c-.72.38-1.39.77-2,1.16-.3.2-.62.43-.94.67a3.42,3.42,0,0,0-.41.37,4,4,0,0,1-.42.39.73.73,0,0,1-1-.09.75.75,0,0,1,.09-1,3.08,3.08,0,0,0,.33-.3,4.7,4.7,0,0,1,.56-.5c.34-.26.68-.5,1-.72a20.62,20.62,0,0,1,2.11-1.23,27.66,27.66,0,0,1,4.59-1.91,33.52,33.52,0,0,1,18.47-.38,31.1,31.1,0,0,1,8.28,3.53,27.17,27.17,0,0,1,3.41,2.48.74.74,0,0,1,.08,1A.76.76,0,0,1,232.37,184.54Z"/><path class="cls-17" d="M227.05,189.18a.69.69,0,0,1-.47-.18,18.7,18.7,0,0,0-2.35-1.71,22.06,22.06,0,0,0-5.75-2.45,23.36,23.36,0,0,0-12.87.27,19.27,19.27,0,0,0-3.17,1.31,15.44,15.44,0,0,0-1.43.85c-.23.14-.46.31-.69.48s-.18.16-.28.25a3.13,3.13,0,0,1-.32.3.72.72,0,0,1-1-.09.73.73,0,0,1,.09-1A2.34,2.34,0,0,0,199,187a4.28,4.28,0,0,1,.43-.38l.75-.53a16.27,16.27,0,0,1,1.57-.92,21,21,0,0,1,3.41-1.42,24.81,24.81,0,0,1,13.67-.28,22.93,22.93,0,0,1,6.14,2.62,19.83,19.83,0,0,1,2.53,1.84.73.73,0,0,1,.08,1A.76.76,0,0,1,227.05,189.18Z"/><path class="cls-17" d="M221.62,194.24a.74.74,0,0,1-.48-.18,10.79,10.79,0,0,0-1.45-1.05,13.25,13.25,0,0,0-3.57-1.52,14.47,14.47,0,0,0-8,.16,11.56,11.56,0,0,0-2,.82,8.9,8.9,0,0,0-.88.51q-.21.14-.42.3l-.15.14a2.3,2.3,0,0,1-.22.2.72.72,0,1,1-.93-1.11l.13-.12a2.8,2.8,0,0,1,.3-.27c.16-.12.33-.24.49-.34a9.62,9.62,0,0,1,1-.6,13.44,13.44,0,0,1,2.2-.91,16,16,0,0,1,8.81-.19,14.86,14.86,0,0,1,3.95,1.69,13,13,0,0,1,1.64,1.19.73.73,0,0,1-.47,1.28Z"/></g></g></svg>