<svg xmlns="http://www.w3.org/2000/svg" viewBox="0 0 102 78.32"><defs><style>.cls-1{fill:#fcca00;}.cls-2{fill:#fff;}.cls-3{fill:#96e8ff;}</style></defs><g id="Ebene_2" data-name="Ebene 2"><g id="weather"><circle class="cls-1" cx="39.16" cy="39.16" r="36.83"/><path class="cls-2" d="M39.16,4.66a34.5,34.5,0,1,1-34.5,34.5,34.54,34.54,0,0,1,34.5-34.5m0-4.66A39.16,39.16,0,1,0,78.32,39.16,39.16,39.16,0,0,0,39.16,0Z"/><path class="cls-3" d="M84.15,27.23a19.63,19.63,0,0,0-6.07,1,14.29,14.29,0,0,0-27.64,2.85H50.3a14.31,14.31,0,0,0,0,28.61H85.76S102,58.44,102,43.64C102,35.68,95.17,27.23,84.15,27.23Z"/></g></g></svg>