<?xml version="1.0" encoding="utf-8"?>
<!-- Generator: Adobe Illustrator 25.4.1, SVG Export Plug-In . SVG Version: 6.00 Build 0)  -->
<svg version="1.1" id="Ebene_1" xmlns="http://www.w3.org/2000/svg" xmlns:xlink="http://www.w3.org/1999/xlink" x="0px" y="0px"
	 viewBox="0 0 1920 939" style="enable-background:new 0 0 1920 939;" xml:space="preserve">
<style type="text/css">
	.st0{clip-path:url(#SVGID_00000147214586319195205480000008066877748162476458_);}
	.st1{fill:#333333;stroke:#000000;stroke-width:2.54;stroke-miterlimit:10;}
	.st2{fill:#4D4D4D;stroke:#1A1A1A;stroke-width:2.54;stroke-miterlimit:10;}
	.st3{fill:#666666;stroke:#333333;stroke-width:2.26;stroke-miterlimit:10;}
	.st4{fill:#808080;stroke:#4D4D4D;stroke-width:2.26;stroke-miterlimit:10;}
	.st5{fill:#AFAFAF;stroke:#666666;stroke-width:2.26;stroke-miterlimit:10;}
	.st6{fill:#666666;stroke:#333333;stroke-width:2.54;stroke-miterlimit:10;}
	.st7{fill:#808080;stroke:#4D4D4D;stroke-width:2;stroke-miterlimit:10;}
	.st8{fill:#4D4D4D;stroke:#1A1A1A;stroke-width:2;stroke-miterlimit:10;}
	.st9{fill:#666666;stroke:#333333;stroke-width:2;stroke-miterlimit:10;}
	.st10{fill:#AFAFAF;stroke:#666666;stroke-width:2;stroke-miterlimit:10;}
	.st11{fill:#C8C8C8;stroke:#808080;stroke-width:2;stroke-miterlimit:10;}
	.st12{fill:#321400;}
	.st13{fill:none;stroke:#FFFFFF;stroke-width:2;stroke-miterlimit:10;}
	.st14{fill:#603813;stroke:#FFFFFF;stroke-miterlimit:10;}
	.st15{fill:#8C6239;stroke:#FFFFFF;stroke-miterlimit:10;}
	.st16{fill:#C69C6D;stroke:#FFFFFF;stroke-miterlimit:10;}
	.st17{fill:#F5F5F5;stroke:#FFFFFF;stroke-width:2;stroke-miterlimit:10;}
	.st18{fill:#E6E6E6;stroke:#FFFFFF;stroke-width:1.49;stroke-miterlimit:10;}
	.st19{fill:#39B54A;}
	.st20{fill:#F7931E;}
	.st21{fill:#ED1C24;}
</style>
<g id="Ebene_2_00000130634537643347141550000007613657303069687432_">
	<g id="Crop_choice">
		<g>
			<g>
				<defs>
					<rect id="SVGID_1_" width="1920" height="939"/>
				</defs>
				<clipPath id="SVGID_00000020386901740447243890000001526080766767506343_">
					<use xlink:href="#SVGID_1_"  style="overflow:visible;"/>
				</clipPath>
				<g style="clip-path:url(#SVGID_00000020386901740447243890000001526080766767506343_);">
					<polyline class="st1" points="547.5,-0.5 355.5,86.5 381.5,218.5 464.5,480.5 440.5,634.5 353.5,782.5 314.5,868.5 
						384.5,992.5 -64.7,979.5 -64.7,-0.5 448.5,-0.5 					"/>
					<polygon class="st2" points="1083.5,69.5 987.5,-17.5 706.5,-13.5 547.5,-0.5 355.5,86.5 381.5,218.5 464.5,480.5 440.5,634.5 
						362.5,763.5 314.5,868.5 384.5,992.5 1228.5,939.5 1378.5,861.5 1411.5,793.5 1417.5,693.5 1386.5,578.5 1296.5,534.5 
						1199.5,453.5 1214.5,346.5 1109.5,128.5 					"/>
					<polyline class="st1" points="428.5,-0.5 297.5,103.5 324.5,232.5 433.5,480.5 375.5,634.5 277.5,751.5 223.5,897.5 
						341.5,998.5 -84.7,979.5 -84.7,-0.5 428.5,-0.5 					"/>
					<polyline class="st2" points="393.5,-3.5 236.5,114.5 270.5,260.5 382.5,487.5 349.5,608.5 245.5,724.5 172.5,895.5 
						223.5,991.5 -119.7,976.5 -119.7,-3.5 393.5,-3.5 					"/>
					<polyline class="st3" points="302,-0.5 164,103 225,296 300,474 264,612 152,742 127,904 169,986 -104.7,979.5 -104.7,-0.5 
						302,-0.5 					"/>
					<polyline class="st4" points="211,-60 111,31 74,130 111,314 218,416 213,595 101,690 88,885 23,944 -134.7,979.5 -134.7,-0.5 
						272,-0.5 					"/>
					<polyline class="st5" points="181,-60 64,-9 24,101 46,334 98,405 156,453 158,564 71,690 63,817 23,857 -154,894 -164.7,-0.5 
						242,-0.5 					"/>
					<polygon class="st6" points="1048.5,83.5 715.5,44.5 444.5,151.5 518.5,480.5 441.5,844.5 967.9,959 1278.5,847.5 
						1336.5,774.5 1286.5,544.5 1174.5,466.5 1184,366.6 1092.5,132.5 					"/>
					<polygon class="st7" points="1088,153 784,114 563,188 641,504 575,813 1014,833 1221,759 1154,474 1159,358 					"/>
					<polygon class="st8" points="987,-17 1083,69 1109,129 1214,347 1199,454 1296,535 1386.4,578.9 1417,694 1411,794 1379,862 
						1229,939 1920,939 1920,-31.8 					"/>
					<polygon class="st9" points="1049.6,-31.8 1141,67 1141,126 1247,327 1221,437 1317,525 1420,546 1457,690 1423.9,796.9 
						1393.5,877.3 1315.4,939 1920,939 1920,-31.8 					"/>
					<polygon class="st7" points="1186,-31.8 1236.6,55.2 1236.1,103.8 1299.3,304.5 1293,388 1385.5,454.3 1470,483.2 
						1493.1,620.9 1501.6,667.1 1476,734.9 1405,939 1920,939 1920,-31.8 					"/>
					<polygon class="st10" points="1920,598 1920,-31.8 1289,-31.8 1332.5,24.6 1332,56.2 1386.4,186.4 1380,268 1373,339 1465,348 
						1553,391.6 1560.3,421.6 1538.3,465.6 1567.5,625.5 1509,833 1547.4,939 1795.7,939 1898.2,772.3 					"/>
					<polygon class="st11" points="1920,406.6 1920,-31.8 1403,-31.8 1438.7,7.5 1438.3,29.4 1482.8,120.1 1476,173 1472,239 
						1554,235 1619.3,262.9 1625.3,283.8 1607.2,314.4 1631.2,425.8 1621,579 1661,700 1818.2,644 1902.2,528 					"/>
					<polygon class="st10" points="1078.2,207.5 859.3,187.9 723.7,202.6 731.4,529.1 706.2,751.1 992.9,772.3 1107.2,754.4 
						1115,383.8 					"/>
					
						<image style="overflow:visible;opacity:0.75;enable-background:new    ;" width="460" height="637" xlink:href="67C6CFD695162033.png"  transform="matrix(0.9982 0 0 0.9982 680.9087 162.0704)">
					</image>
					<polygon class="st12" points="1078.2,207.5 859.3,187.9 762,283 731.4,529.1 706.2,751.1 992.9,772.3 1052,727 1115,383.8 
											"/>
					<polygon class="st13" points="1078.2,207.5 859.3,187.9 762,283 731.4,529.1 706.2,751.1 992.9,772.3 1052,727 1115,383.8 
											"/>
					<polygon class="st14" points="1029.5,286.6 864.3,270.8 761.9,282.6 767.8,546.7 748.8,726.2 965.1,743.3 1051.4,728.8 
						1057.2,429.2 					"/>
					<polygon class="st15" points="1018.9,387.7 902.7,376.4 830.8,384.9 834.9,573.6 821.5,702 973.7,714.3 1034.3,703.9 
						1038.5,489.6 					"/>
					<polygon class="st16" points="984.7,501.8 929.7,496.7 895.6,500.5 897.6,585.8 891.2,643.8 963.2,649.4 992,644.7 
						993.9,547.9 					"/>
					<polygon class="st17" points="1545.6,-99.5 1535.8,29.8 1552.8,166.8 1692.8,217.8 1697.8,618.8 1850,454 2050,50 1984,-127 
											"/>
					<polygon class="st18" points="1638.6,-61.5 1631.3,34.9 1644,137 1748.3,175 1752,473.8 1865.5,351 2014.5,49.9 1965.3,-82 
											"/>
					<circle class="st19" cx="1082.6" cy="208.3" r="9.8"/>
					
						<ellipse transform="matrix(0.1602 -0.9871 0.9871 0.1602 582.6024 1258.1669)" class="st19" cx="1030.7" cy="286.7" rx="9.8" ry="9.8"/>
					<circle class="st20" cx="1012.9" cy="389.5" r="9.8"/>
					<circle class="st20" cx="980.5" cy="502.2" r="9.8"/>
					<circle class="st19" cx="1115.2" cy="379.7" r="9.8"/>
					<circle class="st21" cx="1051.8" cy="727.4" r="9.8"/>
					<circle class="st21" cx="1033.9" cy="699.7" r="9.8"/>
					<circle class="st21" cx="995" cy="644.2" r="9.8"/>
					<circle class="st20" cx="996.6" cy="773.2" r="9.8"/>
					<circle class="st21" cx="972.1" cy="717.6" r="9.8"/>
					<circle class="st20" cx="706" cy="751.9" r="9.8"/>
					<circle class="st21" cx="749.8" cy="724.2" r="9.8"/>
					<circle class="st21" cx="822.7" cy="699.7" r="9.8"/>
					<circle class="st21" cx="896.6" cy="644.2" r="9.8"/>
					
						<ellipse transform="matrix(0.1602 -0.9871 0.9871 0.1602 543.0618 1012.5043)" class="st19" cx="866.6" cy="187.1" rx="9.8" ry="9.8"/>
					<circle class="st19" cx="871.4" cy="270.3" r="9.8"/>
					<circle class="st20" cx="900.8" cy="376.4" r="9.8"/>
					<circle class="st19" cx="765.2" cy="283.4" r="9.8"/>
					<circle class="st20" cx="832.5" cy="389.5" r="9.8"/>
					<circle class="st20" cx="894.3" cy="503.8" r="9.8"/>
					<circle class="st19" cx="727.2" cy="534.8" r="9.8"/>
					<circle class="st19" cx="766.1" cy="546.2" r="9.8"/>
					<circle class="st20" cx="832.7" cy="578.9" r="9.8"/>
					<circle class="st21" cx="896.8" cy="585.4" r="9.8"/>
					<circle class="st19" cx="1058.3" cy="425.4" r="9.8"/>
					<circle class="st20" cx="1034.1" cy="484.2" r="9.8"/>
					<circle class="st20" cx="998.2" cy="554.4" r="9.8"/>
					<circle cx="1692.8" cy="217.8" r="9.8"/>
					<ellipse transform="matrix(0.1602 -0.9871 0.9871 0.1602 1105.575 2206.9946)" cx="1849.8" cy="453.8" rx="9.8" ry="9.8"/>
					<ellipse transform="matrix(0.1602 -0.9871 0.9871 0.1602 815.0591 2195.52)" cx="1697.8" cy="618.8" rx="9.8" ry="9.8"/>
					<circle cx="1552.8" cy="166.8" r="9.8"/>
					<circle cx="1535.8" cy="29.8" r="9.8"/>
					<circle cx="1630.8" cy="34.8" r="9.8"/>
					<circle cx="1748.8" cy="174.8" r="9.8"/>
					<ellipse transform="matrix(0.1602 -0.9871 0.9871 0.1602 1220.687 2136.2966)" cx="1865.8" cy="350.8" rx="9.8" ry="9.8"/>
					<ellipse transform="matrix(0.1602 -0.9871 0.9871 0.1602 1003.5364 2127.0598)" cx="1751.8" cy="473.8" rx="9.8" ry="9.8"/>
					<circle cx="1643.8" cy="136.8" r="9.8"/>
				</g>
			</g>
		</g>
	</g>
</g>
</svg>
