<?xml version="1.0" encoding="utf-8"?>
<!-- Generator: Adobe Illustrator 25.4.1, SVG Export Plug-In . SVG Version: 6.00 Build 0)  -->
<svg version="1.1" id="Ebene_1" xmlns="http://www.w3.org/2000/svg" xmlns:xlink="http://www.w3.org/1999/xlink" x="0px" y="0px"
	 viewBox="0 0 1466 1186" style="enable-background:new 0 0 1466 1186;" xml:space="preserve">
<style type="text/css">
	.st0{fill:#333333;stroke:#000000;stroke-width:2.2547;stroke-miterlimit:10;}
	.st1{fill:#4D4D4D;stroke:#1A1A1A;stroke-width:2.2547;stroke-miterlimit:10;}
	.st2{fill:#666666;stroke:#333333;stroke-width:2.0062;stroke-miterlimit:10;}
	.st3{fill:#808080;stroke:#4D4D4D;stroke-width:2.0062;stroke-miterlimit:10;}
	.st4{fill:#AFAFAF;stroke:#666666;stroke-width:2.0062;stroke-miterlimit:10;}
	.st5{fill:#666666;stroke:#333333;stroke-width:2.2547;stroke-miterlimit:10;}
	.st6{fill:#808080;stroke:#4D4D4D;stroke-width:1.7754;stroke-miterlimit:10;}
	.st7{fill:#4D4D4D;stroke:#1A1A1A;stroke-width:1.7754;stroke-miterlimit:10;}
	.st8{fill:#666666;stroke:#333333;stroke-width:1.7754;stroke-miterlimit:10;}
	.st9{fill:#AFAFAF;stroke:#666666;stroke-width:1.7754;stroke-miterlimit:10;}
	.st10{fill:#C8C8C8;stroke:#808080;stroke-width:1.7754;stroke-miterlimit:10;}
	.st11{fill:#E6E6E6;stroke:#C8C8C8;stroke-width:1.7754;stroke-miterlimit:10;}
	.st12{fill:#F5F5F5;stroke:#FFFFFF;stroke-width:1.3227;stroke-miterlimit:10;}
</style>
<g>
	<g>
		<polygon class="st0" points="25,176 -145.4,253.2 -122.4,370.4 -48.7,603 -70,739.7 -147.2,871.1 -181.8,947.4 -78,1132.9 
			-476.7,1121.4 -512,20.2 339.1,-13 		"/>
		<polygon class="st1" points="500.8,238.1 415.6,160.9 382.9,-13 282.3,-13 159,79.9 25,176 -145.4,253.2 -122.4,370.4 -48.7,603 
			-70,739.7 -139.2,854.2 -181.8,947.4 -69.1,1186 401.8,1193.9 762.7,941.2 792,880.8 797.3,792 769.8,690 689.9,650.9 603.8,579 
			617.1,484 523.9,290.5 		"/>
		<polygon class="st0" points="-80.6,176 -196.9,268.3 -173,382.8 -76.2,603 -127.7,739.7 -214.7,843.5 -262.6,973.1 -128.5,1136.3 
			-506.8,1119.4 -296.5,43.2 159,43.2 		"/>
		<polygon class="st1" points="-111.7,173.3 -251.1,278.1 -220.9,407.7 -121.5,609.2 -150.8,716.6 -243.1,819.6 -307.9,971.4 
			-215.7,1134.5 -520.4,1121.2 -459.2,43.2 -3.7,43.2 		"/>
		<polygon class="st2" points="-192.9,176 -315.4,267.9 -261.3,439.2 -194.7,597.2 -226.7,719.7 -326.1,835.1 -348.3,978.9 
			-296.3,1126.5 -539.2,1120.8 -395.9,4.1 -34.9,4.1 		"/>
		<polygon class="st3" points="-273.7,123.2 -362.5,204 -395.3,291.8 -362.5,455.2 -267.5,545.7 -271.9,704.6 -371.3,788.9 
			-382.9,962 -440.6,1014.4 -580.6,1045.9 -580.6,176 -148.5,-4.6 -171.9,66.8 		"/>
		<polygon class="st4" points="-300.3,123.2 -404.2,168.4 -439.7,266.1 -420.2,472.9 -374,536 -322.5,578.6 -320.8,677.1 
			-398,788.9 -405.1,901.7 -440.6,937.2 -597.7,970 -594.8,11.1 -210.9,17.5 		"/>
		<polygon class="st5" points="469.7,250.6 174.1,215.9 -66.4,310.9 -0.7,603 -69.1,926.1 398.2,1027.7 673.9,928.8 725.4,864 
			681,659.8 581.6,590.5 590,501.9 508.8,294.1 		"/>
		<polygon class="st6" points="504.8,312.3 234.9,277.6 38.8,343.3 108,623.8 49.4,898.1 439.1,915.9 622.9,850.2 563.4,597.2 
			567.8,494.2 		"/>
		<polygon class="st7" points="415.1,161.3 500.4,237.7 523.4,290.9 616.6,484.5 603.3,579.4 689.4,651.4 769.7,690.3 796.8,792.5 
			791.5,881.3 763.1,941.6 408.2,1187 1245.3,1181.8 1243.4,148.2 330.8,-31.9 		"/>
		<polygon class="st8" points="415.1,-31.9 551.8,235.9 551.8,288.3 645.9,466.7 622.9,564.4 708.1,642.5 799.5,661.1 832.4,788.9 
			803,883.8 776,955.2 651.1,1186.5 1249.2,1181.2 1243.4,-31.9 		"/>
		<polygon class="st6" points="636.3,-50.1 636.7,225.4 636.3,268.6 692.4,446.7 686.8,520.9 768.9,579.7 843.9,605.4 864.4,727.6 
			871.9,768.6 849.2,828.8 808.6,1187 1484.5,1187 2061.3,-71.3 		"/>
		<polygon class="st9" points="1243.4,707.3 1732.5,43.2 811.8,-31.9 721.8,198.3 721.4,226.3 769.7,341.9 764,414.3 757.8,477.4 
			839.5,485.4 917.6,524.1 924.1,550.7 904.5,589.7 930.4,731.7 878.5,915.9 912.6,1010 1133,1010 1224,862 		"/>
		<polygon class="st10" points="1525.7,11.1 963.3,-31.9 784.4,148.2 816.1,183.1 815.8,202.5 855.3,283 849.2,330 845.7,388.6 
			918.5,385 976.4,409.8 981.8,428.4 965.7,455.5 987,554.4 977.9,690.4 1013.4,797.8 1153,748.1 1227.6,645.1 		"/>
		<polygon class="st11" points="911,88.1 902.3,202.9 917.4,324.5 1041.7,369.8 1046.1,725.7 1181.2,579.4 1358.8,220.8 1278.2,4.7 
					"/>
		<polygon class="st12" points="993.6,121.8 987.1,207.4 998.4,298 1090.9,331.8 1094.2,597 1195,488 1327.2,220.7 1283.6,103.6 		
			"/>
	</g>
</g>
</svg>
