<?xml version="1.0" encoding="utf-8"?>
<!-- Generator: Adobe Illustrator 25.4.1, SVG Export Plug-In . SVG Version: 6.00 Build 0)  -->
<svg version="1.1" id="Ebene_1" xmlns="http://www.w3.org/2000/svg" xmlns:xlink="http://www.w3.org/1999/xlink" x="0px" y="0px"
	 viewBox="0 0 1920 1186" style="enable-background:new 0 0 1920 1186;" xml:space="preserve">
<style type="text/css">
	.st0{fill:#333333;stroke:#000000;stroke-width:2.54;stroke-miterlimit:10;}
	.st1{fill:#4D4D4D;stroke:#1A1A1A;stroke-width:2.54;stroke-miterlimit:10;}
	.st2{fill:#666666;stroke:#333333;stroke-width:2.26;stroke-miterlimit:10;}
	.st3{fill:#808080;stroke:#4D4D4D;stroke-width:2.26;stroke-miterlimit:10;}
	.st4{fill:#AFAFAF;stroke:#666666;stroke-width:2.26;stroke-miterlimit:10;}
	.st5{fill:#666666;stroke:#333333;stroke-width:2.54;stroke-miterlimit:10;}
	.st6{fill:#808080;stroke:#4D4D4D;stroke-width:2;stroke-miterlimit:10;}
	.st7{fill:#4D4D4D;stroke:#1A1A1A;stroke-width:2;stroke-miterlimit:10;}
	.st8{fill:#666666;stroke:#333333;stroke-width:2;stroke-miterlimit:10;}
	.st9{fill:#AFAFAF;stroke:#666666;stroke-width:2;stroke-miterlimit:10;}
	.st10{fill:#C8C8C8;stroke:#808080;stroke-width:2;stroke-miterlimit:10;}
	.st11{fill:#E6E6E6;stroke:#C8C8C8;stroke-width:2;stroke-miterlimit:10;}
	.st12{fill:#F5F5F5;stroke:#FFFFFF;stroke-width:1.49;stroke-miterlimit:10;}
</style>
<g>
	<g>
		<polygon class="st0" points="547.5,123 355.5,210 381.5,342 464.5,604 440.5,758 353.5,906 314.5,992 431.5,1201 -17.7,1188 
			-57.4,-52.5 926.7,-47.7 		"/>
		<polygon class="st1" points="1083.5,193 987.5,106 934.2,0 820.8,0 725.7,42.8 547.5,123 355.5,210 381.5,342 464.5,604 
			440.5,758 362.5,887 314.5,992 427.4,1191.9 976.9,1191.9 1378.5,985 1411.5,917 1417.5,817 1386.5,702 1296.5,658 1199.5,577 
			1214.5,470 1109.5,252 		"/>
		<polygon class="st0" points="428.5,123 297.5,227 324.5,356 433.5,604 375.5,758 277.5,875 223.5,1021 374.6,1204.8 -51.6,1185.8 
			185.3,-26.6 698.5,-26.6 		"/>
		<polygon class="st1" points="393.5,120 236.5,238 270.5,384 382.5,611 349.5,732 245.5,848 172.5,1019 276.3,1202.8 -66.9,1187.8 
			2,-26.6 515.2,-26.6 		"/>
		<polygon class="st2" points="302,123 164,226.5 225,419.5 300,597.5 264,735.5 152,865.5 127,1027.5 185.6,1193.8 -88.1,1187.3 
			73.3,-70.6 480,-70.6 		"/>
		<polygon class="st3" points="211,63.5 111,154.5 74,253.5 111,437.5 218,539.5 213,718.5 101,813.5 88,1008.5 23,1067.5 
			-134.7,1103 -134.7,123 352.1,-80.4 325.7,0 		"/>
		<polygon class="st4" points="181,63.5 64,114.5 24,224.5 46,457.5 98,528.5 156,576.5 158,687.5 71,813.5 63,940.5 23,980.5 
			-154,1017.5 -150.7,-62.8 281.7,-55.5 		"/>
		<polygon class="st5" points="1048.5,207 715.5,168 444.5,275 518.5,604 441.5,968 967.9,1082.5 1278.5,971 1336.5,898 1286.5,668 
			1174.5,590 1184,490.1 1092.5,256 		"/>
		<polygon class="st6" points="1088,276.5 784,237.5 563,311.5 641,627.5 575,936.5 1014,956.5 1221,882.5 1154,597.5 1159,481.5 		
			"/>
		<polygon class="st7" points="987,106.5 1083,192.5 1109,252.5 1214,470.5 1199,577.5 1296,658.5 1386.4,702.4 1417,817.5 
			1411,917.5 1379,985.5 976.9,1191.9 1920,1186 1920,91.7 908.1,-52.5 		"/>
		<polygon class="st8" points="987,-70 1141,190.5 1141,249.5 1247,450.5 1221,560.5 1317,648.5 1420,669.5 1457,813.5 
			1423.9,920.4 1393.5,1000.8 1246.2,1191.9 1920,1186 1920,91.7 		"/>
		<polygon class="st6" points="1236.1,-131.7 1236.6,178.7 1236.1,227.3 1299.3,428 1293,511.5 1385.5,577.8 1470,606.7 
			1493.1,744.4 1501.6,790.6 1476,858.4 1362,1186 1920,1186 1920,91.7 		"/>
		<polygon class="st9" points="1920,721.5 1920,91.7 1433.8,-111.2 1332.5,148.1 1332,179.7 1386.4,309.9 1380,391.5 1373,462.5 
			1465,471.5 1553,515.1 1560.3,545.1 1538.3,589.1 1567.5,749 1509,956.5 1547.4,1062.5 1795.7,1062.5 1898.2,895.8 		"/>
		<polygon class="st10" points="1920,530.1 1604.5,-111.2 1403,91.7 1438.7,131 1438.3,152.9 1482.8,243.6 1476,296.5 1472,362.5 
			1554,358.5 1619.3,386.4 1625.3,407.3 1607.2,437.9 1631.2,549.3 1621,702.5 1661,823.5 1818.2,767.5 1902.2,651.5 		"/>
		<polygon class="st11" points="1545.6,24 1535.8,153.3 1552.8,290.3 1692.8,341.3 1697.8,742.3 1850,577.5 2050,173.5 1959.2,-70 
					"/>
		<polygon class="st12" points="1638.6,62 1631.3,158.4 1644,260.5 1748.3,298.5 1752,597.3 1865.5,474.5 2014.5,173.4 1965.3,41.5 
					"/>
	</g>
</g>
</svg>
