<?xml version="1.0" encoding="utf-8"?>
<!-- Generator: Adobe Illustrator 25.4.1, SVG Export Plug-In . SVG Version: 6.00 Build 0)  -->
<svg version="1.1" id="Ebene_1" xmlns="http://www.w3.org/2000/svg" xmlns:xlink="http://www.w3.org/1999/xlink" x="0px" y="0px"
	 viewBox="0 0 1466 1124" style="enable-background:new 0 0 1466 1124;" xml:space="preserve">
<style type="text/css">
	.st0{fill:#3D8A5E;stroke:#000000;stroke-width:2.11;stroke-miterlimit:10;}
	.st1{fill:#6B785E;stroke:#1A1A1A;stroke-width:2.11;stroke-miterlimit:10;}
	.st2{fill:#2E694F;stroke:#000000;stroke-width:2.11;stroke-miterlimit:10;}
	.st3{fill:#374426;stroke:#1A1A1A;stroke-width:2.11;stroke-miterlimit:10;}
	.st4{fill:#666666;stroke:#333333;stroke-width:1.8775;stroke-miterlimit:10;}
	.st5{fill:#808080;stroke:#4D4D4D;stroke-width:1.8775;stroke-miterlimit:10;}
	.st6{fill:#AFAFAF;stroke:#666666;stroke-width:1.8775;stroke-miterlimit:10;}
	.st7{fill:#949E8B;stroke:#333333;stroke-width:2.11;stroke-miterlimit:10;}
	.st8{fill:#ABB38D;stroke:#4D4D4D;stroke-width:1.6615;stroke-miterlimit:10;}
	.st9{fill:#7B9159;stroke:#1A1A1A;stroke-width:1.6615;stroke-miterlimit:10;}
	.st10{fill:#374426;stroke:#333333;stroke-width:1.6615;stroke-miterlimit:10;}
	.st11{fill:#57673E;stroke:#4D4D4D;stroke-width:1.6615;stroke-miterlimit:10;}
	.st12{fill:#6B785E;stroke:#666666;stroke-width:1.6615;stroke-miterlimit:10;}
	.st13{fill:#949E8B;stroke:#808080;stroke-width:1.6615;stroke-miterlimit:10;}
	.st14{fill:#ABB38D;stroke:#C8C8C8;stroke-width:1.6615;stroke-miterlimit:10;}
	.st15{fill:#E5DFCF;stroke:#FFFFFF;stroke-width:1.2378;stroke-miterlimit:10;}
	.st16{opacity:0.5;stroke:#1A1A1A;stroke-width:2.324;stroke-miterlimit:10;}
</style>
<g>
	<g>
		<polygon class="st0" points="101.5,147.1 -50.5,222.9 -30,338 35.7,566.4 16.7,700.6 -52.1,829.7 -83,904.6 9.6,1086.8 
			-346,1075.5 -377.5,-5.9 381.6,-38.5 		"/>
		<polygon class="st1" points="525.8,208.1 449.8,132.3 420.6,-38.5 330.9,-38.5 221,52.7 101.5,147.1 -50.5,222.9 -30,338 
			35.7,566.4 16.7,700.6 -45,813.1 -83,904.6 -14.3,1138.3 437.5,1146.7 759.4,898.5 785.5,839.2 790.2,752 765.7,651.8 
			694.4,613.4 617.6,542.8 629.5,449.5 546.4,259.5 		"/>
		<polygon class="st2" points="7.3,147.1 -96.4,237.7 -75.1,350.2 11.2,566.4 -34.7,700.6 -112.3,802.6 -155,929.8 -35.4,1090.1 
			-372.8,1073.5 -185.3,16.7 221,16.7 		"/>
		<polygon class="st3" points="-20.5,144.4 -144.8,247.3 -117.8,374.6 -29.2,572.5 -55.3,678 -137.6,779.1 -195.4,928.2 
			-113.2,1088.3 -384.9,1075.3 -330.4,16.7 75.9,16.7 		"/>
		<polygon class="st4" points="-92.9,147.1 -202.1,237.3 -153.9,405.5 -94.5,560.7 -123,681 -211.7,794.3 -231.5,935.5 
			-185.1,1080.5 -401.7,1074.9 -273.9,-21.7 48,-21.7 		"/>
		<polygon class="st5" points="-164.9,95.2 -244.1,174.6 -273.4,260.8 -244.1,421.3 -159.4,510.1 -163.3,666.2 -252,749 
			-262.3,918.9 -313.8,970.4 -438.6,1001.3 -438.6,147.1 -53.3,-30.3 -74.1,39.9 		"/>
		<polygon class="st6" points="-188.7,95.2 -281.3,139.6 -313,235.6 -295.6,438.6 -254.4,500.6 -208.5,542.4 -206.9,639.2 
			-275.8,749 -282.1,859.7 -313.8,894.6 -453.9,926.8 -451.3,-14.8 -108.9,-8.6 		"/>
		<polygon class="st7" points="498.1,220.3 234.4,186.3 19.9,279.6 78.5,566.4 17.5,883.7 434.3,983.4 680.2,886.3 726.1,822.7 
			686.5,622.2 597.8,554.1 605.3,467.1 532.9,263.1 		"/>
		<polygon class="st8" points="529.4,280.9 288.7,246.9 113.8,311.4 175.5,586.8 123.2,856.2 470.8,873.7 634.7,809.1 581.6,560.7 
			585.5,459.6 		"/>
		<polygon class="st9" points="449.4,132.7 525.4,207.7 545.9,259.9 629.1,450 617.2,543.2 694,613.9 765.6,652.1 789.8,752.5 
			785,839.7 759.7,898.9 443.2,1139.9 1189.8,1134.8 1188.1,119.8 374.2,-57.1 		"/>
		<polygon class="st10" points="449.4,-57.1 571.3,205.9 571.3,257.4 655.2,432.6 634.7,528.5 710.7,605.2 792.2,623.5 821.5,749 
			795.3,842.1 771.2,912.3 659.8,1139.4 1193.2,1134.2 1188.1,-57.1 		"/>
		<polygon class="st11" points="646.6,-74.9 647,195.6 646.6,238 696.7,412.9 691.7,485.8 764.9,543.5 831.8,568.8 850.1,688.8 
			856.7,729 836.5,788.1 800.3,1139.9 1515.9,1139.9 1917.5,-95.8 		"/>
		<polygon class="st12" points="1188.1,668.8 1624.3,16.7 803.1,-57.1 722.9,169 722.5,196.5 765.6,310 760.5,381.1 755,443.1 
			827.8,450.9 897.5,488.9 903.3,515 885.8,553.3 908.9,692.8 862.6,873.7 893,966.1 1089.6,966.1 1170.8,820.7 		"/>
		<polygon class="st13" points="1439.8,-14.8 938.3,-57.1 778.7,119.8 807,154.1 806.7,173.1 841.9,252.2 836.5,298.3 833.4,355.9 
			898.3,352.3 949.9,376.7 954.8,394.9 940.4,421.6 959.4,518.7 951.3,652.2 982.9,757.7 1107.4,708.9 1174,607.7 		"/>
		<polygon class="st14" points="891.6,60.8 883.9,173.5 897.3,292.9 1008.2,337.4 1012.1,686.9 1132.6,543.2 1291,191.1 
			1219.1,-21.1 		"/>
		<polygon class="st15" points="965.3,93.9 959.5,177.9 969.6,266.9 1052.1,300.1 1055,560.5 1144.9,453.5 1262.8,191 1223.9,76 		
			"/>
	</g>
</g>
<rect x="-72.3" y="-57.1" class="st16" width="1612.6" height="1238.1"/>
</svg>
