<?xml version="1.0" encoding="utf-8"?>
<!-- Generator: Adobe Illustrator 25.4.1, SVG Export Plug-In . SVG Version: 6.00 Build 0)  -->
<svg version="1.1" xmlns="http://www.w3.org/2000/svg" xmlns:xlink="http://www.w3.org/1999/xlink" x="0px" y="0px"
	 viewBox="0 0 429 606" style="enable-background:new 0 0 429 606;" xml:space="preserve">
<style type="text/css">
	.st0{fill:#AFAFAF;stroke:#666666;stroke-width:2;stroke-miterlimit:10;}
	.st1{fill:#321400;}
	.st2{fill:none;stroke:#FFFFFF;stroke-width:2;stroke-miterlimit:10;}
	.st3{fill:#603813;stroke:#FFFFFF;stroke-miterlimit:10;}
	.st4{fill:#8C6239;stroke:#FFFFFF;stroke-miterlimit:10;}
	.st5{fill:#C69C6D;stroke:#FFFFFF;stroke-miterlimit:10;}
	.st6{fill:#39B54A;}
	.st7{fill:#F7931E;}
	.st8{fill:#ED1C24;}
</style>
<g id="Ebene_1">
</g>
<g id="Isolationsmodus">
	<polygon class="st0" points="382.3,30 163.4,10.4 27.8,25.1 35.5,351.6 10.3,573.6 297,594.8 411.3,576.9 419.1,206.3 	"/>
	
		<image style="overflow:visible;opacity:0.75;enable-background:new    ;" width="460" height="637" xlink:href="../../../../../Skripte/bachelorarbeit/src/images/map/67C6CFD695162033.png"  transform="matrix(0.9982 0 0 0.9982 -14.9741 -15.4043)">
	</image>
	<polygon class="st1" points="382.3,30 163.4,10.4 66.1,105.5 35.5,351.6 10.3,573.6 297,594.8 356.1,549.5 419.1,206.3 	"/>
	<polygon class="st2" points="382.3,30 163.4,10.4 66.1,105.5 35.5,351.6 10.3,573.6 297,594.8 356.1,549.5 419.1,206.3 	"/>
	<polygon class="st3" points="333.6,109.1 168.4,93.3 66,105.1 71.9,369.2 52.9,548.7 269.2,565.8 355.5,551.3 361.3,251.7 	"/>
	<polygon class="st4" points="323,210.2 206.8,198.9 134.9,207.4 139,396.1 125.6,524.5 277.8,536.8 338.4,526.4 342.6,312.1 	"/>
	<polygon class="st5" points="288.8,324.3 233.8,319.2 199.7,323 201.7,408.3 195.3,466.3 267.3,471.9 296.1,467.2 298,370.4 	"/>
	<circle class="st6" cx="386.7" cy="30.8" r="9.8"/>
	
		<ellipse transform="matrix(0.3162 -0.9487 0.9487 0.3162 125.3367 392.3333)" class="st6" cx="334.8" cy="109.2" rx="9.8" ry="9.8"/>
	<circle class="st7" cx="317" cy="212" r="9.8"/>
	<circle class="st7" cx="284.6" cy="324.7" r="9.8"/>
	<circle class="st6" cx="419.3" cy="202.2" r="9.8"/>
	<circle class="st8" cx="355.9" cy="549.9" r="9.8"/>
	<circle class="st8" cx="338" cy="522.2" r="9.8"/>
	<circle class="st8" cx="299.1" cy="466.7" r="9.8"/>
	<circle class="st7" cx="300.7" cy="595.7" r="9.8"/>
	<circle class="st8" cx="276.2" cy="540.1" r="9.8"/>
	<circle class="st7" cx="10.1" cy="574.4" r="9.8"/>
	<circle class="st8" cx="53.9" cy="546.7" r="9.8"/>
	<circle class="st8" cx="126.8" cy="522.2" r="9.8"/>
	<circle class="st8" cx="200.7" cy="466.7" r="9.8"/>
	<ellipse transform="matrix(0.1602 -0.9871 0.9871 0.1602 133.8915 176.5374)" class="st6" cx="170.7" cy="9.6" rx="9.8" ry="9.8"/>
	<circle class="st6" cx="175.5" cy="92.8" r="9.8"/>
	<circle class="st7" cx="204.9" cy="198.9" r="9.8"/>
	<circle class="st6" cx="69.3" cy="105.9" r="9.8"/>
	<circle class="st7" cx="136.6" cy="212" r="9.8"/>
	<circle class="st7" cx="198.4" cy="326.3" r="9.8"/>
	<circle class="st6" cx="31.3" cy="357.3" r="9.8"/>
	<circle class="st6" cx="70.2" cy="368.7" r="9.8"/>
	<circle class="st7" cx="136.8" cy="401.4" r="9.8"/>
	<circle class="st8" cx="200.9" cy="407.9" r="9.8"/>
	<circle class="st6" cx="362.4" cy="247.9" r="9.8"/>
	<circle class="st7" cx="338.2" cy="306.7" r="9.8"/>
	<circle class="st7" cx="302.3" cy="376.9" r="9.8"/>
</g>
</svg>
