<svg xmlns="http://www.w3.org/2000/svg" viewBox="0 0 105.41 80.94"><defs><style>.cls-1{fill:#fcca00;}.cls-2{fill:#fff;}.cls-3{fill:#96e8ff;}</style></defs><g id="Ebene_2" data-name="Ebene 2"><g id="weather"><circle class="cls-1" cx="40.47" cy="40.47" r="37.97"/><path class="cls-2" d="M40.47,5A35.47,35.47,0,1,1,5,40.47,35.51,35.51,0,0,1,40.47,5m0-5A40.47,40.47,0,1,0,80.94,40.47,40.47,40.47,0,0,0,40.47,0Z"/><path class="cls-3" d="M87,28.14a20.28,20.28,0,0,0-6.27,1,14.77,14.77,0,0,0-28.57,3H52a14.78,14.78,0,1,0,0,29.56H88.63s16.78-1.25,16.78-16.54C105.41,36.87,98.35,28.14,87,28.14Z"/></g></g></svg>