<svg xmlns="http://www.w3.org/2000/svg" viewBox="0 0 211.09 165"><defs><style>.cls-1{fill:#5dc0e3;}.cls-2{fill:#87d2e6;}.cls-3{fill:#96e8ff;}.cls-4{fill:#0096dc;}</style></defs><g id="Ebene_2" data-name="Ebene 2"><g id="weather"><path class="cls-1" d="M211.09,83.31s-2.72,13.45-18.2,32.67-28,24.76-28,24.76l-5.55-4.47s12.56-5.53,28-24.75,18.21-32.68,18.21-32.68Z"/><path class="cls-2" d="M205.55,78.84s-2.73,13.45-18.21,32.68-28,24.75-28,24.75l-5.1-5s12.11-5,27.59-24.2,17.76-32.12,17.76-32.12Z"/><path class="cls-2" d="M111.29,77.39c32.37,32.48,46.73,29.41,61.44,20.23C193.29,84.79,193.56,71,193.56,71L142.81,31.45s1,4.45-10.41,20.88A162.57,162.57,0,0,1,111.29,77.39Z"/><ellipse class="cls-3" cx="120.59" cy="57.9" rx="34.54" ry="7.12" transform="translate(-0.15 115.5) rotate(-51.15)"/><path class="cls-1" d="M103.73,78.62l-.56-.45c-1.16-.94,1.09-5.67,5-10.57s8.09-8.12,9.26-7.18l.55.45"/><ellipse class="cls-4" cx="110.87" cy="69.74" rx="11.4" ry="2.71" transform="translate(-12.99 112.35) rotate(-51.15)"/><path class="cls-1" d="M199.55,74.93s-2.27,12.89-17.76,32.12-27.59,24.2-27.59,24.2L98.92,84.81a25.37,25.37,0,0,0,12.37-7.42c32.37,32.48,46.73,29.41,61.44,20.23C193.29,84.79,193.56,71,193.56,71Z"/><polygon class="cls-1" points="144.03 122.7 75.77 123.77 75.69 113.65 126.87 108.29 144.03 122.7"/><path class="cls-1" d="M63.69,143.31s5-.54,8.37-7a34.45,34.45,0,0,0,3.71-12.56l-.08-10.12s-.65-6-2-8.9c.52,9.56.1,14-2.89,19.74S66,129.78,66,129.78Z"/><path class="cls-3" d="M66,129.78s1.85.42,4.83-5.29,3.41-10.18,2.89-19.74c0,0-4.93-8.41-10.18-10S66,129.78,66,129.78Z"/><ellipse class="cls-3" cx="61.05" cy="118.61" rx="8.07" ry="25.6" transform="translate(-2.5 1.32) rotate(-1.22)"/><ellipse class="cls-4" cx="60.04" cy="118.72" rx="1.05" ry="3.35" transform="translate(-2.5 1.3) rotate(-1.22)"/><ellipse class="cls-4" cx="56.04" cy="119.15" rx="1.05" ry="3.35" transform="translate(-2.51 1.22) rotate(-1.22)"/><ellipse class="cls-4" cx="63.79" cy="129.96" rx="1.05" ry="3.35" transform="translate(-2.74 1.38) rotate(-1.22)"/><ellipse class="cls-4" cx="60.77" cy="134.85" rx="1.05" ry="3.35" transform="translate(-2.85 1.32) rotate(-1.22)"/><ellipse class="cls-4" cx="64.6" cy="118.73" rx="1.05" ry="3.35" transform="translate(-2.5 1.4) rotate(-1.22)"/><ellipse class="cls-4" cx="57.78" cy="130.61" rx="1.05" ry="3.35" transform="translate(-2.76 1.26) rotate(-1.22)"/><ellipse class="cls-4" cx="62.97" cy="108.27" rx="1.05" ry="3.35" transform="translate(-2.28 1.36) rotate(-1.22)"/><ellipse class="cls-4" cx="59.32" cy="102.59" rx="1.05" ry="3.35" transform="translate(-2.16 1.28) rotate(-1.22)"/><ellipse class="cls-4" cx="56.96" cy="108.92" rx="1.05" ry="3.35" transform="translate(-2.3 1.23) rotate(-1.22)"/><path class="cls-2" d="M179,61.49s-8-19-11-27.18c-4.3-11.69-11.79-16.47-11.79-16.47S139,5.52,127.38,19.94s.47,27.81.47,27.81l-8.6,9.54s-22.4-19.87-1.65-45.63c18.12-22.5,43.75-5.51,43.75-5.51s12,7.83,18.94,25.31C184.75,42.67,199.39,77,199.39,77"/><path class="cls-4" d="M38.86,117.56a3.44,3.44,0,0,1-1.14-6.76c1.71-.29,6.58,2.36,6.58,2.36S40.57,117.27,38.86,117.56Z"/><path class="cls-3" d="M44.3,113.16s-3.73,4.11-5.44,4.4a3.31,3.31,0,0,1-3.67-2.86s.68,1.59,3.37,1.14A16.8,16.8,0,0,0,44.3,113.16Z"/><path class="cls-4" d="M39.73,127.93A3.44,3.44,0,0,1,37,121.65c1.59-.69,7,.71,7,.71S41.32,127.24,39.73,127.93Z"/><path class="cls-3" d="M44,122.36s-2.63,4.88-4.22,5.57a3.29,3.29,0,0,1-4.25-1.88s1,1.38,3.55.29A16.79,16.79,0,0,0,44,122.36Z"/><path class="cls-4" d="M44,138.43a3.44,3.44,0,0,1-4.49-5.18c1.31-1.13,6.85-1.4,6.85-1.4S45.29,137.3,44,138.43Z"/><path class="cls-3" d="M46.34,131.85s-1.05,5.45-2.36,6.58a3.29,3.29,0,0,1-4.62-.53s1.4,1,3.47-.78A16.87,16.87,0,0,0,46.34,131.85Z"/><path class="cls-4" d="M49.57,147.43a3.44,3.44,0,0,1-5.43-4.18c1.06-1.37,6.44-2.73,6.44-2.73S50.63,146.06,49.57,147.43Z"/><path class="cls-3" d="M50.58,140.52s.05,5.54-1,6.91a3.28,3.28,0,0,1-4.63.4s1.58.71,3.25-1.45A16.74,16.74,0,0,0,50.58,140.52Z"/><path class="cls-4" d="M18.53,130a3.55,3.55,0,0,1-2.75-6.51c1.65-.7,7.16.81,7.16.81S20.17,129.29,18.53,130Z"/><path class="cls-3" d="M22.94,124.29s-2.77,5-4.41,5.7a3.4,3.4,0,0,1-4.36-2s1.05,1.44,3.65.35A17.25,17.25,0,0,0,22.94,124.29Z"/><path class="cls-4" d="M21.86,140.19a3.55,3.55,0,0,1-4.24-5.65c1.44-1.07,7.15-.94,7.15-.94S23.29,139.12,21.86,140.19Z"/><path class="cls-3" d="M24.77,133.6s-1.48,5.52-2.91,6.59a3.39,3.39,0,0,1-4.71-.88s1.36,1.14,3.62-.55A17.25,17.25,0,0,0,24.77,133.6Z"/><path class="cls-4" d="M28.6,149.73a3.55,3.55,0,0,1-5.73-4.14c1.05-1.45,6.54-3,6.54-3S29.65,148.28,28.6,149.73Z"/><path class="cls-3" d="M29.41,142.57s.24,5.71-.81,7.16a3.39,3.39,0,0,1-4.76.55s1.65.69,3.3-1.6A17.22,17.22,0,0,0,29.41,142.57Z"/><path class="cls-4" d="M36.35,157.43a3.55,3.55,0,0,1-6.44-2.91c.73-1.63,5.8-4.27,5.8-4.27S37.08,155.8,36.35,157.43Z"/><path class="cls-3" d="M35.71,150.25s1.37,5.55.64,7.18a3.41,3.41,0,0,1-4.56,1.5s1.75.34,2.92-2.23A17.2,17.2,0,0,0,35.71,150.25Z"/><path class="cls-4" d="M6.27,155.7a3.39,3.39,0,0,1-4.76.51,3.39,3.39,0,0,1-.92-4.7c1.06-1.44,6.57-3,6.57-3S7.34,154.27,6.27,155.7Z"/><path class="cls-3" d="M7.16,148.55s.18,5.72-.89,7.15a3.39,3.39,0,0,1-4.76.51s1.64.7,3.31-1.57A17.08,17.08,0,0,0,7.16,148.55Z"/><path class="cls-4" d="M15.48,162.88a3.39,3.39,0,0,1-4.39,1.91,3.39,3.39,0,0,1-2.29-4.21c.59-1.69,5.39-4.79,5.39-4.79S16.07,161.19,15.48,162.88Z"/><path class="cls-3" d="M14.19,155.79s1.88,5.4,1.29,7.09a3.39,3.39,0,0,1-4.39,1.91s1.77.18,2.69-2.49A17.22,17.22,0,0,0,14.19,155.79Z"/></g></g></svg>