<svg xmlns="http://www.w3.org/2000/svg" viewBox="0 0 119.21 84.27"><defs><style>.cls-1{fill:#afafaf;}.cls-2{fill:gray;}.cls-3{fill:#0096dc;}.cls-4{fill:#96e8ff;}</style></defs><g id="Ebene_2" data-name="Ebene 2"><g id="weather"><path class="cls-1" d="M100.76,21.51a20.28,20.28,0,0,0-6.27,1,14.76,14.76,0,0,0-28.56,2.95h-.15a14.78,14.78,0,0,0,0,29.56h36.65s16.78-1.25,16.78-16.54C119.21,30.24,112.15,21.51,100.76,21.51Z"/><path class="cls-2" d="M49.76,8.87a20.28,20.28,0,0,0-6.27,1,14.76,14.76,0,0,0-28.56,3h-.15a14.78,14.78,0,0,0,0,29.56H51.43s16.78-1.25,16.78-16.54C68.21,17.6,61.15,8.87,49.76,8.87Z"/><path class="cls-3" d="M35.8,51.17c0,4.47-3.95,8.1-8.83,8.1s-8.83-3.63-8.83-8.1S27,35.47,27,35.47,35.8,46.7,35.8,51.17Z"/><path class="cls-4" d="M27,35.47S35.8,46.7,35.8,51.17s-3.95,8.1-8.83,8.1c0,0,4.34-1,4.34-8.08S27,35.47,27,35.47Z"/><path class="cls-3" d="M82.8,64.17c0,4.47-4,8.1-8.83,8.1s-8.83-3.63-8.83-8.1S74,48.47,74,48.47,82.8,59.7,82.8,64.17Z"/><path class="cls-4" d="M74,48.47S82.8,59.7,82.8,64.17s-4,8.1-8.83,8.1c0,0,4.34-1,4.34-8.08S74,48.47,74,48.47Z"/><path class="cls-3" d="M55.8,76.17c0,4.47-3.95,8.1-8.83,8.1s-8.83-3.63-8.83-8.1S47,60.47,47,60.47,55.8,71.7,55.8,76.17Z"/><path class="cls-4" d="M47,60.47S55.8,71.7,55.8,76.17s-3.95,8.1-8.83,8.1c0,0,4.34-1,4.34-8.08S47,60.47,47,60.47Z"/></g></g></svg>