<svg xmlns="http://www.w3.org/2000/svg" viewBox="0 0 119.21 78.03"><defs><style>.cls-1{fill:gray;}.cls-2{fill:#666;}.cls-3{fill:#fcca00;}</style></defs><g id="Ebene_2" data-name="Ebene 2"><g id="weather"><path class="cls-1" d="M100.76,21.51a20.28,20.28,0,0,0-6.27,1,14.76,14.76,0,0,0-28.56,2.95h-.15a14.78,14.78,0,0,0,0,29.56h36.65s16.78-1.25,16.78-16.54C119.21,30.24,112.15,21.51,100.76,21.51Z"/><path class="cls-2" d="M49.76,8.87a20.28,20.28,0,0,0-6.27,1,14.76,14.76,0,0,0-28.56,3h-.15a14.78,14.78,0,0,0,0,29.56H51.43s16.78-1.25,16.78-16.54C68.21,17.6,61.15,8.87,49.76,8.87Z"/><path class="cls-3" d="M27.05,77.71c2.12-4.1,4.34-8.14,6.52-12.21,1.09-2,2.2-4.06,3.32-6.07s2.21-4,3.35-6l1.83,3.18-7.94.65c-2.64.22-5.28.54-7.93.8L21,58.52l2.55-5a83.93,83.93,0,0,1,7.16-11.41c1.33-1.83,2.71-3.62,4.18-5.36a61.5,61.5,0,0,1,4.67-5.06l.52.31a60.92,60.92,0,0,1-2.17,6.53c-.82,2.13-1.72,4.2-2.67,6.25a85.6,85.6,0,0,1-6.54,11.78L26,52c2.66.08,5.32.22,8,.27l8,.11,4,.05-2.15,3.13c-1.31,1.9-2.67,3.76-4,5.65s-2.67,3.75-4,5.61C33,70.58,30.33,74.33,27.56,78Z"/></g></g></svg>