<?xml version="1.0" encoding="utf-8"?>
<!-- Generator: Adobe Illustrator 25.4.1, SVG Export Plug-In . SVG Version: 6.00 Build 0)  -->
<svg version="1.1" id="Ebene_1" xmlns="http://www.w3.org/2000/svg" xmlns:xlink="http://www.w3.org/1999/xlink" x="0px" y="0px"
	 viewBox="0 0 544.2 768.7" style="enable-background:new 0 0 544.2 768.7;" xml:space="preserve">
<style type="text/css">
	.st0{fill:#AFAFAF;stroke:#666666;stroke-width:2.54;stroke-miterlimit:10;}
	.st1{fill:#321400;stroke:#FFFFFF;stroke-width:2;stroke-miterlimit:10;}
	.st2{fill:#603813;stroke:#FFFFFF;stroke-width:2;stroke-miterlimit:10;}
	.st3{fill:#8C6239;stroke:#FFFFFF;stroke-width:2;stroke-miterlimit:10;}
	.st4{fill:#C69C6D;stroke:#FFFFFF;stroke-width:2;stroke-miterlimit:10;}
	.st5{opacity:0.3;fill:#AFAFAF;stroke:#666666;stroke-width:2.54;stroke-miterlimit:10;}
	.st6{fill:none;stroke:#FFFFFF;stroke-width:2;stroke-miterlimit:10;}
</style>
<polygon class="st0" points="484.8,38.3 207,13.5 34.9,32.1 44.7,446.5 12.7,728.3 376.6,755.3 521.7,732.5 531.5,262.1 "/>
<polygon class="st1" points="484.8,38.3 207,13.5 83.5,134.2 44.7,446.5 12.7,728.3 376.6,755.3 451.6,697.7 531.5,262.1 "/>
<polygon class="st2" points="423,138.7 213.3,118.6 83.4,133.7 90.8,468.8 66.7,696.7 341.3,718.5 450.8,700 458.2,319.7 "/>
<polygon class="st3" points="409.6,267.1 262.1,252.7 170.8,263.5 176,503.1 159,666 352.2,681.6 429.2,668.4 434.4,396.5 "/>
<polygon class="st4" points="366.1,411.9 296.3,405.4 253.1,410.3 255.6,518.5 247.5,592.2 338.9,599.2 375.4,593.2 377.9,470.4 "/>
<polygon class="st5" points="484.8,38.3 207,13.5 34.9,32.1 44.7,446.5 12.7,728.3 376.6,755.3 521.7,732.5 531.5,262.1 "/>
<polygon class="st6" points="484.8,38.3 207,13.5 83.5,134.2 44.7,446.5 12.7,728.3 376.6,755.3 451.6,697.7 531.5,262.1 "/>
<polygon class="st6" points="423,138.7 213.3,118.6 83.4,133.7 90.8,468.8 66.7,696.7 341.3,718.5 450.8,700 458.2,319.7 "/>
<polygon class="st6" points="409.6,267.1 262.1,252.7 170.8,263.5 176,503.1 159,666 352.2,681.6 429.2,668.4 434.4,396.5 "/>
<polygon class="st6" points="366.1,411.9 296.3,405.4 253.1,410.3 255.6,518.5 247.5,592.2 338.9,599.2 375.4,593.2 377.9,470.4 "/>
</svg>
