<?xml version="1.0" encoding="utf-8"?>
<!-- Generator: Adobe Illustrator 25.4.1, SVG Export Plug-In . SVG Version: 6.00 Build 0)  -->
<svg version="1.1" id="Ebene_1" xmlns="http://www.w3.org/2000/svg" xmlns:xlink="http://www.w3.org/1999/xlink" x="0px" y="0px"
	 viewBox="0 0 544.2 768.7" style="enable-background:new 0 0 544.2 768.7;" xml:space="preserve">
<style type="text/css">
	.st0{fill:#AFAFAF;stroke:#666666;stroke-width:2.54;stroke-miterlimit:10;}
	.st1{fill:#321400;stroke:#FFFFFF;stroke-width:2;stroke-miterlimit:10;}
	.st2{fill:#603813;stroke:#FFFFFF;stroke-width:2;stroke-miterlimit:10;}
	.st3{fill:#8C6239;stroke:#FFFFFF;stroke-width:2;stroke-miterlimit:10;}
	.st4{fill:#C69C6D;stroke:#FFFFFF;stroke-width:2;stroke-miterlimit:10;}
	.st5{opacity:0.3;fill:#AFAFAF;stroke:#666666;stroke-width:2.54;stroke-miterlimit:10;enable-background:new    ;}
	.st6{fill:none;stroke:#FFFFFF;stroke-width:2;stroke-miterlimit:10;}
	.st7{fill:#57673E;stroke:#FFFFFF;stroke-width:2.54;stroke-miterlimit:10;}
	.st8{fill:#6B785E;stroke:#FFFFFF;stroke-width:2.11;stroke-miterlimit:10;}
	.st9{fill:#949E8B;stroke:#FFFFFF;stroke-width:2.11;stroke-miterlimit:10;}
	.st10{fill:#ABB38D;stroke:#FFFFFF;stroke-width:2.11;stroke-miterlimit:10;}
	.st11{fill:#E5DFCF;stroke:#FFFFFF;stroke-width:2.11;stroke-miterlimit:10;}
</style>
<polygon class="st0" points="484.8,38.3 207,13.5 34.9,32.1 44.7,446.5 12.7,728.3 376.6,755.3 521.7,732.5 531.5,262.1 "/>
<polygon class="st1" points="484.8,38.3 207,13.5 83.5,134.2 44.7,446.5 12.7,728.3 376.6,755.3 451.6,697.7 531.5,262.1 "/>
<polygon class="st2" points="423,138.7 213.3,118.6 83.4,133.7 90.8,468.8 66.7,696.7 341.3,718.5 450.8,700 458.2,319.7 "/>
<polygon class="st3" points="409.6,267.1 262.1,252.7 170.8,263.5 176,503.1 159,666 352.2,681.6 429.2,668.4 434.4,396.5 "/>
<polygon class="st4" points="366.1,411.9 296.3,405.4 253.1,410.3 255.6,518.5 247.5,592.2 338.9,599.2 375.4,593.2 377.9,470.4 "/>
<polygon class="st5" points="484.8,38.3 207,13.5 34.9,32.1 44.7,446.5 12.7,728.3 376.6,755.3 521.7,732.5 531.5,262.1 "/>
<polygon class="st6" points="484.8,38.3 207,13.5 83.5,134.2 44.7,446.5 12.7,728.3 376.6,755.3 451.6,697.7 531.5,262.1 "/>
<polygon class="st6" points="423,138.7 213.3,118.6 83.4,133.7 90.8,468.8 66.7,696.7 341.3,718.5 450.8,700 458.2,319.7 "/>
<polygon class="st6" points="409.6,267.1 262.1,252.7 170.8,263.5 176,503.1 159,666 352.2,681.6 429.2,668.4 434.4,396.5 "/>
<polygon class="st6" points="366.1,411.9 296.3,405.4 253.1,410.3 255.6,518.5 247.5,592.2 338.9,599.2 375.4,593.2 377.9,470.4 "/>
<g>
	
		<image style="overflow:visible;" width="591" height="813" xlink:href="D4AB496193228405.png"  transform="matrix(1 0 0 1 -23.0157 -23.3157)">
	</image>
	<g>
		<g>
			<polygon class="st7" points="485.3,37.2 207.5,12.4 35.4,31 45.2,445.4 13.2,727.2 377.1,754.2 522.2,731.4 532,261 			"/>
			<polygon class="st8" points="485.3,37.2 207.5,12.4 84,133.1 45.2,445.4 13.2,727.2 377.1,754.2 452.1,696.6 532,261 			"/>
			<polygon class="st9" points="423.5,137.6 213.8,117.5 83.9,132.6 91.3,467.7 67.2,695.6 341.8,717.4 451.3,698.9 458.7,318.6 			
				"/>
			<polygon class="st10" points="410.1,266 262.6,251.6 171.3,262.4 176.5,502 159.5,664.9 352.7,680.5 429.7,667.3 434.9,395.4 			
				"/>
			<polygon class="st11" points="366.6,410.8 296.8,404.3 253.6,409.2 256.1,517.4 248,591.1 339.4,598.1 375.9,592.1 378.4,469.3 
							"/>
		</g>
	</g>
</g>
</svg>
