<svg xmlns="http://www.w3.org/2000/svg" viewBox="0 0 544.25 768.73"><defs><style>.cls-1{fill:#afafaf;stroke:#666;stroke-width:2.54px;}.cls-1,.cls-10,.cls-2,.cls-3,.cls-4,.cls-5{stroke-miterlimit:10;}.cls-2{fill:#321400;}.cls-10,.cls-2,.cls-3,.cls-4,.cls-5{stroke:#fff;}.cls-2,.cls-3,.cls-4,.cls-5{stroke-width:2px;}.cls-3{fill:#603813;}.cls-4{fill:#8c6239;}.cls-5{fill:#c69c6d;}.cls-6{fill:#0096dc;}.cls-7{fill:#39b54a;}.cls-8{fill:#f7931e;}.cls-9{fill:#ed1c24;}.cls-10{fill:none;stroke-width:6.22px;}</style></defs><g id="Ebene_2" data-name="Ebene 2"><g id="Isolationsmodus"><polygon class="cls-1" points="484.8 38.33 206.97 13.47 34.86 32.12 44.69 446.52 12.73 728.32 376.62 755.26 521.68 732.47 531.52 262.11 484.8 38.33"/><polygon class="cls-2" points="484.8 38.33 206.97 13.47 83.52 134.19 44.69 446.52 12.73 728.32 376.62 755.26 451.59 697.73 531.52 262.11 484.8 38.33"/><polygon class="cls-3" points="422.99 138.74 213.3 118.64 83.41 133.72 90.83 468.82 66.7 696.69 341.34 718.47 450.82 700.04 458.24 319.7 422.99 138.74"/><polygon class="cls-4" points="409.6 267.07 262.13 252.69 170.77 263.47 175.99 503.08 159.02 666.02 352.18 681.6 429.18 668.42 434.4 396.46 409.6 267.07"/><polygon class="cls-5" points="366.11 411.9 296.32 405.41 253.09 410.28 255.56 518.54 247.54 592.15 338.94 599.19 375.38 593.24 377.85 470.36 366.11 411.9"/><circle class="cls-6" cx="490.37" cy="39.37" r="12.43"/><circle class="cls-7" cx="424.55" cy="138.83" r="12.43"/><circle class="cls-8" cx="401.97" cy="269.37" r="12.43"/><circle class="cls-8" cx="360.87" cy="412.34" r="12.43"/><circle class="cls-7" cx="531.81" cy="256.93" r="12.43"/><circle class="cls-9" cx="451.35" cy="698.28" r="12.43"/><circle class="cls-9" cx="428.56" cy="663.05" r="12.43"/><circle class="cls-9" cx="379.18" cy="592.6" r="12.43"/><circle class="cls-8" cx="381.25" cy="756.3" r="12.43"/><circle class="cls-9" cx="350.17" cy="685.85" r="12.43"/><circle class="cls-8" cx="12.43" cy="729.36" r="12.43"/><circle class="cls-9" cx="68.03" cy="694.13" r="12.43"/><circle class="cls-9" cx="160.58" cy="663.05" r="12.43"/><circle class="cls-9" cx="254.41" cy="592.6" r="12.43"/><circle class="cls-6" cx="216.18" cy="12.43" r="12.43"/><circle class="cls-7" cx="222.39" cy="118.11" r="12.43"/><circle class="cls-8" cx="259.69" cy="252.79" r="12.43"/><circle class="cls-7" cx="87.54" cy="134.68" r="12.43"/><circle class="cls-8" cx="173.01" cy="269.37" r="12.43"/><circle class="cls-8" cx="251.4" cy="414.41" r="12.43"/><circle class="cls-7" cx="39.37" cy="453.78" r="12.43"/><circle class="cls-7" cx="88.75" cy="468.28" r="12.43"/><circle class="cls-8" cx="173.22" cy="509.72" r="12.43"/><circle class="cls-9" cx="254.61" cy="518.01" r="12.43"/><circle class="cls-7" cx="459.64" cy="314.95" r="12.43"/><circle class="cls-8" cx="428.9" cy="389.54" r="12.43"/><circle class="cls-8" cx="383.32" cy="478.64" r="12.43"/><circle class="cls-10" cx="173.22" cy="509.72" r="24.86"/></g></g></svg>