<?xml version="1.0" encoding="utf-8"?>
<!-- Generator: Adobe Illustrator 25.4.1, SVG Export Plug-In . SVG Version: 6.00 Build 0)  -->
<svg version="1.1" id="Ebene_1" xmlns="http://www.w3.org/2000/svg" xmlns:xlink="http://www.w3.org/1999/xlink" x="0px" y="0px"
	 viewBox="0 0 1920 892" style="enable-background:new 0 0 1920 892;" xml:space="preserve">
<style type="text/css">
	.st0{clip-path:url(#SVGID_00000098205753567203609260000015030611656148051349_);}
	.st1{fill:#42210B;}
	.st2{fill:#603813;stroke:#754C24;stroke-width:10;stroke-linecap:round;stroke-linejoin:round;}
	.st3{fill:#42210B;stroke:#754C24;stroke-width:10;stroke-linecap:round;stroke-linejoin:round;}
	.st4{fill:#321400;}
	.st5{fill:#42210B;stroke:#603813;stroke-width:10;stroke-linecap:round;stroke-linejoin:round;}
	.st6{fill:#321400;stroke:#603813;stroke-width:10;stroke-linecap:round;stroke-linejoin:round;}
	.st7{fill:#603813;}
	.st8{clip-path:url(#SVGID_00000183964132957174217070000017097725242105616547_);fill:#603813;}
	.st9{clip-path:url(#SVGID_00000139977191913013505320000003666418078830220988_);}
</style>
<g id="Ebene_2_00000085225647771707822620000000403736227550947238_">
	<g id="Soil_Moisture">
		<g>
			<g>
				<defs>
					<rect id="SVGID_1_" y="-158" width="1920" height="1050"/>
				</defs>
				<clipPath id="SVGID_00000170253636509645360000000011582595211105886088_">
					<use xlink:href="#SVGID_1_"  style="overflow:visible;"/>
				</clipPath>
				<g style="clip-path:url(#SVGID_00000170253636509645360000000011582595211105886088_);">
					<rect x="766" y="320" class="st1" width="1924" height="430"/>
					<path class="st2" d="M1922,320c0,0,61.9,39,194.7,39s189.3-39,189.3-39"/>
					<path class="st2" d="M1154,320c0,0,61.9,39,194.7,39s189.3-39,189.3-39"/>
					<path class="st3" d="M2306,320c0,0,56.4-39,189.3-39s194.7,39,194.7,39"/>
					<path class="st3" d="M1538,320c0,0,56.4-39,189.3-39s194.7,39,194.7,39"/>
					<path class="st3" d="M770,320c0,0,56.4-39,189.3-39s194.7,39,194.7,39"/>
					<rect x="770" y="399" class="st1" width="1920" height="268"/>
					<rect x="-770" y="320" class="st1" width="1924" height="430"/>
					<path class="st2" d="M386,320c0,0,61.9,39,194.7,39S770,320,770,320"/>
					<path class="st2" d="M-382,320c0,0,61.9,39,194.7,39S2,320,2,320"/>
					<path class="st3" d="M770,320c0,0,56.4-39,189.3-39s194.7,39,194.7,39"/>
					<path class="st3" d="M2,320c0,0,56.4-39,189.3-39S386,320,386,320"/>
					<path class="st3" d="M-766,320c0,0,56.4-39,189.3-39S-382,320-382,320"/>
					<rect x="-766" y="399" class="st1" width="1920" height="268"/>
					<rect x="-772" y="607" class="st4" width="1924" height="315"/>
					<path class="st5" d="M384,607c0,0,61.9,39,194.7,39S768,607,768,607"/>
					<path class="st5" d="M-384,607c0,0,61.9,39,194.7,39S0,607,0,607"/>
					<path class="st6" d="M768,607c0,0,56.4-39,189.3-39s194.7,39,194.7,39"/>
					<path class="st6" d="M0,607c0,0,56.4-39,189.3-39S384,607,384,607"/>
					<path class="st6" d="M-768,607c0,0,56.4-39,189.3-39S-384,607-384,607"/>
					<rect x="768" y="607" class="st4" width="1924" height="315"/>
					<path class="st5" d="M1924,607c0,0,61.9,39,194.7,39s189.3-39,189.3-39"/>
					<path class="st5" d="M1156,607c0,0,61.9,39,194.7,39s189.3-39,189.3-39"/>
					<path class="st6" d="M2308,607c0,0,56.4-39,189.3-39s194.7,39,194.7,39"/>
					<path class="st6" d="M1540,607c0,0,56.4-39,189.3-39s194.7,39,194.7,39"/>
					<path class="st6" d="M772,607c0,0,56.4-39,189.3-39s194.7,39,194.7,39"/>
					<ellipse transform="matrix(0.866 -0.5 0.5 0.866 209.1975 925.7103)" class="st1" cx="1832" cy="72.5" rx="20.6" ry="9.4"/>
					<ellipse transform="matrix(0.866 -0.5 0.5 0.866 67.6659 521.5174)" class="st1" cx="1007" cy="134.5" rx="11" ry="5"/>
					<ellipse transform="matrix(0.866 -0.5 0.5 0.866 99.0754 798.7344)" class="st1" cx="1540" cy="214.5" rx="19.7" ry="9"/>
					<ellipse class="st1" cx="1152" cy="80.5" rx="11" ry="5"/>
					
						<ellipse transform="matrix(3.908678e-02 -0.9992 0.9992 3.908678e-02 640.5926 1109.1414)" class="st1" cx="897" cy="221.5" rx="8.9" ry="19.4"/>
					
						<ellipse transform="matrix(0.3348 -0.9423 0.9423 0.3348 913.6401 1395.2203)" class="st1" cx="1445" cy="50.5" rx="5" ry="11"/>
					
						<ellipse transform="matrix(0.3348 -0.9423 0.9423 0.3348 630.9439 1474.7655)" class="st1" cx="1360" cy="290.5" rx="5" ry="11"/>
					<ellipse transform="matrix(0.3348 -0.9423 0.9423 0.3348 498.2242 866.7507)" class="st1" cx="863" cy="80.5" rx="5" ry="11"/>
					
						<ellipse transform="matrix(0.9991 -4.205068e-02 4.205068e-02 0.9991 -6.1938 76.7373)" class="st1" cx="1821" cy="185.6" rx="11" ry="5"/>
					
						<ellipse transform="matrix(0.3348 -0.9423 0.9423 0.3348 963.8685 1550.3595)" class="st1" cx="1580" cy="92.5" rx="5" ry="11"/>
					
						<ellipse transform="matrix(0.3348 -0.9423 0.9423 0.3348 599.8375 1304.7102)" class="st1" cx="1224" cy="227.5" rx="5" ry="11"/>
					
						<ellipse transform="matrix(0.3348 -0.9423 0.9423 0.3348 379.8143 867.0297)" class="st1" cx="804" cy="164.5" rx="5" ry="11"/>
					<ellipse transform="matrix(0.866 -0.5 0.5 0.866 -155.0801 472.2016)" class="st4" cx="803.6" cy="525.5" rx="20.6" ry="9.4"/>
					<ellipse transform="matrix(0.866 -0.5 0.5 0.866 -12.1452 989.6274)" class="st4" cx="1840.6" cy="517.5" rx="11" ry="5"/>
					<ellipse transform="matrix(0.866 -0.5 0.5 0.866 -56.0791 557.6757)" class="st4" cx="1012.6" cy="383.5" rx="19.7" ry="9"/>
					<ellipse class="st4" cx="1482.6" cy="441.5" rx="11" ry="5"/>
					
						<ellipse transform="matrix(3.908678e-02 -0.9992 0.9992 3.908678e-02 1239.7798 2028.4164)" class="st4" cx="1674.5" cy="369.6" rx="8.9" ry="19.4"/>
					
						<ellipse transform="matrix(0.3348 -0.9423 0.9423 0.3348 284.3459 1375.7728)" class="st4" cx="1116.6" cy="486.5" rx="5" ry="11"/>
					
						<ellipse transform="matrix(0.3348 -0.9423 0.9423 0.3348 275.1645 1558.7455)" class="st4" cx="1241.6" cy="584.5" rx="5" ry="11"/>
					
						<ellipse transform="matrix(0.3348 -0.9423 0.9423 0.3348 636.3098 1936.3263)" class="st4" cx="1689.6" cy="517.5" rx="5" ry="11"/>
					
						<ellipse transform="matrix(0.9991 -4.205068e-02 4.205068e-02 0.9991 -16.625 34.6188)" class="st4" cx="814.6" cy="412.5" rx="11" ry="5"/>
					
						<ellipse transform="matrix(0.3348 -0.9423 0.9423 0.3348 170.6531 1252.7133)" class="st4" cx="972.6" cy="505.5" rx="5" ry="11"/>
					
						<ellipse transform="matrix(0.3348 -0.9423 0.9423 0.3348 444.556 1454.6917)" class="st4" cx="1252.6" cy="412.5" rx="5" ry="11"/>
					
						<ellipse transform="matrix(0.3348 -0.9423 0.9423 0.3348 799.7689 1957.8843)" class="st4" cx="1786.6" cy="412.5" rx="5" ry="11"/>
					<ellipse transform="matrix(0.5 -0.866 0.866 0.5 201.1282 1993.4603)" class="st7" cx="1827" cy="822.5" rx="9.4" ry="20.6"/>
					<ellipse transform="matrix(0.5 -0.866 0.866 0.5 -355.2708 1127.6855)" class="st7" cx="799" cy="871.5" rx="5" ry="11"/>
					<ellipse transform="matrix(0.5 -0.866 0.866 0.5 178.1127 1669.5878)" class="st7" cx="1535" cy="680.5" rx="9" ry="19.7"/>
					<ellipse class="st7" cx="1065" cy="738.5" rx="11" ry="5"/>
					
						<ellipse transform="matrix(0.9992 -3.908682e-02 3.908682e-02 0.9992 -24.6806 36.5721)" class="st7" cx="923" cy="649.5" rx="19.4" ry="8.9"/>
					
						<ellipse transform="matrix(0.9423 -0.3348 0.3348 0.9423 -223.8037 412.6311)" class="st7" cx="1085" cy="855.5" rx="11" ry="5"/>
					
						<ellipse transform="matrix(0.9423 -0.3348 0.3348 0.9423 -195.2225 550.4304)" class="st7" cx="1499" cy="841.5" rx="11" ry="5"/>
					
						<ellipse transform="matrix(0.9423 -0.3348 0.3348 0.9423 -221.0995 346.318)" class="st7" cx="894" cy="814.5" rx="11" ry="5"/>
					
						<ellipse transform="matrix(4.205075e-02 -0.9991 0.9991 4.205075e-02 1030.6948 2494.0266)" class="st7" cx="1815.9" cy="709.5" rx="5" ry="11"/>
					
						<ellipse transform="matrix(0.9423 -0.3348 0.3348 0.9423 -167.9789 588.4832)" class="st7" cx="1623" cy="781.5" rx="11" ry="5"/>
					
						<ellipse transform="matrix(0.9423 -0.3348 0.3348 0.9423 -160.1702 455.7881)" class="st7" cx="1242" cy="692.5" rx="11" ry="5"/>
					
						<ellipse transform="matrix(0.9423 -0.3348 0.3348 0.9423 -192.3748 318.9579)" class="st7" cx="829" cy="717.5" rx="11" ry="5"/>
				</g>
			</g>
		</g>
		<g>
			<g>
				<defs>
					<rect id="SVGID_00000038398948681823668910000015156386274927255991_" y="-158" width="1920" height="1050"/>
				</defs>
				<clipPath id="SVGID_00000017502245451910292860000017881702404338676102_">
					<use xlink:href="#SVGID_00000038398948681823668910000015156386274927255991_"  style="overflow:visible;"/>
				</clipPath>
				
					<rect style="clip-path:url(#SVGID_00000017502245451910292860000017881702404338676102_);fill:#603813;" width="1920" height="361.6"/>
			</g>
			<g>
				<defs>
					<rect id="SVGID_00000127739046421139151560000006448885847676930710_" y="-158" width="1920" height="1050"/>
				</defs>
				<clipPath id="SVGID_00000109741066376559632900000002392950152332076193_">
					<use xlink:href="#SVGID_00000127739046421139151560000006448885847676930710_"  style="overflow:visible;"/>
				</clipPath>
				<g style="clip-path:url(#SVGID_00000109741066376559632900000002392950152332076193_);">
					<rect x="766" y="320" class="st1" width="1924" height="430"/>
					<rect x="-770" y="320" class="st1" width="1924" height="430"/>
					<g>
						<rect x="770" y="399" class="st1" width="1920" height="268"/>
						<rect x="-766" y="399" class="st1" width="1920" height="268"/>
					</g>
					<g>
						<rect x="-772" y="607" class="st4" width="1924" height="315"/>
						<rect x="768" y="607" class="st4" width="1924" height="315"/>
					</g>
					<g>
						<path class="st2" d="M1922,320c0,0,61.9,39,194.7,39s189.3-39,189.3-39"/>
						<path class="st2" d="M1152,319c0,0,63.9,40,196.7,40s191.3-40,191.3-40"/>
						<path class="st3" d="M2306,320c0,0,56.4-39,189.3-39s194.7,39,194.7,39"/>
						<path class="st3" d="M1538,320c0,0,56.4-39,189.3-39s194.7,39,194.7,39"/>
						<path class="st3" d="M770,320c0,0,56.4-39,189.3-39s194.7,39,194.7,39"/>
						<path class="st2" d="M384,319c0,0,63.9,40,196.7,40S772,319,772,319"/>
						<path class="st2" d="M-382,320c0,0,61.9,39,194.7,39S2,320,2,320"/>
						<path class="st3" d="M770,320c0,0,56.4-39,189.3-39s194.7,39,194.7,39"/>
						<path class="st3" d="M2,320c0,0,56.4-39,189.3-39S386,320,386,320"/>
						<path class="st3" d="M-766,320c0,0,56.4-39,189.3-39S-382,320-382,320"/>
						<path class="st5" d="M384,607c0,0,61.9,39,194.7,39S768,607,768,607"/>
						<path class="st5" d="M-384,607c0,0,61.9,39,194.7,39S0,607,0,607"/>
						<path class="st6" d="M768,607c0,0,56.4-39,189.3-39s194.7,39,194.7,39"/>
						<path class="st6" d="M0,607c0,0,56.4-39,189.3-39S384,607,384,607"/>
						<path class="st6" d="M-768,607c0,0,56.4-39,189.3-39S-384,607-384,607"/>
						<path class="st5" d="M1924,607c0,0,61.9,39,194.7,39s189.3-39,189.3-39"/>
						<path class="st5" d="M1156,607c0,0,61.9,39,194.7,39s189.3-39,189.3-39"/>
						<path class="st6" d="M2308,607c0,0,56.4-39,189.3-39s194.7,39,194.7,39"/>
						<path class="st6" d="M1540,607c0,0,56.4-39,189.3-39s194.7,39,194.7,39"/>
						<path class="st6" d="M772,607c0,0,56.4-39,189.3-39s194.7,39,194.7,39"/>
					</g>
					<g>
						<g>
							<ellipse transform="matrix(0.866 -0.5 0.5 0.866 209.1975 925.7103)" class="st1" cx="1832" cy="72.5" rx="20.6" ry="9.4"/>
							<ellipse transform="matrix(0.866 -0.5 0.5 0.866 67.6659 521.5174)" class="st1" cx="1007" cy="134.5" rx="11" ry="5"/>
							<ellipse transform="matrix(0.866 -0.5 0.5 0.866 99.0754 798.7344)" class="st1" cx="1540" cy="214.5" rx="19.7" ry="9"/>
							<ellipse class="st1" cx="1152" cy="80.5" rx="11" ry="5"/>
							
								<ellipse transform="matrix(3.908678e-02 -0.9992 0.9992 3.908678e-02 640.5926 1109.1414)" class="st1" cx="897" cy="221.5" rx="8.9" ry="19.4"/>
							
								<ellipse transform="matrix(0.3348 -0.9423 0.9423 0.3348 913.6401 1395.2203)" class="st1" cx="1445" cy="50.5" rx="5" ry="11"/>
							
								<ellipse transform="matrix(0.3348 -0.9423 0.9423 0.3348 630.9439 1474.7655)" class="st1" cx="1360" cy="290.5" rx="5" ry="11"/>
							
								<ellipse transform="matrix(0.3348 -0.9423 0.9423 0.3348 498.2242 866.7507)" class="st1" cx="863" cy="80.5" rx="5" ry="11"/>
							
								<ellipse transform="matrix(0.9991 -4.205068e-02 4.205068e-02 0.9991 -6.1938 76.7373)" class="st1" cx="1821" cy="185.6" rx="11" ry="5"/>
							
								<ellipse transform="matrix(0.3348 -0.9423 0.9423 0.3348 963.8685 1550.3595)" class="st1" cx="1580" cy="92.5" rx="5" ry="11"/>
							
								<ellipse transform="matrix(0.3348 -0.9423 0.9423 0.3348 599.8375 1304.7102)" class="st1" cx="1224" cy="227.5" rx="5" ry="11"/>
							
								<ellipse transform="matrix(0.3348 -0.9423 0.9423 0.3348 379.8143 867.0297)" class="st1" cx="804" cy="164.5" rx="5" ry="11"/>
							
								<ellipse transform="matrix(0.866 -0.5 0.5 0.866 -155.0801 472.2016)" class="st4" cx="803.6" cy="525.5" rx="20.6" ry="9.4"/>
							<ellipse transform="matrix(0.866 -0.5 0.5 0.866 -12.1452 989.6274)" class="st4" cx="1840.6" cy="517.5" rx="11" ry="5"/>
							<ellipse transform="matrix(0.866 -0.5 0.5 0.866 -56.0791 557.6757)" class="st4" cx="1012.6" cy="383.5" rx="19.7" ry="9"/>
							<ellipse class="st4" cx="1482.6" cy="441.5" rx="11" ry="5"/>
							
								<ellipse transform="matrix(3.908678e-02 -0.9992 0.9992 3.908678e-02 1239.7798 2028.4164)" class="st4" cx="1674.5" cy="369.6" rx="8.9" ry="19.4"/>
							
								<ellipse transform="matrix(0.3348 -0.9423 0.9423 0.3348 276.1501 1452.1591)" class="st4" cx="1166.6" cy="530.5" rx="5" ry="11"/>
							
								<ellipse transform="matrix(0.3348 -0.9423 0.9423 0.3348 385.0861 1660.4645)" class="st4" cx="1368.6" cy="557.5" rx="5" ry="11"/>
							
								<ellipse transform="matrix(0.3348 -0.9423 0.9423 0.3348 636.3098 1936.3263)" class="st4" cx="1689.6" cy="517.5" rx="5" ry="11"/>
							
								<ellipse transform="matrix(0.9991 -4.205068e-02 4.205068e-02 0.9991 -16.625 34.6188)" class="st4" cx="814.6" cy="412.5" rx="11" ry="5"/>
							
								<ellipse transform="matrix(0.3348 -0.9423 0.9423 0.3348 170.6531 1252.7133)" class="st4" cx="972.6" cy="505.5" rx="5" ry="11"/>
							
								<ellipse transform="matrix(0.3348 -0.9423 0.9423 0.3348 444.556 1454.6917)" class="st4" cx="1252.6" cy="412.5" rx="5" ry="11"/>
							
								<ellipse transform="matrix(0.3348 -0.9423 0.9423 0.3348 799.7689 1957.8843)" class="st4" cx="1786.6" cy="412.5" rx="5" ry="11"/>
							
								<ellipse transform="matrix(0.5 -0.866 0.866 0.5 201.1282 1993.4603)" class="st7" cx="1827" cy="822.5" rx="9.4" ry="20.6"/>
							<ellipse transform="matrix(0.5 -0.866 0.866 0.5 -355.2708 1127.6855)" class="st7" cx="799" cy="871.5" rx="5" ry="11"/>
							<ellipse transform="matrix(0.5 -0.866 0.866 0.5 178.1127 1669.5878)" class="st7" cx="1535" cy="680.5" rx="9" ry="19.7"/>
							<ellipse class="st7" cx="1065" cy="738.5" rx="11" ry="5"/>
							
								<ellipse transform="matrix(0.9992 -3.908682e-02 3.908682e-02 0.9992 -24.6806 36.5721)" class="st7" cx="923" cy="649.5" rx="19.4" ry="8.9"/>
							
								<ellipse transform="matrix(0.9423 -0.3348 0.3348 0.9423 -223.8037 412.6311)" class="st7" cx="1085" cy="855.5" rx="11" ry="5"/>
							
								<ellipse transform="matrix(0.9423 -0.3348 0.3348 0.9423 -195.2225 550.4304)" class="st7" cx="1499" cy="841.5" rx="11" ry="5"/>
							
								<ellipse transform="matrix(0.9423 -0.3348 0.3348 0.9423 -221.0995 346.318)" class="st7" cx="894" cy="814.5" rx="11" ry="5"/>
							
								<ellipse transform="matrix(4.205075e-02 -0.9991 0.9991 4.205075e-02 1030.6948 2494.0266)" class="st7" cx="1815.9" cy="709.5" rx="5" ry="11"/>
							
								<ellipse transform="matrix(0.9423 -0.3348 0.3348 0.9423 -167.9789 588.4832)" class="st7" cx="1623" cy="781.5" rx="11" ry="5"/>
							
								<ellipse transform="matrix(0.9423 -0.3348 0.3348 0.9423 -160.1702 455.7881)" class="st7" cx="1242" cy="692.5" rx="11" ry="5"/>
							
								<ellipse transform="matrix(0.9423 -0.3348 0.3348 0.9423 -192.3748 318.9579)" class="st7" cx="829" cy="717.5" rx="11" ry="5"/>
						</g>
						<g>
							
								<ellipse transform="matrix(0.866 -0.5 0.5 0.866 -473.1138 -64.6521)" class="st7" cx="-357.2" cy="850.5" rx="20.6" ry="9.4"/>
							<ellipse transform="matrix(0.866 -0.5 0.5 0.866 -331.5822 339.5409)" class="st7" cx="467.8" cy="788.5" rx="11" ry="5"/>
							<ellipse transform="matrix(0.866 -0.5 0.5 0.866 -362.9917 62.3238)" class="st7" cx="-65.2" cy="708.5" rx="19.7" ry="9"/>
							<ellipse class="st7" cx="322.8" cy="842.5" rx="11" ry="5"/>
							
								<ellipse transform="matrix(3.908678e-02 -0.9992 0.9992 3.908678e-02 -145.851 1251.5187)" class="st7" cx="577.8" cy="701.6" rx="8.9" ry="19.4"/>
							
								<ellipse transform="matrix(0.3348 -0.9423 0.9423 0.3348 -802.3462 608.4877)" class="st7" cx="29.8" cy="872.5" rx="5" ry="11"/>
							
								<ellipse transform="matrix(0.3348 -0.9423 0.9423 0.3348 -519.6499 528.9423)" class="st7" cx="114.8" cy="632.5" rx="5" ry="11"/>
							
								<ellipse transform="matrix(0.3348 -0.9423 0.9423 0.3348 -386.9303 1136.9573)" class="st7" cx="611.8" cy="842.5" rx="5" ry="11"/>
							
								<ellipse transform="matrix(0.9991 -4.205068e-02 4.205068e-02 0.9991 -31.314 -13.9056)" class="st7" cx="-346.2" cy="737.4" rx="11" ry="5"/>
							
								<ellipse transform="matrix(0.3348 -0.9423 0.9423 0.3348 -852.5746 453.3485)" class="st7" cx="-105.2" cy="830.5" rx="5" ry="11"/>
							
								<ellipse transform="matrix(0.3348 -0.9423 0.9423 0.3348 -488.5436 698.9977)" class="st7" cx="250.8" cy="695.5" rx="5" ry="11"/>
							
								<ellipse transform="matrix(0.3348 -0.9423 0.9423 0.3348 -268.5204 1136.6782)" class="st7" cx="670.8" cy="758.5" rx="5" ry="11"/>
							
								<ellipse transform="matrix(0.866 -0.5 0.5 0.866 -108.8363 388.8566)" class="st4" cx="671.2" cy="397.5" rx="20.6" ry="9.4"/>
							<ellipse transform="matrix(0.866 -0.5 0.5 0.866 -251.7711 -128.5692)" class="st4" cx="-365.8" cy="405.5" rx="11" ry="5"/>
							<ellipse transform="matrix(0.866 -0.5 0.5 0.866 -207.8368 303.3829)" class="st4" cx="462.2" cy="539.5" rx="19.7" ry="9"/>
							<ellipse class="st4" cx="-7.8" cy="481.5" rx="11" ry="5"/>
							
								<ellipse transform="matrix(3.908678e-02 -0.9992 0.9992 3.908678e-02 -745.0381 332.2436)" class="st4" cx="-199.8" cy="553.5" rx="8.9" ry="19.4"/>
							
								<ellipse transform="matrix(0.3348 -0.9423 0.9423 0.3348 -164.8563 551.5488)" class="st4" cx="308.2" cy="392.5" rx="5" ry="11"/>
							
								<ellipse transform="matrix(0.3348 -0.9423 0.9423 0.3348 -273.7922 343.2436)" class="st4" cx="106.2" cy="365.5" rx="5" ry="11"/>
							
								<ellipse transform="matrix(0.3348 -0.9423 0.9423 0.3348 -525.0159 67.3817)" class="st4" cx="-214.8" cy="405.5" rx="5" ry="11"/>
							
								<ellipse transform="matrix(0.9991 -4.205068e-02 4.205068e-02 0.9991 -20.8824 28.2172)" class="st4" cx="660.3" cy="510.5" rx="11" ry="5"/>
							
								<ellipse transform="matrix(0.3348 -0.9423 0.9423 0.3348 -59.3592 750.9947)" class="st4" cx="502.2" cy="417.5" rx="5" ry="11"/>
							
								<ellipse transform="matrix(0.3348 -0.9423 0.9423 0.3348 -333.2621 549.0163)" class="st4" cx="222.2" cy="510.5" rx="5" ry="11"/>
							
								<ellipse transform="matrix(0.3348 -0.9423 0.9423 0.3348 -688.475 45.8236)" class="st4" cx="-311.8" cy="510.5" rx="5" ry="11"/>
							
								<ellipse transform="matrix(0.5 -0.866 0.866 0.5 -263.1511 -254.7539)" class="st1" cx="-352.2" cy="100.5" rx="9.4" ry="20.6"/>
							<ellipse transform="matrix(0.5 -0.866 0.866 0.5 293.2481 611.0209)" class="st1" cx="675.8" cy="51.5" rx="5" ry="11"/>
							<ellipse transform="matrix(0.5 -0.866 0.866 0.5 -240.1355 69.1186)" class="st1" cx="-60.2" cy="242.5" rx="9" ry="19.7"/>
							<ellipse class="st1" cx="409.8" cy="184.5" rx="11" ry="5"/>
							
								<ellipse transform="matrix(0.9992 -3.908682e-02 3.908682e-02 0.9992 -10.2683 21.7763)" class="st1" cx="551.8" cy="273.5" rx="19.4" ry="8.9"/>
							
								<ellipse transform="matrix(0.9423 -0.3348 0.3348 0.9423 -0.1054 134.3981)" class="st1" cx="389.8" cy="67.5" rx="11" ry="5"/>
							
								<ellipse transform="matrix(0.9423 -0.3348 0.3348 0.9423 -28.6866 -3.4012)" class="st1" cx="-24.2" cy="81.5" rx="11" ry="5"/>
							
								<ellipse transform="matrix(0.9423 -0.3348 0.3348 0.9423 -2.8095 200.7112)" class="st1" cx="580.8" cy="108.5" rx="11" ry="5"/>
							
								<ellipse transform="matrix(4.205075e-02 -0.9991 0.9991 4.205075e-02 -540.0737 -136.1864)" class="st1" cx="-341.1" cy="213.5" rx="5" ry="11"/>
							
								<ellipse transform="matrix(0.9423 -0.3348 0.3348 0.9423 -55.9302 -41.454)" class="st1" cx="-148.2" cy="141.5" rx="11" ry="5"/>
							
								<ellipse transform="matrix(0.9423 -0.3348 0.3348 0.9423 -63.7389 91.2411)" class="st1" cx="232.8" cy="230.5" rx="11" ry="5"/>
							
								<ellipse transform="matrix(0.9423 -0.3348 0.3348 0.9423 -31.5342 228.0714)" class="st1" cx="645.8" cy="205.5" rx="11" ry="5"/>
						</g>
					</g>
				</g>
			</g>
		</g>
	</g>
</g>
</svg>
