<svg xmlns="http://www.w3.org/2000/svg" xmlns:xlink="http://www.w3.org/1999/xlink" viewBox="0 0 3470 922"><defs><style>.cls-1{fill:none;}.cls-2,.cls-5{fill:#603813;}.cls-3{clip-path:url(#clip-path);}.cls-4,.cls-6,.cls-8{fill:#42210b;}.cls-5,.cls-6{stroke:#754c24;}.cls-5,.cls-6,.cls-8,.cls-9{stroke-linecap:round;stroke-linejoin:round;stroke-width:10px;}.cls-7,.cls-9{fill:#321400;}.cls-8,.cls-9{stroke:#603813;}</style><clipPath id="clip-path" transform="translate(773 -158)"><rect class="cls-1" width="1920" height="1050" transform="translate(1920 1050) rotate(-180)"/></clipPath></defs><g id="Ebene_2" data-name="Ebene 2"><g id="Soil_Moisture" data-name="Soil Moisture"><rect class="cls-2" y="158" width="1920" height="340" transform="translate(2693 498) rotate(-180)"/><g class="cls-3"><rect class="cls-4" x="766" y="478" width="1924" height="430" transform="translate(4229 1228) rotate(-180)"/><path class="cls-5" d="M1922,478s61.87,39,194.72,39S2306,478,2306,478" transform="translate(773 -158)"/><path class="cls-5" d="M1154,478s61.88,39,194.73,39S1538,478,1538,478" transform="translate(773 -158)"/><path class="cls-6" d="M2306,478s56.42-39,189.27-39S2690,478,2690,478" transform="translate(773 -158)"/><path class="cls-6" d="M1538,478s56.41-39,189.26-39S1922,478,1922,478" transform="translate(773 -158)"/><path class="cls-6" d="M770,478s56.42-39,189.27-39S1154,478,1154,478" transform="translate(773 -158)"/><rect class="cls-4" x="770" y="557" width="1920" height="268" transform="translate(4233 1224) rotate(-180)"/><rect class="cls-4" x="-770" y="478" width="1924" height="430" transform="translate(1157 1228) rotate(-180)"/><path class="cls-5" d="M386,478s61.87,39,194.72,39S770,478,770,478" transform="translate(773 -158)"/><path class="cls-5" d="M-382,478s61.88,39,194.73,39S2,478,2,478" transform="translate(773 -158)"/><path class="cls-6" d="M770,478s56.42-39,189.27-39S1154,478,1154,478" transform="translate(773 -158)"/><path class="cls-6" d="M2,478s56.41-39,189.26-39S386,478,386,478" transform="translate(773 -158)"/><path class="cls-6" d="M-766,478s56.42-39,189.27-39S-382,478-382,478" transform="translate(773 -158)"/><rect class="cls-4" x="-766" y="557" width="1920" height="268" transform="translate(1161 1224) rotate(-180)"/><rect class="cls-7" x="-772" y="765" width="1924" height="315" transform="translate(1153 1687) rotate(-180)"/><path class="cls-8" d="M384,765s61.87,39,194.72,39S768,765,768,765" transform="translate(773 -158)"/><path class="cls-8" d="M-384,765s61.88,39,194.73,39S0,765,0,765" transform="translate(773 -158)"/><path class="cls-9" d="M768,765s56.42-39,189.27-39S1152,765,1152,765" transform="translate(773 -158)"/><path class="cls-9" d="M0,765s56.41-39,189.26-39S384,765,384,765" transform="translate(773 -158)"/><path class="cls-9" d="M-768,765s56.42-39,189.27-39S-384,765-384,765" transform="translate(773 -158)"/><rect class="cls-7" x="768" y="765" width="1924" height="315" transform="translate(4233 1687) rotate(-180)"/><path class="cls-8" d="M1924,765s61.87,39,194.72,39S2308,765,2308,765" transform="translate(773 -158)"/><path class="cls-8" d="M1156,765s61.88,39,194.73,39S1540,765,1540,765" transform="translate(773 -158)"/><path class="cls-9" d="M2308,765s56.42-39,189.27-39S2692,765,2692,765" transform="translate(773 -158)"/><path class="cls-9" d="M1540,765s56.41-39,189.26-39S1924,765,1924,765" transform="translate(773 -158)"/><path class="cls-9" d="M772,765s56.42-39,189.27-39S1156,765,1156,765" transform="translate(773 -158)"/><ellipse class="cls-4" cx="1832" cy="230.5" rx="20.6" ry="9.4" transform="translate(903.19 788.88) rotate(-30)"/><ellipse class="cls-4" cx="1007" cy="292.5" rx="11.02" ry="5.03" transform="translate(761.66 384.69) rotate(-30)"/><ellipse class="cls-4" cx="1540" cy="372.5" rx="19.73" ry="9.01" transform="translate(793.07 661.91) rotate(-30)"/><ellipse class="cls-4" cx="1925" cy="80.5" rx="11.02" ry="5.03"/><ellipse class="cls-4" cx="897" cy="379.5" rx="8.86" ry="19.41" transform="translate(1255.71 1102.97) rotate(-87.76)"/><ellipse class="cls-4" cx="1445" cy="208.5" rx="5.03" ry="11.02" transform="translate(1537.77 1342.31) rotate(-70.44)"/><ellipse class="cls-4" cx="1360" cy="448.5" rx="5.03" ry="11.02" transform="translate(1255.07 1421.87) rotate(-70.44)"/><ellipse class="cls-4" cx="863" cy="238.5" rx="5.03" ry="11.02" transform="translate(1122.34 813.85) rotate(-70.44)"/><ellipse class="cls-4" cx="1821" cy="343.5" rx="11.02" ry="5.03" transform="translate(760.16 -81.05) rotate(-2.41)"/><ellipse class="cls-4" cx="1580" cy="250.5" rx="5.03" ry="11.02" transform="translate(1587.99 1497.46) rotate(-70.44)"/><ellipse class="cls-4" cx="1224" cy="385.5" rx="5.03" ry="11.02" transform="translate(1223.97 1251.81) rotate(-70.44)"/><ellipse class="cls-4" cx="804" cy="322.5" rx="5.03" ry="11.02" transform="translate(1003.94 814.14) rotate(-70.44)"/><ellipse class="cls-7" cx="803.58" cy="683.5" rx="20.6" ry="9.4" transform="translate(538.91 335.36) rotate(-30)"/><ellipse class="cls-7" cx="1840.58" cy="675.5" rx="11.02" ry="5.03" transform="translate(681.84 852.79) rotate(-30)"/><ellipse class="cls-7" cx="1012.58" cy="541.5" rx="19.73" ry="9.01" transform="translate(637.91 420.84) rotate(-30)"/><ellipse class="cls-7" cx="2255.58" cy="441.5" rx="11.02" ry="5.03"/><ellipse class="cls-7" cx="1674.58" cy="527.5" rx="8.86" ry="19.41" transform="translate(1855 2022.17) rotate(-87.76)"/><ellipse class="cls-7" cx="1116.58" cy="644.5" rx="5.03" ry="11.02" transform="translate(908.46 1322.88) rotate(-70.44)"/><ellipse class="cls-7" cx="1241.58" cy="742.5" rx="5.03" ry="11.02" transform="translate(899.26 1505.85) rotate(-70.44)"/><ellipse class="cls-7" cx="1689.58" cy="675.5" rx="5.03" ry="11.02" transform="translate(1260.41 1883.43) rotate(-70.44)"/><ellipse class="cls-7" cx="814.58" cy="570.5" rx="11.02" ry="5.03" transform="translate(749.71 -123.21) rotate(-2.41)"/><ellipse class="cls-7" cx="972.58" cy="663.5" rx="5.03" ry="11.02" transform="translate(794.76 1199.83) rotate(-70.44)"/><ellipse class="cls-7" cx="1252.58" cy="570.5" rx="5.03" ry="11.02" transform="translate(1068.65 1401.8) rotate(-70.44)"/><ellipse class="cls-7" cx="1786.58" cy="570.5" rx="5.03" ry="11.02" transform="translate(1423.88 1904.99) rotate(-70.44)"/><ellipse class="cls-2" cx="1827" cy="980.5" rx="9.4" ry="20.6" transform="translate(837.36 1914.48) rotate(-60)"/><ellipse class="cls-2" cx="799" cy="1029.5" rx="5.03" ry="11.02" transform="translate(280.93 1048.7) rotate(-60)"/><ellipse class="cls-2" cx="1535" cy="838.5" rx="9.01" ry="19.73" transform="translate(814.34 1590.6) rotate(-60)"/><ellipse class="cls-2" cx="1838" cy="738.5" rx="11.02" ry="5.03"/><ellipse class="cls-2" cx="923" cy="807.5" rx="19.41" ry="8.86" transform="translate(742.13 -121.29) rotate(-2.24)"/><ellipse class="cls-2" cx="1085" cy="1013.5" rx="11.02" ry="5.03" transform="translate(496.31 263.73) rotate(-19.56)"/><ellipse class="cls-2" cx="1499" cy="999.5" rx="11.02" ry="5.03" transform="translate(524.88 401.52) rotate(-19.56)"/><ellipse class="cls-2" cx="894" cy="972.5" rx="11.02" ry="5.03" transform="translate(499.01 197.42) rotate(-19.56)"/><ellipse class="cls-2" cx="1816" cy="867.5" rx="5.03" ry="11.02" transform="translate(1645.83 2487.38) rotate(-87.59)"/><ellipse class="cls-2" cx="1623" cy="939.5" rx="11.02" ry="5.03" transform="translate(552.13 439.57) rotate(-19.56)"/><ellipse class="cls-2" cx="1242" cy="850.5" rx="11.02" ry="5.03" transform="translate(559.94 306.88) rotate(-19.56)"/><ellipse class="cls-2" cx="829" cy="875.5" rx="11.02" ry="5.03" transform="translate(527.73 170.06) rotate(-19.56)"/></g><rect class="cls-2" y="158" width="1920" height="340" transform="translate(2693 498) rotate(-180)"/><g class="cls-3"><rect class="cls-4" x="766" y="478" width="1924" height="430" transform="translate(4229 1228) rotate(-180)"/><path class="cls-5" d="M1922,478s61.87,39,194.72,39S2306,478,2306,478" transform="translate(773 -158)"/><path class="cls-5" d="M1154,478s61.88,39,194.73,39S1538,478,1538,478" transform="translate(773 -158)"/><path class="cls-6" d="M2306,478s56.42-39,189.27-39S2690,478,2690,478" transform="translate(773 -158)"/><path class="cls-6" d="M1538,478s56.41-39,189.26-39S1922,478,1922,478" transform="translate(773 -158)"/><path class="cls-6" d="M770,478s56.42-39,189.27-39S1154,478,1154,478" transform="translate(773 -158)"/><rect class="cls-4" x="770" y="557" width="1920" height="268" transform="translate(4233 1224) rotate(-180)"/><rect class="cls-4" x="-770" y="478" width="1924" height="430" transform="translate(1157 1228) rotate(-180)"/><path class="cls-5" d="M386,478s61.87,39,194.72,39S770,478,770,478" transform="translate(773 -158)"/><path class="cls-5" d="M-382,478s61.88,39,194.73,39S2,478,2,478" transform="translate(773 -158)"/><path class="cls-6" d="M770,478s56.42-39,189.27-39S1154,478,1154,478" transform="translate(773 -158)"/><path class="cls-6" d="M2,478s56.41-39,189.26-39S386,478,386,478" transform="translate(773 -158)"/><path class="cls-6" d="M-766,478s56.42-39,189.27-39S-382,478-382,478" transform="translate(773 -158)"/><rect class="cls-4" x="-766" y="557" width="1920" height="268" transform="translate(1161 1224) rotate(-180)"/><rect class="cls-7" x="-772" y="765" width="1924" height="315" transform="translate(1153 1687) rotate(-180)"/><path class="cls-8" d="M384,765s61.87,39,194.72,39S768,765,768,765" transform="translate(773 -158)"/><path class="cls-8" d="M-384,765s61.88,39,194.73,39S0,765,0,765" transform="translate(773 -158)"/><path class="cls-9" d="M768,765s56.42-39,189.27-39S1152,765,1152,765" transform="translate(773 -158)"/><path class="cls-9" d="M0,765s56.41-39,189.26-39S384,765,384,765" transform="translate(773 -158)"/><path class="cls-9" d="M-768,765s56.42-39,189.27-39S-384,765-384,765" transform="translate(773 -158)"/><rect class="cls-7" x="768" y="765" width="1924" height="315" transform="translate(4233 1687) rotate(-180)"/><path class="cls-8" d="M1924,765s61.87,39,194.72,39S2308,765,2308,765" transform="translate(773 -158)"/><path class="cls-8" d="M1156,765s61.88,39,194.73,39S1540,765,1540,765" transform="translate(773 -158)"/><path class="cls-9" d="M2308,765s56.42-39,189.27-39S2692,765,2692,765" transform="translate(773 -158)"/><path class="cls-9" d="M1540,765s56.41-39,189.26-39S1924,765,1924,765" transform="translate(773 -158)"/><path class="cls-9" d="M772,765s56.42-39,189.27-39S1156,765,1156,765" transform="translate(773 -158)"/><ellipse class="cls-4" cx="1832" cy="230.5" rx="20.6" ry="9.4" transform="translate(903.19 788.88) rotate(-30)"/><ellipse class="cls-4" cx="1007" cy="292.5" rx="11.02" ry="5.03" transform="translate(761.66 384.69) rotate(-30)"/><ellipse class="cls-4" cx="1540" cy="372.5" rx="19.73" ry="9.01" transform="translate(793.07 661.91) rotate(-30)"/><ellipse class="cls-4" cx="1925" cy="80.5" rx="11.02" ry="5.03"/><ellipse class="cls-4" cx="897" cy="379.5" rx="8.86" ry="19.41" transform="translate(1255.71 1102.97) rotate(-87.76)"/><ellipse class="cls-4" cx="1445" cy="208.5" rx="5.03" ry="11.02" transform="translate(1537.77 1342.31) rotate(-70.44)"/><ellipse class="cls-4" cx="1360" cy="448.5" rx="5.03" ry="11.02" transform="translate(1255.07 1421.87) rotate(-70.44)"/><ellipse class="cls-4" cx="863" cy="238.5" rx="5.03" ry="11.02" transform="translate(1122.34 813.85) rotate(-70.44)"/><ellipse class="cls-4" cx="1821" cy="343.5" rx="11.02" ry="5.03" transform="translate(760.16 -81.05) rotate(-2.41)"/><ellipse class="cls-4" cx="1580" cy="250.5" rx="5.03" ry="11.02" transform="translate(1587.99 1497.46) rotate(-70.44)"/><ellipse class="cls-4" cx="1224" cy="385.5" rx="5.03" ry="11.02" transform="translate(1223.97 1251.81) rotate(-70.44)"/><ellipse class="cls-4" cx="804" cy="322.5" rx="5.03" ry="11.02" transform="translate(1003.94 814.14) rotate(-70.44)"/><ellipse class="cls-7" cx="803.58" cy="683.5" rx="20.6" ry="9.4" transform="translate(538.91 335.36) rotate(-30)"/><ellipse class="cls-7" cx="1840.58" cy="675.5" rx="11.02" ry="5.03" transform="translate(681.84 852.79) rotate(-30)"/><ellipse class="cls-7" cx="1012.58" cy="541.5" rx="19.73" ry="9.01" transform="translate(637.91 420.84) rotate(-30)"/><ellipse class="cls-7" cx="2255.58" cy="441.5" rx="11.02" ry="5.03"/><ellipse class="cls-7" cx="1674.58" cy="527.5" rx="8.86" ry="19.41" transform="translate(1855 2022.17) rotate(-87.76)"/><ellipse class="cls-7" cx="1166.58" cy="688.5" rx="5.03" ry="11.02" transform="translate(900.26 1399.26) rotate(-70.44)"/><ellipse class="cls-7" cx="1368.58" cy="715.5" rx="5.03" ry="11.02" transform="translate(1009.19 1607.56) rotate(-70.44)"/><ellipse class="cls-7" cx="1689.58" cy="675.5" rx="5.03" ry="11.02" transform="translate(1260.41 1883.43) rotate(-70.44)"/><ellipse class="cls-7" cx="814.58" cy="570.5" rx="11.02" ry="5.03" transform="translate(749.71 -123.21) rotate(-2.41)"/><ellipse class="cls-7" cx="972.58" cy="663.5" rx="5.03" ry="11.02" transform="translate(794.76 1199.83) rotate(-70.44)"/><ellipse class="cls-7" cx="1252.58" cy="570.5" rx="5.03" ry="11.02" transform="translate(1068.65 1401.8) rotate(-70.44)"/><ellipse class="cls-7" cx="1786.58" cy="570.5" rx="5.03" ry="11.02" transform="translate(1423.88 1904.99) rotate(-70.44)"/><ellipse class="cls-2" cx="1827" cy="980.5" rx="9.4" ry="20.6" transform="translate(837.36 1914.48) rotate(-60)"/><ellipse class="cls-2" cx="799" cy="1029.5" rx="5.03" ry="11.02" transform="translate(280.93 1048.7) rotate(-60)"/><ellipse class="cls-2" cx="1535" cy="838.5" rx="9.01" ry="19.73" transform="translate(814.34 1590.6) rotate(-60)"/><ellipse class="cls-2" cx="1838" cy="738.5" rx="11.02" ry="5.03"/><ellipse class="cls-2" cx="923" cy="807.5" rx="19.41" ry="8.86" transform="translate(742.13 -121.29) rotate(-2.24)"/><ellipse class="cls-2" cx="1085" cy="1013.5" rx="11.02" ry="5.03" transform="translate(496.31 263.73) rotate(-19.56)"/><ellipse class="cls-2" cx="1499" cy="999.5" rx="11.02" ry="5.03" transform="translate(524.88 401.52) rotate(-19.56)"/><ellipse class="cls-2" cx="894" cy="972.5" rx="11.02" ry="5.03" transform="translate(499.01 197.42) rotate(-19.56)"/><ellipse class="cls-2" cx="1816" cy="867.5" rx="5.03" ry="11.02" transform="translate(1645.83 2487.38) rotate(-87.59)"/><ellipse class="cls-2" cx="1623" cy="939.5" rx="11.02" ry="5.03" transform="translate(552.13 439.57) rotate(-19.56)"/><ellipse class="cls-2" cx="1242" cy="850.5" rx="11.02" ry="5.03" transform="translate(559.94 306.88) rotate(-19.56)"/><ellipse class="cls-2" cx="829" cy="875.5" rx="11.02" ry="5.03" transform="translate(527.73 170.06) rotate(-19.56)"/></g></g></g></svg>