<?xml version="1.0" encoding="utf-8"?>
<!-- Generator: Adobe Illustrator 25.4.1, SVG Export Plug-In . SVG Version: 6.00 Build 0)  -->
<svg version="1.1" id="Ebene_1" xmlns="http://www.w3.org/2000/svg" xmlns:xlink="http://www.w3.org/1999/xlink" x="0px" y="0px"
	 viewBox="0 0 500 500" style="enable-background:new 0 0 500 500;" xml:space="preserve">
<style type="text/css">
	.st0{clip-path:url(#SVGID_00000041995100287127839310000004117290247156096157_);}
	.st1{fill:#603813;}
	.st2{fill:#42210B;}
	.st3{fill:#FFFFFF;stroke:#FFFFFF;stroke-width:1.8082;stroke-miterlimit:10;}
	.st4{fill:#321400;}
	.st5{clip-path:url(#SVGID_00000121980208510553095710000009903850643588839305_);}
	.st6{fill:#FFFFFF;}
</style>
<g>
	<g>
		<defs>
			<circle id="SVGID_1_" cx="250" cy="250" r="249.5"/>
		</defs>
		<clipPath id="SVGID_00000143607544427398897620000002532879403610522780_">
			<use xlink:href="#SVGID_1_"  style="overflow:visible;"/>
		</clipPath>
		
			<g id="Ebene_1_00000142147099179886634290000014429100024192191648_" style="clip-path:url(#SVGID_00000143607544427398897620000002532879403610522780_);">
			<rect x="-218.5" y="-77" class="st1" width="937" height="257.3"/>
			<g>
				<rect x="-593" y="181.5" class="st2" width="1686.1" height="137.6"/>
				<path class="st3" d="M1091.8,182.7v135.2H344.7H155.3h-747.1V182.7h747.1h189.3H1091.8 M1094.3,180.3H344.7H155.3h-749.6v140.1
					h749.6h189.3h749.6V180.3L1094.3,180.3z"/>
			</g>
			<polygon class="st4" points="343.7,320.3 156.3,320.3 -595.3,320.3 -595.3,583.7 156.3,583.7 343.7,583.7 1095.3,583.7 
				1095.3,320.3 			"/>
		</g>
	</g>
	<g>
		<defs>
			<circle id="SVGID_00000003093246409243507200000009854468113383905156_" cx="250" cy="250" r="250"/>
		</defs>
		<clipPath id="SVGID_00000162325090958455371490000004688310204890417596_">
			<use xlink:href="#SVGID_00000003093246409243507200000009854468113383905156_"  style="overflow:visible;"/>
		</clipPath>
		<g id="Isolationsmodus" style="clip-path:url(#SVGID_00000162325090958455371490000004688310204890417596_);">
			<g>
				<g>
					
						<ellipse transform="matrix(0.8244 -0.566 0.566 0.8244 136.5866 431.7618)" class="st2" cx="764.1" cy="-4.2" rx="12.7" ry="6.1"/>
					
						<ellipse transform="matrix(0.8245 -0.5658 0.5658 0.8245 26.4717 159.7777)" class="st2" cx="270.8" cy="37.2" rx="6.7" ry="3.2"/>
					
						<ellipse transform="matrix(0.8243 -0.5661 0.5661 0.8243 52.2593 349.6585)" class="st2" cx="589.5" cy="90.6" rx="12.2" ry="5.8"/>
					<ellipse class="st2" cx="357.6" cy="1.1" rx="6.6" ry="3.3"/>
					
						<ellipse transform="matrix(4.676080e-02 -0.9989 0.9989 4.676080e-02 100.2608 295.617)" class="st2" cx="205" cy="95.3" rx="5.9" ry="11.6"/>
					
						<ellipse transform="matrix(0.3899 -0.9208 0.9208 0.3899 342.4673 478.9873)" class="st2" cx="532.7" cy="-19" rx="3.3" ry="6.7"/>
					
						<ellipse transform="matrix(0.3899 -0.9208 0.9208 0.3899 163.7361 530.0449)" class="st2" cx="481.9" cy="141.5" rx="3.3" ry="6.7"/>
					
						<ellipse transform="matrix(0.3899 -0.9208 0.9208 0.3899 111.7047 170.7435)" class="st2" cx="184.7" cy="1.1" rx="3.3" ry="6.7"/>
					
						<ellipse transform="matrix(0.9987 -5.022392e-02 5.022392e-02 0.9987 -2.6262 38.1336)" class="st2" cx="757.5" cy="71.3" rx="6.6" ry="3.3"/>
					
						<ellipse transform="matrix(0.3899 -0.9208 0.9208 0.3899 365.8744 570.5254)" class="st2" cx="613.5" cy="9.1" rx="3.3" ry="6.7"/>
					
						<ellipse transform="matrix(0.3899 -0.9208 0.9208 0.3899 152.886 429.5289)" class="st2" cx="400.6" cy="99.4" rx="3.3" ry="6.7"/>
					
						<ellipse transform="matrix(0.3899 -0.9208 0.9208 0.3899 38.4952 172.5936)" class="st2" cx="149.5" cy="57.2" rx="3.3" ry="6.7"/>
					
						<ellipse transform="matrix(0.8244 -0.566 0.566 0.8244 -142.732 136.8739)" class="st4" cx="149.2" cy="298.5" rx="12.7" ry="6.1"/>
					
						<ellipse transform="matrix(0.8245 -0.5658 0.5658 0.8245 -30.8573 486.6599)" class="st4" cx="769.2" cy="293.1" rx="6.7" ry="3.2"/>
					
						<ellipse transform="matrix(0.8243 -0.5661 0.5661 0.8243 -67.0892 190.9741)" class="st4" cx="274.2" cy="203.6" rx="12.2" ry="5.8"/>
					<ellipse class="st4" cx="555.2" cy="242.3" rx="6.6" ry="3.3"/>
					
						<ellipse transform="matrix(4.676080e-02 -0.9989 0.9989 4.676080e-02 444.5652 854.4482)" class="st4" cx="670" cy="194.3" rx="5.9" ry="11.6"/>
					
						<ellipse transform="matrix(0.3899 -0.9208 0.9208 0.3899 -54.3949 521.3254)" class="st4" cx="366.2" cy="301.7" rx="3.3" ry="6.7"/>
					
						<ellipse transform="matrix(0.3899 -0.9208 0.9208 0.3899 2.6178 643.5663)" class="st4" cx="487" cy="319.8" rx="3.3" ry="6.7"/>
					
						<ellipse transform="matrix(0.3899 -0.9208 0.9208 0.3899 144.3194 804.0671)" class="st4" cx="679" cy="293.1" rx="3.3" ry="6.7"/>
					
						<ellipse transform="matrix(0.9987 -5.022392e-02 5.022392e-02 0.9987 -10.9978 8.1056)" class="st4" cx="155.8" cy="222.9" rx="6.6" ry="3.3"/>
					
						<ellipse transform="matrix(0.3899 -0.9208 0.9208 0.3899 -109.8228 404.3775)" class="st4" cx="250.3" cy="285.1" rx="3.3" ry="6.7"/>
					
						<ellipse transform="matrix(0.3899 -0.9208 0.9208 0.3899 49.5529 520.6805)" class="st4" cx="417.7" cy="222.9" rx="3.3" ry="6.7"/>
					
						<ellipse transform="matrix(0.3899 -0.9208 0.9208 0.3899 244.3182 814.6497)" class="st4" cx="737" cy="222.9" rx="3.3" ry="6.7"/>
					
						<ellipse transform="matrix(0.566 -0.8244 0.8244 0.566 -79.2767 843.0706)" class="st1" cx="761.1" cy="496.8" rx="6.1" ry="12.7"/>
					
						<ellipse transform="matrix(0.5658 -0.8245 0.8245 0.5658 -373.1523 350.647)" class="st1" cx="146.4" cy="529.6" rx="3.2" ry="6.7"/>
					
						<ellipse transform="matrix(0.5661 -0.8243 0.8243 0.5661 -76.9603 657.883)" class="st1" cx="586.5" cy="402" rx="5.8" ry="12.2"/>
					<ellipse class="st1" cx="305.5" cy="440.7" rx="6.6" ry="3.3"/>
					
						<ellipse transform="matrix(0.9989 -4.676083e-02 4.676083e-02 0.9989 -17.5845 10.73)" class="st1" cx="220.5" cy="381.2" rx="11.6" ry="5.9"/>
					
						<ellipse transform="matrix(0.9208 -0.3899 0.3899 0.9208 -177.1971 164.8351)" class="st1" cx="317.4" cy="518.9" rx="6.7" ry="3.3"/>
					
						<ellipse transform="matrix(0.9208 -0.3899 0.3899 0.9208 -153.9724 260.6172)" class="st1" cx="564.9" cy="509.6" rx="6.7" ry="3.3"/>
					
						<ellipse transform="matrix(0.9208 -0.3899 0.3899 0.9208 -175.5512 118.1382)" class="st1" cx="203.2" cy="491.5" rx="6.7" ry="3.3"/>
					
						<ellipse transform="matrix(5.022399e-02 -0.9987 0.9987 5.022399e-02 295.7177 1153.8553)" class="st1" cx="754.5" cy="421.4" rx="3.3" ry="6.6"/>
					
						<ellipse transform="matrix(0.9208 -0.3899 0.3899 0.9208 -132.4603 286.3542)" class="st1" cx="639.1" cy="469.4" rx="6.7" ry="3.3"/>
					
						<ellipse transform="matrix(0.9208 -0.3899 0.3899 0.9208 -127.3162 192.8307)" class="st1" cx="411.3" cy="410" rx="6.7" ry="3.3"/>
					
						<ellipse transform="matrix(0.9208 -0.3899 0.3899 0.9208 -153.3519 97.8507)" class="st1" cx="164.3" cy="426.7" rx="6.7" ry="3.3"/>
				</g>
				<g>
					
						<ellipse transform="matrix(0.8244 -0.566 0.566 0.8244 -387.5025 -217.9218)" class="st1" cx="-545" cy="515.6" rx="12.7" ry="6.1"/>
					
						<ellipse transform="matrix(0.8245 -0.5658 0.5658 0.8245 -277.3221 53.9728)" class="st1" cx="-51.6" cy="474.1" rx="6.7" ry="3.2"/>
					
						<ellipse transform="matrix(0.8243 -0.5661 0.5661 0.8243 -303.1976 -135.7508)" class="st1" cx="-370.3" cy="420.7" rx="12.2" ry="5.8"/>
					<ellipse class="st1" cx="-138.3" cy="510.2" rx="6.6" ry="3.3"/>
					
						<ellipse transform="matrix(4.676080e-02 -0.9989 0.9989 4.676080e-02 -402.1078 410.7862)" class="st1" cx="14.2" cy="416.1" rx="5.9" ry="11.6"/>
					
						<ellipse transform="matrix(0.3899 -0.9208 0.9208 0.3899 -679.5036 34.8098)" class="st1" cx="-313.5" cy="530.2" rx="3.3" ry="6.7"/>
					
						<ellipse transform="matrix(0.3899 -0.9208 0.9208 0.3899 -500.9074 -16.2767)" class="st1" cx="-262.7" cy="369.9" rx="3.3" ry="6.7"/>
					
						<ellipse transform="matrix(0.3899 -0.9208 0.9208 0.3899 -448.7857 343.0075)" class="st1" cx="34.5" cy="510.2" rx="3.3" ry="6.7"/>
					
						<ellipse transform="matrix(0.9987 -5.022392e-02 5.022392e-02 0.9987 -22.7759 -26.4796)" class="st1" cx="-538.3" cy="440" rx="6.6" ry="3.3"/>
					
						<ellipse transform="matrix(0.3899 -0.9208 0.9208 0.3899 -702.9384 -56.6839)" class="st1" cx="-394.2" cy="502.2" rx="3.3" ry="6.7"/>
					
						<ellipse transform="matrix(0.3899 -0.9208 0.9208 0.3899 -490.0404 84.3295)" class="st1" cx="-181.4" cy="412" rx="3.3" ry="6.7"/>
					
						<ellipse transform="matrix(0.3899 -0.9208 0.9208 0.3899 -375.6053 341.2925)" class="st1" cx="69.8" cy="454.1" rx="3.3" ry="6.7"/>
					
						<ellipse transform="matrix(0.8244 -0.566 0.566 0.8244 -108.2317 76.9981)" class="st4" cx="70" cy="212.9" rx="12.7" ry="6.1"/>
					
						<ellipse transform="matrix(0.8245 -0.5658 0.5658 0.8245 -219.9864 -272.9267)" class="st4" cx="-550" cy="218.2" rx="6.7" ry="3.2"/>
					
						<ellipse transform="matrix(0.8243 -0.5661 0.5661 0.8243 -183.8969 22.9655)" class="st4" cx="-54.9" cy="307.8" rx="12.2" ry="5.8"/>
					<ellipse class="st4" cx="-336" cy="269" rx="6.6" ry="3.3"/>
					
						<ellipse transform="matrix(4.676076e-02 -0.9989 0.9989 4.676076e-02 -746.5197 -147.9973)" class="st4" cx="-450.8" cy="317.1" rx="5.9" ry="11.6"/>
					
						<ellipse transform="matrix(0.3899 -0.9208 0.9208 0.3899 -282.6414 -7.5284)" class="st4" cx="-147" cy="209.5" rx="3.3" ry="6.7"/>
					
						<ellipse transform="matrix(0.3899 -0.9208 0.9208 0.3899 -339.6988 -129.8153)" class="st4" cx="-267.8" cy="191.5" rx="3.3" ry="6.7"/>
					
						<ellipse transform="matrix(0.3899 -0.9208 0.9208 0.3899 -481.4294 -290.1811)" class="st4" cx="-459.7" cy="218.2" rx="3.3" ry="6.7"/>
					
						<ellipse transform="matrix(0.9987 -5.022392e-02 5.022392e-02 0.9987 -14.4041 3.5524)" class="st4" cx="63.5" cy="288.4" rx="6.6" ry="3.3"/>
					
						<ellipse transform="matrix(0.3899 -0.9208 0.9208 0.3899 -227.3315 109.4809)" class="st4" cx="-31" cy="226.3" rx="3.3" ry="6.7"/>
					
						<ellipse transform="matrix(0.3899 -0.9208 0.9208 0.3899 -386.6171 -6.839)" class="st4" cx="-198.5" cy="288.4" rx="3.3" ry="6.7"/>
					
						<ellipse transform="matrix(0.3899 -0.9208 0.9208 0.3899 -581.4896 -300.8817)" class="st4" cx="-517.8" cy="288.4" rx="3.3" ry="6.7"/>
					
						<ellipse transform="matrix(0.566 -0.8244 0.8244 0.566 -247.0838 -440.4489)" class="st2" cx="-541.9" cy="14.5" rx="6.1" ry="12.7"/>
					
						<ellipse transform="matrix(0.5658 -0.8245 0.8245 0.5658 46.7185 52.0414)" class="st2" cx="72.8" cy="-18.3" rx="3.2" ry="6.7"/>
					
						<ellipse transform="matrix(0.5661 -0.8243 0.8243 0.5661 -249.5004 -255.3908)" class="st2" cx="-367.4" cy="109.3" rx="5.8" ry="12.2"/>
					<ellipse class="st2" cx="-86.3" cy="70.6" rx="6.6" ry="3.3"/>
					
						<ellipse transform="matrix(0.9989 -4.676101e-02 4.676101e-02 0.9989 -6.0806 7.883170e-02)" class="st2" cx="-1.4" cy="130" rx="11.6" ry="5.9"/>
					
						<ellipse transform="matrix(0.9208 -0.3899 0.3899 0.9208 -4.8054 -38.8717)" class="st2" cx="-98.1" cy="-7.6" rx="6.7" ry="3.3"/>
					
						<ellipse transform="matrix(0.9208 -0.3899 0.3899 0.9208 -28.0431 -134.687)" class="st2" cx="-345.8" cy="1.7" rx="6.7" ry="3.3"/>
					<ellipse transform="matrix(0.9208 -0.3899 0.3899 0.9208 -6.4456 7.8193)" class="st2" cx="16" cy="19.8" rx="6.7" ry="3.3"/>
					
						<ellipse transform="matrix(5.022399e-02 -0.9987 0.9987 5.022399e-02 -598.2523 -449.2074)" class="st2" cx="-535.3" cy="89.9" rx="3.3" ry="6.6"/>
					
						<ellipse transform="matrix(0.9208 -0.3899 0.3899 0.9208 -49.5552 -160.424)" class="st2" cx="-419.9" cy="41.8" rx="6.7" ry="3.3"/>
					
						<ellipse transform="matrix(0.9208 -0.3899 0.3899 0.9208 -54.6864 -66.8672)" class="st2" cx="-192" cy="101.3" rx="6.7" ry="3.3"/>
					
						<ellipse transform="matrix(0.9208 -0.3899 0.3899 0.9208 -28.6636 28.0794)" class="st2" cx="54.8" cy="84.6" rx="6.7" ry="3.3"/>
				</g>
			</g>
		</g>
	</g>
</g>
<g>
	<path class="st6" d="M250,8c32.7,0,64.4,6.4,94.2,19c28.8,12.2,54.7,29.6,76.9,51.9s39.7,48.1,51.9,76.9c12.6,29.8,19,61.5,19,94.2
		s-6.4,64.4-19,94.2c-12.2,28.8-29.6,54.7-51.9,76.9S373,460.8,344.2,473c-29.8,12.6-61.5,19-94.2,19s-64.4-6.4-94.2-19
		c-28.8-12.2-54.7-29.6-76.9-51.9S39.2,373,27,344.2C14.4,314.4,8,282.7,8,250s6.4-64.4,19-94.2c12.2-28.8,29.6-54.7,51.9-76.9
		S127,39.2,155.8,27C185.6,14.4,217.3,8,250,8 M250,0C111.9,0,0,111.9,0,250s111.9,250,250,250s250-111.9,250-250S388.1,0,250,0
		L250,0z"/>
</g>
</svg>
