<?xml version="1.0" encoding="utf-8"?>
<!-- Generator: Adobe Illustrator 25.4.1, SVG Export Plug-In . SVG Version: 6.00 Build 0)  -->
<svg version="1.1" xmlns="http://www.w3.org/2000/svg" xmlns:xlink="http://www.w3.org/1999/xlink" x="0px" y="0px"
	 viewBox="0 0 1920 1160.3" style="enable-background:new 0 0 1920 1160.3;" xml:space="preserve">
<style type="text/css">
	.st0{fill:#603813;}
	.st1{fill:#42210B;}
	.st2{fill:#896C4B;}
	.st3{fill:#321400;}
</style>
<g id="Ebene_1">
	<rect y="-193.3" class="st0" width="1920" height="527.2"/>
	<g>
		<rect x="-767.5" y="336.3" class="st1" width="3455" height="282"/>
		<path class="st2" d="M2685,338.8v277H1154H766H-765v-277H766h388H2685 M2690,333.8H1154H766H-770v287H766h388h1536V333.8
			L2690,333.8z"/>
	</g>
	<polygon class="st3" points="1152,620.8 768,620.8 -772,620.8 -772,1160.3 768,1160.3 1152,1160.3 2692,1160.3 2692,620.8 	"/>
</g>
<g id="Isolationsmodus">
	<g>
		<g>
			
				<ellipse transform="matrix(0.8244 -0.566 0.566 0.8244 317.2216 1133.0515)" class="st1" cx="1984.5" cy="55.3" rx="24.2" ry="11.6"/>
			
				<ellipse transform="matrix(0.8245 -0.5658 0.5658 0.8245 107.3191 614.5761)" class="st1" cx="1044.6" cy="134.3" rx="12.9" ry="6.2"/>
			
				<ellipse transform="matrix(0.8243 -0.5661 0.5661 0.8243 156.5249 976.6133)" class="st1" cx="1651.8" cy="236.1" rx="23.2" ry="11.1"/>
			<ellipse class="st1" cx="1209.8" cy="65.5" rx="12.5" ry="6.4"/>
			
				<ellipse transform="matrix(4.676022e-02 -0.9989 0.9989 4.676022e-02 631.4597 1151.8075)" class="st1" cx="919.2" cy="245" rx="11.3" ry="22.1"/>
			
				<ellipse transform="matrix(0.3899 -0.9208 0.9208 0.3899 916.5792 1438.132)" class="st1" cx="1543.7" cy="27.3" rx="6.3" ry="12.7"/>
			
				<ellipse transform="matrix(0.3899 -0.9208 0.9208 0.3899 576.1279 1535.3551)" class="st1" cx="1446.8" cy="332.9" rx="6.3" ry="12.7"/>
			
				<ellipse transform="matrix(0.3899 -0.9208 0.9208 0.3899 476.8605 850.7898)" class="st1" cx="880.5" cy="65.5" rx="6.3" ry="12.7"/>
			
				<ellipse transform="matrix(0.9987 -5.022009e-02 5.022009e-02 0.9987 -7.5213 99.2865)" class="st1" cx="1972" cy="199.3" rx="12.5" ry="6.4"/>
			
				<ellipse transform="matrix(0.3899 -0.9208 0.9208 0.3899 961.1924 1612.3927)" class="st1" cx="1697.5" cy="80.8" rx="6.3" ry="12.7"/>
			
				<ellipse transform="matrix(0.3899 -0.9208 0.9208 0.3899 555.4445 1343.7291)" class="st1" cx="1291.8" cy="252.7" rx="6.3" ry="12.7"/>
			
				<ellipse transform="matrix(0.3899 -0.9208 0.9208 0.3899 337.3636 854.1194)" class="st1" cx="813.3" cy="172.5" rx="6.3" ry="12.7"/>
			
				<ellipse transform="matrix(0.8244 -0.566 0.566 0.8244 -215.0179 571.0941)" class="st3" cx="812.8" cy="632.1" rx="24.2" ry="11.6"/>
			
				<ellipse transform="matrix(0.8245 -0.5658 0.5658 0.8245 -1.9218 1237.5288)" class="st3" cx="1994.3" cy="621.9" rx="12.9" ry="6.2"/>
			
				<ellipse transform="matrix(0.8243 -0.5661 0.5661 0.8243 -70.8433 674.2337)" class="st3" cx="1050.9" cy="451.3" rx="23.2" ry="11.1"/>
			<ellipse class="st3" cx="1586.5" cy="525.1" rx="12.5" ry="6.4"/>
			
				<ellipse transform="matrix(4.676022e-02 -0.9989 0.9989 4.676022e-02 1287.5198 2216.6284)" class="st3" cx="1805.2" cy="433.7" rx="11.3" ry="22.1"/>
			
				<ellipse transform="matrix(0.3899 -0.9208 0.9208 0.3899 160.3407 1518.85)" class="st3" cx="1226.5" cy="638.4" rx="6.3" ry="12.7"/>
			
				<ellipse transform="matrix(0.3899 -0.9208 0.9208 0.3899 269.1035 1751.7695)" class="st3" cx="1456.6" cy="672.8" rx="6.3" ry="12.7"/>
			
				<ellipse transform="matrix(0.3899 -0.9208 0.9208 0.3899 539.1417 2057.4917)" class="st3" cx="1822.4" cy="621.9" rx="6.3" ry="12.7"/>
			
				<ellipse transform="matrix(0.9987 -5.022009e-02 5.022009e-02 0.9987 -23.4757 42.0652)" class="st3" cx="825.4" cy="488.2" rx="12.5" ry="6.4"/>
			
				<ellipse transform="matrix(0.3899 -0.9208 0.9208 0.3899 54.8062 1295.8724)" class="st3" cx="1005.4" cy="606.6" rx="6.3" ry="12.7"/>
			
				<ellipse transform="matrix(0.3899 -0.9208 0.9208 0.3899 358.4812 1517.427)" class="st3" cx="1324.4" cy="488.2" rx="6.3" ry="12.7"/>
			
				<ellipse transform="matrix(0.3899 -0.9208 0.9208 0.3899 729.6628 2077.7024)" class="st3" cx="1932.9" cy="488.2" rx="6.3" ry="12.7"/>
			
				<ellipse transform="matrix(0.566 -0.8244 0.8244 0.566 25.8918 2069.6624)" class="st0" cx="1978.8" cy="1010.2" rx="11.6" ry="24.2"/>
			
				<ellipse transform="matrix(0.5658 -0.8245 0.8245 0.5658 -533.7664 1131.5486)" class="st0" cx="807.5" cy="1072.6" rx="6.2" ry="12.9"/>
			
				<ellipse transform="matrix(0.5661 -0.8243 0.8243 0.5661 30.4807 1716.8043)" class="st0" cx="1646.1" cy="829.4" rx="11.1" ry="23.2"/>
			<ellipse class="st0" cx="1110.7" cy="903.3" rx="12.5" ry="6.4"/>
			
				<ellipse transform="matrix(0.9989 -4.676025e-02 4.676025e-02 0.9989 -35.8986 45.2319)" class="st0" cx="948.8" cy="789.9" rx="22.1" ry="11.3"/>
			
				<ellipse transform="matrix(0.9208 -0.3899 0.3899 0.9208 -320.5753 525.2632)" class="st0" cx="1133.5" cy="1052.2" rx="12.7" ry="6.3"/>
			
				<ellipse transform="matrix(0.9208 -0.3899 0.3899 0.9208 -276.2862 707.7885)" class="st0" cx="1605.2" cy="1034.4" rx="12.7" ry="6.3"/>
			
				<ellipse transform="matrix(0.9208 -0.3899 0.3899 0.9208 -317.447 436.2723)" class="st0" cx="915.8" cy="1000" rx="12.7" ry="6.3"/>
			
				<ellipse transform="matrix(5.022017e-02 -0.9987 0.9987 5.022017e-02 1002.1503 2786.72)" class="st0" cx="1966.3" cy="866.5" rx="6.4" ry="12.5"/>
			
				<ellipse transform="matrix(0.9208 -0.3899 0.3899 0.9208 -235.3157 756.8333)" class="st0" cx="1746.5" cy="958" rx="12.7" ry="6.3"/>
			
				<ellipse transform="matrix(0.9208 -0.3899 0.3899 0.9208 -225.4939 578.5898)" class="st0" cx="1312.4" cy="844.7" rx="12.7" ry="6.3"/>
			
				<ellipse transform="matrix(0.9208 -0.3899 0.3899 0.9208 -275.1534 397.6181)" class="st0" cx="841.8" cy="876.5" rx="12.7" ry="6.3"/>
		</g>
		<g>
			
				<ellipse transform="matrix(0.8244 -0.566 0.566 0.8244 -681.5137 -104.8834)" class="st0" cx="-509.8" cy="1045.8" rx="24.2" ry="11.6"/>
			
				<ellipse transform="matrix(0.8245 -0.5658 0.5658 0.8245 -471.5902 413.0653)" class="st0" cx="430.2" cy="966.9" rx="12.9" ry="6.2"/>
			
				<ellipse transform="matrix(0.8243 -0.5661 0.5661 0.8243 -520.8232 51.7175)" class="st0" cx="-177.1" cy="865" rx="23.2" ry="11.1"/>
			<ellipse class="st0" cx="265" cy="1035.7" rx="12.5" ry="6.4"/>
			
				<ellipse transform="matrix(4.676021e-02 -0.9989 0.9989 4.676021e-02 -325.7975 1371.1571)" class="st0" cx="555.5" cy="856.3" rx="11.3" ry="22.1"/>
			
				<ellipse transform="matrix(0.3899 -0.9208 0.9208 0.3899 -1030.8842 591.7489)" class="st0" cx="-68.8" cy="1073.9" rx="6.3" ry="12.7"/>
			
				<ellipse transform="matrix(0.3899 -0.9208 0.9208 0.3899 -690.4326 494.5257)" class="st0" cx="28" cy="768.3" rx="6.3" ry="12.7"/>
			
				<ellipse transform="matrix(0.3899 -0.9208 0.9208 0.3899 -591.1654 1179.0909)" class="st0" cx="594.3" cy="1035.7" rx="6.3" ry="12.7"/>
			
				<ellipse transform="matrix(0.9987 -5.022009e-02 5.022009e-02 0.9987 -45.918 -23.8334)" class="st0" cx="-497.2" cy="901.8" rx="12.5" ry="6.4"/>
			
				<ellipse transform="matrix(0.3899 -0.9208 0.9208 0.3899 -1075.4973 417.4881)" class="st0" cx="-222.7" cy="1020.4" rx="6.3" ry="12.7"/>
			
				<ellipse transform="matrix(0.3899 -0.9208 0.9208 0.3899 -669.7493 686.1516)" class="st0" cx="183" cy="848.5" rx="6.3" ry="12.7"/>
			
				<ellipse transform="matrix(0.3899 -0.9208 0.9208 0.3899 -451.6685 1175.7614)" class="st0" cx="661.5" cy="928.8" rx="6.3" ry="12.7"/>
			
				<ellipse transform="matrix(0.8244 -0.566 0.566 0.8244 -149.2742 457.0741)" class="st3" cx="661.9" cy="469.1" rx="24.2" ry="11.6"/>
			
				<ellipse transform="matrix(0.8245 -0.5658 0.5658 0.8245 -362.3492 -209.8874)" class="st3" cx="-519.6" cy="479.3" rx="12.9" ry="6.2"/>
			
				<ellipse transform="matrix(0.8243 -0.5661 0.5661 0.8243 -293.4553 354.0978)" class="st3" cx="423.8" cy="649.9" rx="23.2" ry="11.1"/>
			<ellipse class="st3" cx="-111.7" cy="576.1" rx="12.5" ry="6.4"/>
			
				<ellipse transform="matrix(4.676018e-02 -0.9989 0.9989 4.676018e-02 -981.9888 306.4531)" class="st3" cx="-330.4" cy="667.7" rx="11.3" ry="22.1"/>
			
				<ellipse transform="matrix(0.3899 -0.9208 0.9208 0.3899 -274.6457 511.0307)" class="st3" cx="248.4" cy="462.8" rx="6.3" ry="12.7"/>
			
				<ellipse transform="matrix(0.3899 -0.9208 0.9208 0.3899 -383.4086 278.1114)" class="st3" cx="18.2" cy="428.4" rx="6.3" ry="12.7"/>
			
				<ellipse transform="matrix(0.3899 -0.9208 0.9208 0.3899 -653.4467 -27.6109)" class="st3" cx="-347.6" cy="479.4" rx="6.3" ry="12.7"/>
			
				<ellipse transform="matrix(0.9987 -5.022009e-02 5.022009e-02 0.9987 -29.9634 33.3936)" class="st3" cx="649.5" cy="613" rx="12.5" ry="6.4"/>
			
				<ellipse transform="matrix(0.3899 -0.9208 0.9208 0.3899 -169.1111 734.0083)" class="st3" cx="469.4" cy="494.6" rx="6.3" ry="12.7"/>
			
				<ellipse transform="matrix(0.3899 -0.9208 0.9208 0.3899 -472.7861 512.4539)" class="st3" cx="150.4" cy="613" rx="6.3" ry="12.7"/>
			
				<ellipse transform="matrix(0.3899 -0.9208 0.9208 0.3899 -843.9677 -47.8215)" class="st3" cx="-458.1" cy="613" rx="6.3" ry="12.7"/>
			
				<ellipse transform="matrix(0.566 -0.8244 0.8244 0.566 -293.7562 -376.0903)" class="st1" cx="-504.1" cy="91" rx="11.6" ry="24.2"/>
			
				<ellipse transform="matrix(0.5658 -0.8245 0.8245 0.5658 266.0721 562.523)" class="st1" cx="667.2" cy="28.6" rx="6.2" ry="12.9"/>
			
				<ellipse transform="matrix(0.5661 -0.8243 0.8243 0.5661 -298.397 -23.3856)" class="st1" cx="-171.4" cy="271.8" rx="11.1" ry="23.2"/>
			<ellipse class="st1" cx="364.1" cy="197.9" rx="12.5" ry="6.4"/>
			
				<ellipse transform="matrix(0.9989 -4.676022e-02 4.676022e-02 0.9989 -13.9774 24.932)" class="st1" cx="525.9" cy="311.2" rx="22.1" ry="11.3"/>
			<ellipse transform="matrix(0.9208 -0.3899 0.3899 0.9208 7.93 136.9781)" class="st1" cx="341.4" cy="49" rx="12.7" ry="6.3"/>
			
				<ellipse transform="matrix(0.9208 -0.3899 0.3899 0.9208 -36.3591 -45.5471)" class="st1" cx="-130.4" cy="66.8" rx="12.7" ry="6.3"/>
			
				<ellipse transform="matrix(0.9208 -0.3899 0.3899 0.9208 4.8017 225.9691)" class="st1" cx="559" cy="101.2" rx="12.7" ry="6.3"/>
			
				<ellipse transform="matrix(5.022017e-02 -0.9987 0.9987 5.022017e-02 -701.4178 -267.6751)" class="st1" cx="-491.4" cy="234.9" rx="6.4" ry="12.5"/>
			
				<ellipse transform="matrix(0.9208 -0.3899 0.3899 0.9208 -77.3296 -94.5919)" class="st1" cx="-271.7" cy="143.2" rx="12.7" ry="6.3"/>
			
				<ellipse transform="matrix(0.9208 -0.3899 0.3899 0.9208 -87.1513 83.6516)" class="st1" cx="162.5" cy="256.5" rx="12.7" ry="6.3"/>
			
				<ellipse transform="matrix(0.9208 -0.3899 0.3899 0.9208 -37.4919 264.6234)" class="st1" cx="633" cy="224.7" rx="12.7" ry="6.3"/>
		</g>
	</g>
</g>
</svg>
